<svg width="100" height="100" viewBox="0 0 100 100" fill="none" xmlns="http://www.w3.org/2000/svg">
<path d="M50 8.33325C58.1182 8.33325 66.1394 8.62823 73.4734 9.80078C77.6373 10.5357 81.4678 12.5527 84.4297 15.5702C87.4619 18.6024 89.6128 22.4188 90.1991 26.5265C91.2746 33.8605 91.6667 41.7845 91.6667 49.9999C91.6667 58.2152 91.3754 66.1393 90.1991 73.4734C89.4649 77.6375 87.4478 81.4682 84.4297 84.4297C81.3975 87.4619 77.5811 89.6128 73.4734 90.199C66.1394 91.2782 58.2153 91.6666 50 91.6666C41.7846 91.6666 33.8605 91.3753 26.5265 90.199C22.3626 89.4641 18.5322 87.4471 15.5702 84.4297C12.538 81.3975 10.3871 77.5848 9.80081 73.4734C8.62452 66.1393 8.33325 58.1181 8.33325 49.9999C8.33325 41.8816 8.62452 33.8605 9.80081 26.5265C10.5357 22.3626 12.5528 18.5321 15.5702 15.5702C18.6024 12.538 22.4188 10.3871 26.5265 9.80078C33.7635 8.62823 41.7846 8.33325 50 8.33325Z" fill="url(#paint0_linear_22408_7152)"/>
<path fill-rule="evenodd" clip-rule="evenodd" d="M70.1725 1.16944C61.7026 1.01586 52.6001 1.96951 43.3853 3.26945C34.0665 4.58942 25.0488 6.20541 17.0641 8.68894L17.0588 8.69061L17.0534 8.69217C12.6254 9.97556 8.74984 12.9469 5.84401 16.7955L5.84139 16.799L5.84137 16.799C2.96514 20.5492 1.33185 25.1039 1.16949 29.8272C1.0159 38.2971 1.96624 47.4097 3.26941 56.6142C4.57281 65.8203 6.19216 74.8423 8.68934 82.9368L8.6908 82.9416L8.69218 82.9463C9.97557 87.3743 12.9469 91.2499 16.7955 94.1558L16.799 94.1584C20.5492 97.0346 25.1039 98.6679 29.8272 98.8303C38.2973 98.9839 47.298 98.0499 56.6143 96.7303C65.9259 95.4114 74.8253 93.6996 82.9441 91.3083L82.9465 91.3075C87.3745 90.0242 91.25 87.0528 94.1559 83.2042L94.1584 83.2009C97.0333 79.45 98.6664 74.8956 98.8304 70.1726C98.984 61.7027 98.0435 52.7022 96.7271 43.3853C95.4115 34.0739 93.6997 25.1744 91.3084 17.0557L91.3077 17.0533C90.0243 12.6253 87.0529 8.74979 83.2043 5.84397L83.201 5.84144C79.45 2.9665 74.8956 1.33332 70.1725 1.16944ZM43.2242 2.12755C52.459 0.824772 61.6348 -0.139187 70.1982 0.0165108L70.2029 0.0165962L70.2076 0.0167581C75.1716 0.187961 79.9584 1.90374 83.9009 4.92487C87.9063 7.94953 91.0494 12.0205 92.4151 16.7315C94.8274 24.922 96.5488 33.8804 97.869 43.224C99.1883 52.5612 100.139 61.6347 99.9833 70.1981L99.9832 70.2028L99.9831 70.2075C99.8119 75.1715 98.0961 79.9584 95.0749 83.9008C92.0502 87.9063 87.9791 91.0494 83.268 92.415C75.0775 94.8274 66.1194 96.5487 56.776 97.8721C47.4383 99.1948 38.3648 100.139 29.8017 99.9832L29.7971 99.9831L29.7925 99.983C24.828 99.8133 20.0406 98.0973 16.0988 95.0747C12.0946 92.0509 8.95213 87.9813 7.58592 83.2721C5.06253 75.0911 3.43349 65.9996 2.12759 56.7759C0.821445 47.5504 -0.139138 38.3648 0.0165584 29.8016L0.0166422 29.797L0.0167995 29.7924C0.18644 24.828 1.90241 20.0406 4.925 16.0988C7.94868 12.0948 12.0179 8.95245 16.727 7.58611C24.8002 5.07557 33.8891 3.44982 43.2238 2.12759L43.2242 2.12755Z" fill="url(#paint1_linear_22408_7152)"/>
<path fill-rule="evenodd" clip-rule="evenodd" d="M23.6667 37.9219C23.6667 37.3696 24.1145 36.9219 24.6667 36.9219H46.5689C47.1212 36.9219 47.5689 37.3696 47.5689 37.9219V79.1666C47.5689 79.7189 47.1212 80.1666 46.5689 80.1666H24.6667C24.1145 80.1666 23.6667 79.7189 23.6667 79.1666V37.9219ZM25.6667 38.9219V78.1666H45.5689V38.9219H25.6667Z" fill="#696586"/>
<path fill-rule="evenodd" clip-rule="evenodd" d="M51.8381 37.9219C51.8381 37.3696 52.2859 36.9219 52.8381 36.9219H74.7403C75.2926 36.9219 75.7403 37.3696 75.7403 37.9219V47.3016C75.7403 47.8539 75.2926 48.3016 74.7403 48.3016H52.8381C52.2859 48.3016 51.8381 47.8539 51.8381 47.3016V37.9219ZM53.8381 38.9219V46.3016H73.7403V38.9219H53.8381Z" fill="#FD64B1"/>
<path fill-rule="evenodd" clip-rule="evenodd" d="M51.8381 53.8544C51.8381 53.3021 52.2859 52.8544 52.8381 52.8544H74.7403C75.2926 52.8544 75.7403 53.3021 75.7403 53.8544V63.2341C75.7403 63.7863 75.2926 64.2341 74.7403 64.2341H52.8381C52.2859 64.2341 51.8381 63.7863 51.8381 63.2341V53.8544ZM53.8381 54.8544V62.2341H73.7403V54.8544H53.8381Z" fill="#FD64B1"/>
<path fill-rule="evenodd" clip-rule="evenodd" d="M51.8381 69.7869C51.8381 69.2346 52.2859 68.7869 52.8381 68.7869H74.7403C75.2926 68.7869 75.7403 69.2346 75.7403 69.7869V79.1666C75.7403 79.7188 75.2926 80.1666 74.7403 80.1666H52.8381C52.2859 80.1666 51.8381 79.7188 51.8381 79.1666V69.7869ZM53.8381 70.7869V78.1666H73.7403V70.7869H53.8381Z" fill="#FD64B1"/>
<path fill-rule="evenodd" clip-rule="evenodd" d="M23.6667 21.3333C23.6667 20.781 24.1145 20.3333 24.6667 20.3333H74.7485C75.3008 20.3333 75.7485 20.781 75.7485 21.3333V31.8631C75.7485 32.4154 75.3008 32.8631 74.7485 32.8631H24.6667C24.1145 32.8631 23.6667 32.4154 23.6667 31.8631V21.3333ZM25.6667 22.3333V30.8631H73.7485V22.3333H25.6667Z" fill="#696586"/>
<defs>
<linearGradient id="paint0_linear_22408_7152" x1="13.3551" y1="13.4119" x2="84.2296" y2="84.3116" gradientUnits="userSpaceOnUse">
<stop stop-color="#F9F8FF"/>
<stop offset="0.494792" stop-color="#EFEDFF"/>
<stop offset="1" stop-color="#D8D4F3"/>
</linearGradient>
<linearGradient id="paint1_linear_22408_7152" x1="77" y1="-6.22069e-06" x2="-3.41665" y2="61.5936" gradientUnits="userSpaceOnUse">
<stop stop-color="#FF409C"/>
<stop offset="1" stop-color="#6F3DFF"/>
</linearGradient>
</defs>
</svg>
