<svg width="100" height="100" viewBox="0 0 100 100" fill="none" xmlns="http://www.w3.org/2000/svg">
<path d="M50 8.33325C58.1182 8.33325 66.1394 8.62823 73.4734 9.80078C77.6373 10.5357 81.4677 12.5527 84.4297 15.5702C87.4619 18.6024 89.6128 22.4188 90.1991 26.5265C91.2746 33.8605 91.6667 41.7845 91.6667 49.9999C91.6667 58.2152 91.3754 66.1393 90.1991 73.4734C89.4649 77.6375 87.4478 81.4682 84.4297 84.4297C81.3975 87.4619 77.5811 89.6128 73.4734 90.199C66.1394 91.2782 58.2153 91.6666 50 91.6666C41.7846 91.6666 33.8606 91.3753 26.5265 90.199C22.3626 89.4641 18.5322 87.4471 15.5702 84.4297C12.538 81.3975 10.3871 77.5848 9.80081 73.4734C8.62452 66.1393 8.33325 58.1181 8.33325 49.9999C8.33325 41.8816 8.62452 33.8605 9.80081 26.5265C10.5357 22.3626 12.5528 18.5321 15.5702 15.5702C18.6024 12.538 22.4188 10.3871 26.5265 9.80078C33.7635 8.62823 41.7846 8.33325 50 8.33325Z" fill="url(#paint0_linear_22408_7157)"/>
<path fill-rule="evenodd" clip-rule="evenodd" d="M70.1725 1.16944C61.7026 1.01586 52.6001 1.96951 43.3853 3.26945C34.0665 4.58942 25.0488 6.20541 17.0641 8.68894L17.0588 8.69061L17.0534 8.69217C12.6254 9.97556 8.74984 12.9469 5.84401 16.7955L5.84139 16.799L5.84137 16.799C2.96514 20.5492 1.33185 25.1039 1.1695 29.8272C1.0159 38.2971 1.96624 47.4097 3.26941 56.6142C4.57281 65.8203 6.19216 74.8423 8.68934 82.9368L8.6908 82.9416L8.69218 82.9463C9.97557 87.3743 12.9469 91.2499 16.7955 94.1558L16.799 94.1584C20.5492 97.0346 25.1039 98.6679 29.8272 98.8303C38.2973 98.9839 47.298 98.0499 56.6143 96.7303C65.9259 95.4114 74.8253 93.6996 82.9441 91.3083L82.9465 91.3076C87.3745 90.0242 91.25 87.0528 94.1559 83.2042L94.1584 83.2009C97.0333 79.45 98.6664 74.8956 98.8304 70.1726C98.984 61.7027 98.0435 52.7022 96.7271 43.3853C95.4115 34.0739 93.6997 25.1744 91.3084 17.0557L91.3077 17.0533C90.0243 12.6253 87.0529 8.74979 83.2043 5.84397L83.201 5.84144C79.45 2.9665 74.8956 1.33332 70.1725 1.16944ZM43.2242 2.12755C52.459 0.824772 61.6348 -0.139187 70.1982 0.0165108L70.2029 0.0165962L70.2076 0.0167581C75.1716 0.187961 79.9584 1.90374 83.9009 4.92487C87.9063 7.94953 91.0494 12.0205 92.4151 16.7315C94.8274 24.922 96.5488 33.8804 97.869 43.224C99.1883 52.5612 100.139 61.6347 99.9833 70.1981L99.9832 70.2028L99.9831 70.2075C99.8118 75.1715 98.0961 79.9584 95.0749 83.9008C92.0502 87.9063 87.9791 91.0494 83.268 92.415C75.0775 94.8274 66.1194 96.5487 56.776 97.8721C47.4383 99.1948 38.3648 100.139 29.8017 99.9832L29.7971 99.9831L29.7925 99.983C24.828 99.8133 20.0406 98.0973 16.0988 95.0747C12.0946 92.0509 8.95213 87.9813 7.58592 83.2721C5.06253 75.0911 3.43349 65.9996 2.12759 56.7759C0.821445 47.5504 -0.139138 38.3648 0.0165584 29.8016L0.0166422 29.797L0.0167995 29.7924C0.18644 24.828 1.90241 20.0406 4.925 16.0988C7.94868 12.0948 12.0179 8.95245 16.727 7.58611C24.8002 5.07557 33.8891 3.44982 43.2238 2.12759L43.2242 2.12755Z" fill="url(#paint1_linear_22408_7157)"/>
<path fill-rule="evenodd" clip-rule="evenodd" d="M74.3051 49.4553C74.6947 49.8467 74.6932 50.4799 74.3017 50.8695L69.0428 56.1029C68.6513 56.4925 68.0182 56.4909 67.6286 56.0995C67.239 55.708 67.2405 55.0748 67.632 54.6852L72.8909 49.4518C73.2824 49.0622 73.9156 49.0638 74.3051 49.4553Z" fill="#FD64B1"/>
<path fill-rule="evenodd" clip-rule="evenodd" d="M24.3409 50.561C24.7308 50.1699 25.364 50.169 25.7551 50.5589L29.8195 54.6111C30.2106 55.001 30.2116 55.6342 29.8216 56.0253C29.4317 56.4164 28.7985 56.4174 28.4074 56.0274L24.343 51.9753C23.9519 51.5853 23.951 50.9522 24.3409 50.561Z" fill="#696586"/>
<path fill-rule="evenodd" clip-rule="evenodd" d="M47.3066 63.6901C47.6961 63.2986 48.3293 63.2971 48.7208 63.6867L56.8946 71.8209C58.6386 73.5565 58.6415 76.3694 56.8926 78.1001C55.1546 79.8201 52.3385 79.8364 50.5995 78.0971C50.5992 78.0968 50.5989 78.0965 50.5986 78.0962L48.1063 75.616C47.7149 75.2265 47.7133 74.5933 48.1029 74.2018C48.4925 73.8104 49.1256 73.8088 49.5171 74.1984L52.0113 76.6805L52.0133 76.6825C52.9639 77.6338 54.5196 77.6348 55.4858 76.6786C56.4416 75.7327 56.4444 74.1945 55.4838 73.2386L47.31 65.1043C46.9185 64.7148 46.917 64.0816 47.3066 63.6901Z" fill="#696586"/>
<path fill-rule="evenodd" clip-rule="evenodd" d="M52.1899 58.8305C52.5794 58.439 53.2126 58.4375 53.6041 58.8271L61.7779 66.9613C63.5219 68.6969 63.5248 71.5098 61.7759 73.2405C60.0376 74.9608 57.2208 74.9767 55.4819 73.2366C55.0915 72.8459 55.0917 72.2128 55.4824 71.8224C55.8731 71.432 56.5062 71.4322 56.8966 71.8229C57.8472 72.7742 59.4029 72.7752 60.3691 71.8189C61.3249 70.8731 61.3277 69.3349 60.3671 68.3789L52.1933 60.2447C51.8018 59.8551 51.8003 59.222 52.1899 58.8305Z" fill="#696586"/>
<path fill-rule="evenodd" clip-rule="evenodd" d="M57.0807 53.9634C57.4703 53.572 58.1035 53.5704 58.4949 53.96L66.6688 62.0942C68.4124 63.8295 68.4156 66.6416 66.6678 68.3724C64.9264 70.1044 62.1089 70.1069 60.3728 68.3695C59.9824 67.9789 59.9826 67.3457 60.3733 66.9553C60.7639 66.5649 61.3971 66.5651 61.7875 66.9558C62.7406 67.9096 64.2948 67.9124 65.258 66.9538L65.26 66.9519C66.2157 66.0061 66.2186 64.4678 65.258 63.5119L57.0842 55.3776C56.6927 54.9881 56.6912 54.3549 57.0807 53.9634Z" fill="#696586"/>
<path fill-rule="evenodd" clip-rule="evenodd" d="M53.1139 40.2892C53.5035 39.8978 54.1367 39.8962 54.5281 40.2858L71.552 57.2271C73.296 58.9627 73.2988 61.7757 71.55 63.5064C69.8117 65.2267 66.9949 65.2426 65.256 63.5024C64.8656 63.1118 64.8658 62.4786 65.2565 62.0882C65.6471 61.6978 66.2803 61.6981 66.6707 62.0887C67.6213 63.04 69.177 63.041 70.1432 62.0848C71.0989 61.139 71.1018 59.6007 70.1412 58.6448L53.1174 41.7035C52.7259 41.3139 52.7244 40.6807 53.1139 40.2892Z" fill="#696586"/>
<path fill-rule="evenodd" clip-rule="evenodd" d="M44.0468 31.2646C44.4368 30.8735 45.0699 30.8726 45.461 31.2626L49.0446 34.8363C49.4356 35.2263 49.4365 35.8594 49.0465 36.2505C48.6566 36.6416 48.0234 36.6424 47.6323 36.2525L44.0488 32.6788C43.6577 32.2888 43.6568 31.6556 44.0468 31.2646Z" fill="#696586"/>
<path fill-rule="evenodd" clip-rule="evenodd" d="M42.8732 21.0093C43.3033 20.6629 43.9328 20.7307 44.2793 21.1608L46.5531 23.9838C48.4752 25.9406 48.4616 29.0951 46.5123 31.0349L24.3197 53.1199C22.3594 55.0707 19.1671 55.0707 17.2068 53.1199C17.1808 53.0941 17.1563 53.0669 17.1334 53.0384L14.827 50.175C14.4805 49.7449 14.5483 49.1153 14.9785 48.7689C15.4086 48.4225 16.0381 48.4903 16.3845 48.9204L18.654 51.738C19.8371 52.8765 21.741 52.8646 22.9089 51.7023L45.1015 29.6173C46.2789 28.4456 46.2789 26.532 45.1015 25.3604C45.0756 25.3346 45.0511 25.3073 45.0281 25.2788L42.7217 22.4154C42.3753 21.9853 42.4431 21.3558 42.8732 21.0093Z" fill="#696586"/>
<path fill-rule="evenodd" clip-rule="evenodd" d="M57.8706 20.8913C58.2626 21.2804 58.265 21.9136 57.8759 22.3055L54.844 25.3602C53.6666 26.5319 53.6666 28.4455 54.8439 29.6171L77.0365 51.7022C78.2071 52.8671 80.117 52.8764 81.2994 51.7302L84.2973 48.1842C84.6538 47.7624 85.2848 47.7096 85.7066 48.0662C86.1283 48.4227 86.1812 49.0537 85.8246 49.4754L82.797 53.0566C82.7785 53.0785 82.759 53.0996 82.7387 53.1198C80.7784 55.0706 77.5861 55.0706 75.6258 53.1198L53.4332 31.0348C51.471 29.0821 51.4702 25.8985 53.4309 23.9449L56.4564 20.8966C56.8455 20.5046 57.4787 20.5023 57.8706 20.8913Z" fill="#FD64B1"/>
<path fill-rule="evenodd" clip-rule="evenodd" d="M33.8773 55.6468C32.7851 54.5598 31.4289 54.6202 30.818 55.2281L27.3922 58.6373C26.7858 59.2408 26.7215 60.5819 27.8129 61.6681C28.9052 62.755 30.2614 62.6946 30.8722 62.0867L34.298 58.6775C34.9044 58.0741 34.9688 56.733 33.8773 55.6468ZM29.4073 53.8105C31.0352 52.1904 33.6758 52.6246 35.2881 54.2291C36.9012 55.8344 37.3412 58.4707 35.7088 60.0952L32.283 63.5044C30.655 65.1245 28.0145 64.6902 26.4022 63.0857C24.7891 61.4804 24.3491 58.8441 25.9815 57.2197L29.4073 53.8105L30.1127 54.5193L29.4073 53.8105Z" fill="#FD64B1"/>
<path fill-rule="evenodd" clip-rule="evenodd" d="M56.8382 32.5363C57.2278 32.9278 57.2262 33.5609 56.8348 33.9505L55.4074 35.371C55.0172 35.7593 54.3867 35.7593 53.9966 35.371C53.5006 34.8775 52.8991 34.6388 52.2816 34.6571C51.6633 34.6755 50.9339 34.9557 50.2085 35.6776L44.852 41.0082C43.3995 42.4536 43.5228 44.047 44.3937 44.9137C45.2686 45.7843 46.8782 45.9043 48.332 44.4576L53.6886 39.127C54.08 38.7374 54.7132 38.739 55.1028 39.1304C55.4923 39.5219 55.4908 40.1551 55.0993 40.5446L49.7428 45.8752C47.6956 47.9125 44.8126 48.1521 42.9829 46.3313C41.1493 44.5065 41.3927 41.6291 43.4412 39.5905L48.7978 34.2599L49.5032 34.9687L48.7978 34.2599C49.8229 33.2397 51.0167 32.6938 52.2222 32.658C53.0895 32.6322 53.9135 32.8726 54.6265 33.3265L55.424 32.5329C55.8155 32.1433 56.4486 32.1448 56.8382 32.5363Z" fill="#FD64B1"/>
<path fill-rule="evenodd" clip-rule="evenodd" d="M38.7682 60.5138C37.6759 59.4268 36.3197 59.4873 35.7089 60.0952L32.2831 63.5044C31.6767 64.1078 31.6123 65.4489 32.7038 66.5351C33.7961 67.6221 35.1523 67.5617 35.7631 66.9538L39.1889 63.5446C39.7953 62.9411 39.8597 61.6 38.7682 60.5138ZM34.2981 58.6775C35.9261 57.0574 38.5667 57.4917 40.179 59.0962C41.7921 60.7015 42.2321 63.3378 40.5997 64.9622L37.1739 68.3714C35.5459 69.9915 32.9053 69.5573 31.293 67.9528C29.6799 66.3475 29.2399 63.7112 30.8723 62.0867L31.5777 62.7955L30.8723 62.0867L34.2981 58.6775Z" fill="#FD64B1"/>
<path fill-rule="evenodd" clip-rule="evenodd" d="M43.6591 65.3735C42.5668 64.2865 41.2106 64.3469 40.5998 64.9548L37.174 68.364C36.5676 68.9674 36.5032 70.3086 37.5947 71.3948C38.687 72.4817 40.0432 72.4213 40.654 71.8134L44.0798 68.4042C44.6862 67.8008 44.7506 66.4597 43.6591 65.3735ZM39.189 63.5371C40.817 61.9171 43.4575 62.3513 45.0698 63.9558C46.6829 65.5611 47.123 68.1974 45.4906 69.8219L42.0648 73.2311C40.4368 74.8512 37.7962 74.4169 36.1839 72.8124C34.5708 71.2071 34.1308 68.5708 35.7632 66.9463L39.189 63.5371Z" fill="#FD64B1"/>
<path fill-rule="evenodd" clip-rule="evenodd" d="M48.5424 70.2406C47.4501 69.1537 46.0939 69.2141 45.4831 69.822L42.0573 73.2312C41.4509 73.8346 41.3865 75.1757 42.478 76.2619C43.5703 77.3489 44.9265 77.2885 45.5373 76.6806L48.9631 73.2714C49.5695 72.6679 49.6339 71.3268 48.5424 70.2406ZM44.0723 68.4043C45.7003 66.7842 48.3408 67.2185 49.9531 68.823C51.5662 70.4283 52.0063 73.0646 50.3739 74.689L46.9481 78.0982C45.3201 79.7183 42.6795 79.2841 41.0672 77.6796C39.4541 76.0743 39.0141 73.438 40.6465 71.8135L44.0723 68.4043Z" fill="#FD64B1"/>
<defs>
<linearGradient id="paint0_linear_22408_7157" x1="13.3551" y1="13.4119" x2="84.2296" y2="84.3116" gradientUnits="userSpaceOnUse">
<stop stop-color="#F9F8FF"/>
<stop offset="0.494792" stop-color="#EFEDFF"/>
<stop offset="1" stop-color="#D8D4F3"/>
</linearGradient>
<linearGradient id="paint1_linear_22408_7157" x1="77" y1="-6.22069e-06" x2="-3.41665" y2="61.5936" gradientUnits="userSpaceOnUse">
<stop stop-color="#FF409C"/>
<stop offset="1" stop-color="#6F3DFF"/>
</linearGradient>
</defs>
</svg>
