<svg width="100" height="100" viewBox="0 0 100 100" fill="none" xmlns="http://www.w3.org/2000/svg">
<path d="M50 8.33325C58.1182 8.33325 66.1394 8.62823 73.4734 9.80078C77.6373 10.5357 81.4677 12.5527 84.4297 15.5702C87.4619 18.6024 89.6128 22.4188 90.1991 26.5265C91.2746 33.8605 91.6667 41.7845 91.6667 49.9999C91.6667 58.2152 91.3754 66.1393 90.1991 73.4734C89.4649 77.6375 87.4478 81.4682 84.4297 84.4297C81.3975 87.4619 77.5811 89.6128 73.4734 90.199C66.1394 91.2782 58.2153 91.6666 50 91.6666C41.7846 91.6666 33.8606 91.3753 26.5265 90.199C22.3626 89.4641 18.5322 87.4471 15.5702 84.4297C12.538 81.3975 10.3871 77.5848 9.80081 73.4734C8.62452 66.1393 8.33325 58.1181 8.33325 49.9999C8.33325 41.8816 8.62452 33.8605 9.80081 26.5265C10.5357 22.3626 12.5528 18.5321 15.5702 15.5702C18.6024 12.538 22.4188 10.3871 26.5265 9.80078C33.7635 8.62823 41.7846 8.33325 50 8.33325Z" fill="url(#paint0_linear_22408_7162)"/>
<path fill-rule="evenodd" clip-rule="evenodd" d="M70.1725 1.16944C61.7026 1.01586 52.6001 1.96951 43.3853 3.26945C34.0665 4.58942 25.0488 6.20541 17.0641 8.68894L17.0588 8.69061L17.0534 8.69217C12.6254 9.97556 8.74984 12.9469 5.84401 16.7955L5.84139 16.799L5.84137 16.799C2.96514 20.5492 1.33185 25.1039 1.1695 29.8272C1.0159 38.2971 1.96624 47.4097 3.26941 56.6142C4.57281 65.8203 6.19216 74.8423 8.68934 82.9368L8.6908 82.9416L8.69218 82.9463C9.97557 87.3743 12.9469 91.2499 16.7955 94.1558L16.799 94.1584C20.5492 97.0346 25.1039 98.6679 29.8272 98.8303C38.2973 98.9839 47.298 98.0499 56.6143 96.7303C65.9259 95.4114 74.8253 93.6996 82.9441 91.3083L82.9465 91.3076C87.3745 90.0242 91.25 87.0528 94.1559 83.2042L94.1584 83.2009C97.0333 79.45 98.6664 74.8956 98.8304 70.1726C98.984 61.7027 98.0435 52.7022 96.7271 43.3853C95.4115 34.0739 93.6997 25.1744 91.3084 17.0557L91.3077 17.0533C90.0243 12.6253 87.0529 8.74979 83.2043 5.84397L83.201 5.84144C79.45 2.9665 74.8956 1.33332 70.1725 1.16944ZM43.2242 2.12755C52.459 0.824772 61.6348 -0.139187 70.1982 0.0165108L70.2029 0.0165962L70.2076 0.0167581C75.1716 0.187961 79.9584 1.90374 83.9009 4.92487C87.9063 7.94953 91.0494 12.0205 92.4151 16.7315C94.8274 24.922 96.5488 33.8804 97.869 43.224C99.1883 52.5612 100.139 61.6347 99.9833 70.1981L99.9832 70.2028L99.9831 70.2075C99.8118 75.1715 98.0961 79.9584 95.0749 83.9008C92.0502 87.9063 87.9791 91.0494 83.268 92.415C75.0775 94.8274 66.1194 96.5487 56.776 97.8721C47.4383 99.1948 38.3648 100.139 29.8017 99.9832L29.7971 99.9831L29.7925 99.983C24.828 99.8133 20.0406 98.0973 16.0988 95.0747C12.0946 92.0509 8.95213 87.9813 7.58592 83.2721C5.06253 75.0911 3.43349 65.9996 2.12759 56.7759C0.821445 47.5504 -0.139138 38.3648 0.0165584 29.8016L0.0166422 29.797L0.0167995 29.7924C0.18644 24.828 1.90241 20.0406 4.925 16.0988C7.94868 12.0948 12.0179 8.95245 16.727 7.58611C24.8002 5.07557 33.8891 3.44982 43.2238 2.12759L43.2242 2.12755Z" fill="url(#paint1_linear_22408_7162)"/>
<path d="M56.6708 57.0928C56.3256 57.0928 55.9803 56.9201 55.7841 56.6062C55.4702 56.1119 55.6036 55.4606 56.098 55.1388C59.4487 52.973 61.0181 48.7748 59.9117 44.9376C58.7895 41.0455 55.1877 38.3304 51.1465 38.3304C51.1308 38.3304 51.1229 38.3304 51.0994 38.3304C50.5187 38.3304 50.04 37.8596 50.04 37.2789C50.04 36.6903 50.5109 36.2195 51.0915 36.2117C51.1072 36.2117 51.1229 36.2117 51.1386 36.2117C56.1215 36.2117 60.5551 39.5467 61.9441 44.3491C63.3095 49.0809 61.3791 54.2443 57.2437 56.9123C57.0632 57.03 56.867 57.0849 56.6708 57.0849V57.0928Z" fill="#FD64B1"/>
<path d="M65.5851 68.7379C61.7871 68.7379 56.1608 61.6755 51.994 47.229C50.2284 41.1083 49.2632 35.1367 49.271 30.4206C49.2789 25.2101 50.4952 22.1105 52.7708 21.4592C55.0465 20.7922 57.7224 22.7854 60.5081 27.1797C63.027 31.166 65.389 36.7375 67.1545 42.8582C68.9201 48.9789 69.8853 54.9505 69.8775 59.6666C69.8696 64.8771 68.6533 67.9767 66.3777 68.628C66.1266 68.6986 65.8598 68.7379 65.593 68.7379H65.5851ZM53.6262 23.4524C53.5242 23.4524 53.4378 23.4681 53.3594 23.4916C52.457 23.7505 51.3976 25.7202 51.3898 30.4284C51.3819 34.9483 52.3157 40.7081 54.0264 46.6483C57.8793 60.0041 63.4743 67.2548 65.7892 66.6035C66.6916 66.3445 67.7509 64.3749 67.7588 59.6666C67.7666 55.1467 66.8328 49.387 65.1222 43.4467C63.4115 37.5143 61.1358 32.1391 58.7189 28.3097C56.4354 24.6922 54.6228 23.4524 53.634 23.4524H53.6262Z" fill="#696586"/>
<path d="M65.4282 68.8556C65.334 68.8556 65.232 68.8399 65.1378 68.8163L36.7628 60.6632L25.9024 63.7942C23.5718 64.4612 21.4531 60.2002 20.3467 56.3473C19.7581 54.2914 19.4286 52.2825 19.4364 50.6896C19.4364 48.618 19.9936 47.4095 21.0922 47.0956L31.9525 43.9646L51.6173 21.9536C52.0097 21.5141 52.6767 21.4827 53.1161 21.8672C53.5555 22.2596 53.5869 22.9266 53.2024 23.366L33.3179 45.5968C33.1845 45.7459 33.0119 45.8558 32.8235 45.9107L21.7748 49.0966C21.4531 49.6302 21.304 52.055 22.3712 55.7666C23.4384 59.4705 24.8587 61.4479 25.4159 61.7304L36.4646 58.5445C36.6529 58.4896 36.8569 58.4896 37.0531 58.5445L65.7264 66.7839C66.2913 66.9487 66.6131 67.5294 66.4483 68.0944C66.3149 68.5574 65.8911 68.8634 65.4282 68.8634V68.8556Z" fill="#696586"/>
<path d="M19.3108 61.3224C19.0989 61.3224 18.8478 61.2753 18.5732 61.1262C17.3804 60.467 16.635 58.1678 16.4388 57.4773C16.1406 56.4572 15.3245 53.0672 17.1686 52.5415L19.4364 51.8902C20.0014 51.7254 20.582 52.055 20.7468 52.6121C20.9116 53.1771 20.582 53.7578 20.0249 53.9226L18.1259 54.4719C18.0867 54.8642 18.1259 55.7117 18.4712 56.8966C18.8164 58.0815 19.2245 58.8192 19.4678 59.133L21.3667 58.5837C21.9239 58.419 22.5124 58.7485 22.6772 59.3057C22.842 59.8707 22.5124 60.4513 21.9553 60.6161L19.6875 61.2674C19.5855 61.2988 19.4521 61.3224 19.303 61.3224H19.3108Z" fill="#696586"/>
<path d="M30.1476 78.9469C29.1981 78.9469 28.3114 78.5781 27.6444 77.9111C26.9695 77.2441 26.6007 76.3495 26.6007 75.4L26.5771 62.672C26.5771 62.0835 27.048 61.6127 27.6365 61.6127C28.2172 61.6127 28.6959 62.0835 28.6959 62.672L28.7194 75.4C28.7194 75.7845 28.8685 76.1455 29.1431 76.4123C29.4099 76.6791 29.7709 76.8282 30.1554 76.8282H31.9916C32.7842 76.8282 33.4277 76.1769 33.4277 75.3843L33.3963 60.3728C33.3963 59.7843 33.8671 59.3135 34.4556 59.3135C35.0363 59.3135 35.515 59.7843 35.515 60.3728L35.5464 75.3843C35.5464 76.3338 35.1775 77.2284 34.5105 77.9032C33.8435 78.5781 32.949 78.9469 31.9995 78.9469H30.1633H30.1476Z" fill="#696586"/>
<path d="M70.5131 42.9445C70.0501 42.9445 69.6264 42.6463 69.493 42.1755C69.3282 41.6105 69.6578 41.0298 70.2149 40.865L80.4789 37.9067C81.036 37.7419 81.6246 38.0714 81.7893 38.6286C81.9541 39.1857 81.6246 39.7743 81.0674 39.9391L70.8034 42.8974C70.7093 42.9288 70.6072 42.9366 70.5052 42.9366L70.5131 42.9445Z" fill="#FD64B1"/>
<path d="M67.3586 33.5123C67.0682 33.5123 66.7857 33.3946 66.5739 33.167C66.1815 32.7354 66.205 32.0684 66.6366 31.6682L73.9344 24.9904C74.366 24.598 75.033 24.6215 75.4332 25.0531C75.8256 25.4847 75.802 26.1517 75.3704 26.5519L68.0726 33.2298C67.8686 33.4181 67.6175 33.5044 67.3586 33.5044V33.5123Z" fill="#FD64B1"/>
<path d="M82.6054 54.3699C82.5427 54.3699 82.4799 54.3699 82.4171 54.3542L72.6789 52.5886C72.106 52.4866 71.7215 51.9294 71.8235 51.3566C71.9255 50.7838 72.4827 50.3993 73.0555 50.5013L82.7938 52.2669C83.3666 52.3689 83.7511 52.926 83.6491 53.4989C83.5549 54.0089 83.1076 54.3699 82.6054 54.3699V54.3699Z" fill="#FD64B1"/>
<path d="M36.6529 60.6161C33.828 60.6161 31.8034 53.8911 31.5758 53.1142C31.3483 52.3217 29.4179 45.3456 31.9996 43.9959C32.5175 43.7213 33.1531 43.9253 33.4278 44.4432C33.6867 44.9454 33.5141 45.5575 33.0354 45.84C32.698 46.303 32.5175 48.7513 33.6082 52.5257C34.699 56.3002 36.1507 58.2776 36.6843 58.4973C37.2179 58.4738 37.7123 58.9132 37.7593 59.4782C37.8064 60.0589 37.367 60.569 36.7863 60.6161C36.7392 60.6161 36.6921 60.6161 36.6451 60.6161H36.6529Z" fill="#696586"/>
<defs>
<linearGradient id="paint0_linear_22408_7162" x1="13.3551" y1="13.4119" x2="84.2296" y2="84.3116" gradientUnits="userSpaceOnUse">
<stop stop-color="#F9F8FF"/>
<stop offset="0.494792" stop-color="#EFEDFF"/>
<stop offset="1" stop-color="#D8D4F3"/>
</linearGradient>
<linearGradient id="paint1_linear_22408_7162" x1="77" y1="-6.22069e-06" x2="-3.41665" y2="61.5936" gradientUnits="userSpaceOnUse">
<stop stop-color="#FF409C"/>
<stop offset="1" stop-color="#6F3DFF"/>
</linearGradient>
</defs>
</svg>
