<svg width="100" height="100" viewBox="0 0 100 100" fill="none" xmlns="http://www.w3.org/2000/svg">
<path d="M50 8.33325C58.1182 8.33325 66.1394 8.62823 73.4734 9.80078C77.6373 10.5357 81.4678 12.5527 84.4297 15.5702C87.4619 18.6024 89.6128 22.4188 90.1991 26.5265C91.2746 33.8605 91.6667 41.7845 91.6667 49.9999C91.6667 58.2152 91.3754 66.1393 90.1991 73.4734C89.4649 77.6375 87.4478 81.4682 84.4297 84.4297C81.3975 87.4619 77.5811 89.6128 73.4734 90.199C66.1394 91.2782 58.2153 91.6666 50 91.6666C41.7846 91.6666 33.8606 91.3753 26.5265 90.199C22.3626 89.4641 18.5322 87.4471 15.5702 84.4297C12.538 81.3975 10.3871 77.5848 9.80081 73.4734C8.62452 66.1393 8.33325 58.1181 8.33325 49.9999C8.33325 41.8816 8.62452 33.8605 9.80081 26.5265C10.5357 22.3626 12.5528 18.5321 15.5702 15.5702C18.6024 12.538 22.4188 10.3871 26.5265 9.80078C33.7635 8.62823 41.7846 8.33325 50 8.33325Z" fill="url(#paint0_linear_22408_7167)"/>
<path fill-rule="evenodd" clip-rule="evenodd" d="M70.1725 1.16944C61.7026 1.01586 52.6001 1.96951 43.3853 3.26945C34.0665 4.58942 25.0488 6.20541 17.0641 8.68894L17.0588 8.69061L17.0534 8.69217C12.6254 9.97556 8.74984 12.9469 5.84401 16.7955L5.84139 16.799L5.84137 16.799C2.96514 20.5492 1.33185 25.1039 1.16949 29.8272C1.0159 38.2971 1.96624 47.4097 3.26941 56.6142C4.57281 65.8203 6.19216 74.8423 8.68934 82.9368L8.6908 82.9416L8.69218 82.9463C9.97557 87.3743 12.9469 91.2499 16.7955 94.1558L16.799 94.1584C20.5492 97.0346 25.1039 98.6679 29.8272 98.8303C38.2973 98.9839 47.298 98.0499 56.6143 96.7303C65.9259 95.4114 74.8253 93.6996 82.9441 91.3083L82.9465 91.3075C87.3745 90.0242 91.25 87.0528 94.1559 83.2042L94.1584 83.2009C97.0333 79.45 98.6664 74.8956 98.8304 70.1726C98.984 61.7027 98.0435 52.7022 96.7271 43.3853C95.4115 34.0739 93.6997 25.1744 91.3084 17.0557L91.3077 17.0533C90.0243 12.6253 87.0529 8.74979 83.2043 5.84397L83.201 5.84144C79.45 2.9665 74.8956 1.33332 70.1725 1.16944ZM43.2242 2.12755C52.459 0.824772 61.6348 -0.139187 70.1982 0.0165108L70.2029 0.0165962L70.2076 0.0167581C75.1716 0.187961 79.9584 1.90374 83.9009 4.92487C87.9063 7.94953 91.0494 12.0205 92.4151 16.7315C94.8274 24.922 96.5488 33.8804 97.869 43.224C99.1883 52.5612 100.139 61.6347 99.9833 70.1981L99.9832 70.2028L99.9831 70.2075C99.8119 75.1715 98.0961 79.9584 95.0749 83.9008C92.0502 87.9063 87.9791 91.0494 83.268 92.415C75.0775 94.8274 66.1194 96.5487 56.776 97.8721C47.4383 99.1948 38.3648 100.139 29.8017 99.9832L29.7971 99.9831L29.7925 99.983C24.828 99.8133 20.0406 98.0973 16.0988 95.0747C12.0946 92.0509 8.95213 87.9813 7.58592 83.2721C5.06253 75.0911 3.43349 65.9996 2.12759 56.7759C0.821445 47.5504 -0.139138 38.3648 0.0165584 29.8016L0.0166422 29.797L0.0167995 29.7924C0.18644 24.828 1.90241 20.0406 4.925 16.0988C7.94868 12.0948 12.0179 8.95245 16.727 7.58611C24.8002 5.07557 33.8891 3.44982 43.2238 2.12759L43.2242 2.12755Z" fill="url(#paint1_linear_22408_7167)"/>
<path fill-rule="evenodd" clip-rule="evenodd" d="M58.3438 36.9148C58.3438 36.3625 58.7915 35.9148 59.3438 35.9148H75.3345C79.4664 35.9148 82.8428 39.2912 82.8428 43.4231V62.9707C82.8428 67.1026 79.4664 70.479 75.3345 70.479H73.1258V79.4534C73.1258 79.8656 72.8728 80.2356 72.4886 80.3852C72.1045 80.5348 71.6679 80.4334 71.3891 80.1297L62.5293 70.479H46.0698C41.938 70.479 38.5615 67.1026 38.5615 62.9707V53.4807C38.5615 52.9284 39.0092 52.4807 39.5615 52.4807C40.1138 52.4807 40.5615 52.9284 40.5615 53.4807V62.9707C40.5615 65.998 43.0425 68.479 46.0698 68.479H62.9687C63.2488 68.479 63.516 68.5965 63.7054 68.8028L71.1258 76.8855V69.479C71.1258 68.9268 71.5735 68.479 72.1258 68.479H75.3345C78.3618 68.479 80.8428 65.998 80.8428 62.9707V43.4231C80.8428 40.3958 78.3618 37.9148 75.3345 37.9148H59.3438C58.7915 37.9148 58.3438 37.4671 58.3438 36.9148Z" fill="#696586"/>
<path fill-rule="evenodd" clip-rule="evenodd" d="M34.0218 30.0216C33.1614 30.0216 32.4639 30.7191 32.4639 31.5795C32.4639 32.4399 33.1614 33.1374 34.0218 33.1374C34.8822 33.1374 35.5797 32.4399 35.5797 31.5795C35.5797 30.7191 34.8822 30.0216 34.0218 30.0216ZM30.4639 31.5795C30.4639 29.6145 32.0568 28.0216 34.0218 28.0216C35.9868 28.0216 37.5797 29.6145 37.5797 31.5795C37.5797 33.5445 35.9868 35.1374 34.0218 35.1374C32.0568 35.1374 30.4639 33.5445 30.4639 31.5795Z" fill="#FD64B1"/>
<path fill-rule="evenodd" clip-rule="evenodd" d="M43.8221 30.0216C42.9617 30.0216 42.2642 30.7191 42.2642 31.5795C42.2642 32.4399 42.9617 33.1374 43.8221 33.1374C44.6825 33.1374 45.38 32.4399 45.38 31.5795C45.38 30.7191 44.6825 30.0216 43.8221 30.0216ZM40.2642 31.5795C40.2642 29.6145 41.8571 28.0216 43.8221 28.0216C45.7871 28.0216 47.38 29.6145 47.38 31.5795C47.38 33.5445 45.7871 35.1374 43.8221 35.1374C41.8571 35.1374 40.2642 33.5445 40.2642 31.5795Z" fill="#FD64B1"/>
<path fill-rule="evenodd" clip-rule="evenodd" d="M26.9098 35.8794C27.4231 35.6756 28.0044 35.9265 28.2082 36.4398C29.9014 40.7041 34.0602 43.7172 38.9181 43.7172C43.776 43.7172 47.9348 40.7041 49.628 36.4398C49.8318 35.9265 50.4131 35.6756 50.9264 35.8794C51.4397 36.0833 51.6906 36.6646 51.4868 37.1779C49.502 42.1766 44.6248 45.7172 38.9181 45.7172C33.2114 45.7172 28.3342 42.1766 26.3494 37.1779C26.1456 36.6646 26.3965 36.0833 26.9098 35.8794Z" fill="#FD64B1"/>
<path fill-rule="evenodd" clip-rule="evenodd" d="M65.6021 46.9432C64.7417 46.9432 64.0442 47.6407 64.0442 48.5012C64.0442 49.3616 64.7417 50.0591 65.6021 50.0591C66.4625 50.0591 67.16 49.3616 67.16 48.5012C67.16 47.6407 66.4625 46.9432 65.6021 46.9432ZM62.0442 48.5012C62.0442 46.5362 63.6371 44.9432 65.6021 44.9432C67.5671 44.9432 69.16 46.5362 69.16 48.5012C69.16 50.4661 67.5671 52.0591 65.6021 52.0591C63.6371 52.0591 62.0442 50.4661 62.0442 48.5012Z" fill="#696586"/>
<path fill-rule="evenodd" clip-rule="evenodd" d="M48.6974 52.7935C49.2107 52.5897 49.792 52.8406 49.9958 53.3539C51.689 57.6182 55.8478 60.6313 60.7057 60.6313C65.5636 60.6313 69.7224 57.6182 71.4156 53.3539C71.6194 52.8406 72.2007 52.5897 72.714 52.7935C73.2273 52.9973 73.4782 53.5787 73.2744 54.092C71.2896 59.0906 66.4124 62.6313 60.7057 62.6313C54.999 62.6313 50.1218 59.0906 48.137 54.092C47.9332 53.5787 48.1841 52.9973 48.6974 52.7935Z" fill="#696586"/>
<path fill-rule="evenodd" clip-rule="evenodd" d="M17.6667 26.6831C17.6667 22.8237 20.8237 19.6667 24.6831 19.6667H53.1608C56.9756 19.6667 60.1042 22.7512 60.1759 26.5497C60.1817 26.5934 60.1847 26.6379 60.1847 26.6831V47.2222C60.1847 51.0816 57.0278 54.2386 53.1683 54.2386H37.9952L29.8316 63.1251C29.5527 63.4286 29.1162 63.53 28.7322 63.3804C28.3481 63.2307 28.0952 62.8608 28.0952 62.4486V54.2386H24.6831C20.8237 54.2386 17.6667 51.0816 17.6667 47.2222V26.6831ZM58.1847 26.8068C58.1798 26.7663 58.1772 26.725 58.1772 26.6831C58.1772 23.9283 55.9156 21.6667 53.1608 21.6667H24.6831C21.9283 21.6667 19.6667 23.9283 19.6667 26.6831V47.2222C19.6667 49.977 21.9283 52.2386 24.6831 52.2386H29.0952C29.6475 52.2386 30.0952 52.6863 30.0952 53.2386V59.8819L36.8195 52.562C37.0089 52.3559 37.276 52.2386 37.556 52.2386H53.1683C55.9232 52.2386 58.1847 49.977 58.1847 47.2222V26.8068Z" fill="#FD64B1"/>
<defs>
<linearGradient id="paint0_linear_22408_7167" x1="13.3551" y1="13.4119" x2="84.2296" y2="84.3116" gradientUnits="userSpaceOnUse">
<stop stop-color="#F9F8FF"/>
<stop offset="0.494792" stop-color="#EFEDFF"/>
<stop offset="1" stop-color="#D8D4F3"/>
</linearGradient>
<linearGradient id="paint1_linear_22408_7167" x1="77" y1="-6.22069e-06" x2="-3.41665" y2="61.5936" gradientUnits="userSpaceOnUse">
<stop stop-color="#FF409C"/>
<stop offset="1" stop-color="#6F3DFF"/>
</linearGradient>
</defs>
</svg>
