<svg width="40" height="40" fill="none" xmlns="http://www.w3.org/2000/svg"><path d="m29.493 18.203.172-.86c.084-.637.13-1.283.13-1.943C29.795 7.447 23.348 1 15.4 1 7.452 1 1 7.447 1 15.4s6.447 14.4 14.4 14.4c.632 0 1.255-.042 1.864-.121l.427-.047" stroke="#313043" stroke-linecap="round" stroke-linejoin="round"/><path d="M11.737 18.979c.762.948 2.208 1.52 3.695 1.52 2.004 0 3.626-1.134 3.626-2.538 0-3.17-7.32-1.901-7.32-5.132 0-1.399 1.621-2.538 3.625-2.538 1.487 0 2.933.572 3.695 1.52M15.405 8.488v1.283M15.405 20.787v1.283" stroke="#313043" stroke-linecap="round" stroke-linejoin="round"/><path d="M18.426 25.886a9.322 9.322 0 0 0 0 3.588l-1.367.567a1.127 1.127 0 0 0-.609 1.47l.581 1.408c.237.571.897.846 1.47.609l1.366-.567a9.4 9.4 0 0 0 2.537 2.533l-.567 1.37a1.127 1.127 0 0 0 .61 1.47l1.408.58a1.127 1.127 0 0 0 1.468-.608l.568-1.371a9.318 9.318 0 0 0 3.588 0l.567 1.366c.237.572.897.846 1.469.61l1.408-.582c.572-.237.846-.897.61-1.469l-.568-1.366a9.398 9.398 0 0 0 2.533-2.538l1.371.567a1.127 1.127 0 0 0 1.47-.609l.58-1.408a1.127 1.127 0 0 0-.609-1.47l-1.37-.566a9.319 9.319 0 0 0 0-3.589l1.366-.567c.571-.237.846-.897.609-1.468l-.581-1.409a1.127 1.127 0 0 0-1.47-.609l-1.366.567a9.399 9.399 0 0 0-2.538-2.533l.567-1.371a1.127 1.127 0 0 0-.608-1.469l-1.409-.58a1.127 1.127 0 0 0-1.469.608l-.567 1.371a9.322 9.322 0 0 0-3.588 0" stroke="#8272F2" stroke-linecap="round" stroke-linejoin="round"/><path d="M27.685 32.77a5.09 5.09 0 1 0 0-10.18 5.09 5.09 0 0 0 0 10.18z" stroke="#8272F2" stroke-linecap="round" stroke-linejoin="round"/><path d="M15.4 25.923c5.812 0 10.523-4.711 10.523-10.523 0-5.812-4.711-10.524-10.523-10.524-5.812 0-10.524 4.712-10.524 10.524 0 5.812 4.712 10.523 10.524 10.523z" stroke="#313043" stroke-linecap="round" stroke-linejoin="round"/></svg>