<svg width="40" height="40" fill="none" xmlns="http://www.w3.org/2000/svg"><path d="M17.296 28.215c-.225.012-.455.017-.68.017C9.098 28.232 3 22.134 3 14.616S9.098 1 16.616 1c6.76 0 12.369 4.924 13.434 11.381" stroke="#313043" stroke-linecap="round" stroke-linejoin="round"/><path d="M16.616 28.232c-3.647 0-6.6-6.098-6.6-13.616S12.969 1 16.616 1c3.265 0 5.976 4.894 6.505 11.32M3.169 15.11h15.513M5.529 7.474h22.174M5.841 22.749h8.986M16.616 1.247v14.486" stroke="#313043" stroke-linecap="round" stroke-linejoin="round"/><path d="m23.584 32.013-3.841 6.85-2.11-3.217-3.845-.121 3.837-6.851M27.954 32.013l3.841 6.85 2.11-3.217 3.845-.121-3.837-6.851" stroke="#8272F2" stroke-linecap="round" stroke-linejoin="round"/><path d="M24.94 11.13a1.088 1.088 0 0 1 1.663 0l.749.844c.459.515 1.364.758 2.018.541l1.07-.355c.654-.216 1.303.156 1.437.832l.226 1.104c.138.676.8 1.343 1.476 1.477l1.105.225c.675.139 1.048.784.831 1.438l-.355 1.07c-.216.654.026 1.563.542 2.018l.844.75c.515.458.515 1.203 0 1.662l-.844.75c-.516.458-.758 1.363-.542 2.017l.355 1.07c.217.654-.156 1.304-.831 1.438l-1.105.225c-.675.139-1.342.801-1.476 1.477l-.226 1.104a1.086 1.086 0 0 1-1.437.832l-1.07-.355c-.654-.217-1.564.026-2.018.541l-.75.844a1.088 1.088 0 0 1-1.662 0l-.75-.844c-.459-.515-1.364-.758-2.018-.541l-1.07.355c-.653.216-1.303-.156-1.437-.832l-.226-1.104c-.138-.676-.8-1.343-1.476-1.477l-1.105-.225a1.086 1.086 0 0 1-.831-1.438l.355-1.07c.216-.654-.026-1.563-.541-2.018l-.845-.749a1.088 1.088 0 0 1 0-1.663l.845-.75c.515-.458.758-1.363.541-2.017l-.355-1.07c-.217-.654.156-1.304.831-1.438l1.105-.225c.675-.139 1.342-.801 1.476-1.477l.226-1.104a1.086 1.086 0 0 1 1.438-.832l1.07.355c.653.217 1.563-.026 2.017-.54l.75-.845v0z" stroke="#8272F2" stroke-linecap="round" stroke-linejoin="round"/><path d="M25.767 27.613a5.708 5.708 0 1 0 0-11.416 5.708 5.708 0 0 0 0 11.416z" stroke="#8272F2" stroke-linecap="round" stroke-linejoin="round"/></svg>