<svg width="40" height="40" fill="none" xmlns="http://www.w3.org/2000/svg"><path d="M21.475 31.183h13.52V1.743H13.517v9.278" stroke="#313043" stroke-width="1.2" stroke-linecap="round" stroke-linejoin="round"/><path d="M21.475 35.174H39V5.734h-3.905M19.256 7.73h9.929M7.612 15.544h7.863M5.607 21.364H9.56M5.607 25.316H9.56M5.607 29.274H9.56M5.607 33.17H9.56M13.446 21.364h3.953M13.446 25.316h3.953M13.446 29.274h3.953M13.446 33.17h3.953" stroke="#313043" stroke-width="1.2" stroke-linecap="round" stroke-linejoin="round"/><path d="M21.437 26.646a7.735 7.735 0 1 0 .052-14.038" stroke="#8272F2" stroke-width="1.2" stroke-linecap="round" stroke-linejoin="round"/><path d="M23.123 23.402c.537.252 1.131.39 1.763.39a4.15 4.15 0 0 0 4.152-4.153 4.15 4.15 0 0 0-4.152-4.152c-.618 0-1.202.133-1.73.376" stroke="#8272F2" stroke-width="1.2" stroke-linecap="round" stroke-linejoin="round"/><path d="M26.111 39.05H6.534a4.785 4.785 0 0 1-4.784-4.783V11.605h19.578v22.66a4.785 4.785 0 0 0 4.784 4.785zm0 0a4.786 4.786 0 0 0 4.69-3.82" stroke="#313043" stroke-width="1.2" stroke-linecap="round" stroke-linejoin="round"/></svg>