<svg width="40" height="40" fill="none" xmlns="http://www.w3.org/2000/svg"><path d="M6.73 10.27a2.828 2.828 0 1 0 0-5.656 2.828 2.828 0 0 0 0 5.656zM3.01 23.982l1.139 11.715H9.307l1.186-12.084M6.73 25.125v10.572" stroke="#8272F2" stroke-width="1.2" stroke-linecap="round" stroke-linejoin="round"/><path d="M17.908 11.426H8.891L6.73 16.901l-2.161-5.475c-.763.095-1.317.147-2.027.412-.71.264-1.642.654-1.533 2.17.108 1.515.537 7.128.654 8.077.169 1.351 1.364 2.507 5.067 2.507 3.703 0 4.192-1.156 4.361-2.507.083-.65.308-3.855.477-6.068l2.763-.697M5.353 10.122l-.771 1.295M8.116 10.122l.77 1.295M33.266 10.27a2.828 2.828 0 1 0 0-5.656 2.828 2.828 0 0 0 0 5.656zM36.99 23.982l-1.143 11.715H30.69l-1.187-12.084M33.266 25.125v10.572" stroke="#8272F2" stroke-width="1.2" stroke-linecap="round" stroke-linejoin="round"/><path d="M22.092 11.426h9.017l2.161 5.475 2.161-5.475c.763.095 1.317.147 2.027.412.71.264 1.642.654 1.534 2.17-.109 1.515-.537 7.128-.654 8.077-.17 1.351-1.365 2.507-5.068 2.507-3.703 0-4.192-1.156-4.361-2.507-.082-.65-.307-3.855-.476-6.068l-2.764-.697M34.643 10.122l.771 1.295M31.88 10.122l-.767 1.295" stroke="#8272F2" stroke-width="1.2" stroke-linecap="round" stroke-linejoin="round"/><path d="M19.965 10.27a2.828 2.828 0 1 0 0-5.657 2.828 2.828 0 0 0 0 5.657zM23.686 23.982l-1.144 11.715h-5.157l-1.14-11.715M19.965 25.125v10.572" stroke="#313043" stroke-width="1.2" stroke-linecap="round" stroke-linejoin="round"/><path d="M19.965 24.588c-3.703 0-4.898-1.156-5.067-2.508-.117-.948-.546-6.557-.654-8.077-.108-1.516.823-1.906 1.533-2.17s1.265-.316 2.027-.411l2.162 5.474 2.16-5.474c.763.095 1.317.147 2.027.411.71.264 1.642.654 1.534 2.17-.109 1.516-.537 7.129-.654 8.077-.17 1.352-1.364 2.508-5.068 2.508v0zM21.343 10.122l.766 1.295M18.58 10.122l-.771 1.295" stroke="#313043" stroke-width="1.2" stroke-linecap="round" stroke-linejoin="round"/></svg>