<svg width="50" height="50" fill="none" xmlns="http://www.w3.org/2000/svg"><path d="M38.602 25.266c.052 7.166 6.293 9.573 6.398 9.573-.052.156-.996 3.452-3.304 6.748-1.94 2.929-3.986 5.754-7.238 5.806-3.146.052-4.248-1.83-7.867-1.83-3.67 0-4.772 1.778-7.814 1.934-3.094.105-5.455-3.138-7.5-6.015-4.09-5.911-7.237-16.635-3.042-23.958 2.046-3.557 5.77-5.911 9.755-5.964 3.095-.052 5.98 2.093 7.867 2.093 1.888 0 5.454-2.563 9.126-2.197 1.52.052 5.926.628 8.706 4.708-.157.157-5.14 3.086-5.087 9.102zm-5.98-17.681C34.25 5.545 35.35 2.772 35.036 0c-2.36.105-5.297 1.622-7.028 3.61-1.52 1.778-2.832 4.603-2.517 7.323 2.727.209 5.402-1.308 7.133-3.348z" fill="#494665"/></svg>