<svg width="39" height="49" fill="none" xmlns="http://www.w3.org/2000/svg"><path d="M6.75 15.25v22c0 1.25 1 2.375 2.375 2.375h2.125v6.625c0 1.25 1 2.25 2.25 2.25s2.25-1 2.25-2.25V39.5h7v6.625c0 1.25 1 2.25 2.25 2.25s2.25-1 2.25-2.25V39.5h2.125c1.25 0 2.375-1 2.375-2.375V15.25h-25zm.25-2h24.875c-.625-3.5-2.5-6.5-5.25-8.5l2-2.75c.25-.25.125-.625-.125-.875s-.75-.125-1 .125l-2 2.875c-1.75-1-4-1.625-6.25-1.625s-4.375.625-6.25 1.625L11.125 1.25c-.25-.25-.625-.25-.875-.125-.25.25-.375.625-.25.875l2.125 2.75c-2.75 1.875-4.75 5-5.125 8.5zm17.625-6.5c.875 0 1.5.625 1.5 1.5s-.75 1.5-1.5 1.5-1.5-.625-1.5-1.5.625-1.5 1.5-1.5zm-10.5 0c.875 0 1.5.625 1.5 1.5s-.625 1.5-1.5 1.5-1.5-.625-1.5-1.5.625-1.5 1.5-1.5zM2.5 13.375c-1.25 0-2.25 1-2.25 2.375v16C.25 33 1.25 34 2.5 34s2.25-1 2.25-2.25V15.625c.125-1.25-.875-2.25-2.25-2.25zm33.625 0c-1.25 0-2.25 1-2.25 2.25v16c0 1.25 1 2.25 2.25 2.25s2.25-1 2.25-2.25v-16c.125-1.25-.875-2.25-2.25-2.25z" fill="#494665"/></svg>