<svg width="50" height="50" fill="none" xmlns="http://www.w3.org/2000/svg"><path d="M25 13.92a3.801 3.801 0 0 0-3.817 3.817v.16h7.634v-.16c0-2.12-1.75-3.817-3.817-3.817zm18.29-7.316C38.996 2.31 31.52 1.25 25 1.25S10.951 2.31 6.657 6.604C2.363 10.898 1.25 18.426 1.25 25c0 6.574 1.113 14.102 5.407 18.396C10.951 47.69 18.427 48.75 25 48.75c6.52 0 14.049-1.06 18.343-5.354C47.637 39.102 48.75 31.574 48.75 25c-.053-6.574-1.113-14.102-5.46-18.396zm-6.998 25.924c-.318 3.075-3.022 5.248-6.256 5.248H19.964c-3.234 0-5.938-2.12-6.256-5.248-.318-3.075-1.59-14.632-1.59-14.632h5.99v-.159A6.878 6.878 0 0 1 25 10.845a6.878 6.878 0 0 1 6.892 6.892v.16h5.99s-1.272 11.556-1.59 14.63z" fill="#494665"/></svg>