<svg width="50" height="50" fill="none" xmlns="http://www.w3.org/2000/svg"><path d="M48.563 12.182c-.2-5.697-5.048-10.595-10.745-10.745-8.545-.25-17.09-.25-25.636 0-5.697.2-10.595 5.048-10.745 10.745-.25 8.545-.25 17.09 0 25.636.2 5.697 5.048 10.595 10.745 10.745 8.545.25 17.09.25 25.636 0 5.697-.2 10.595-5.048 10.745-10.745.25-8.545.25-17.09 0-25.636zM21.877 39.467c-.95.7-3.798 2.699-5.098 2.999-1.849.45-3.598-1-4.647-2.849l9.645-.35s.1 0 .1.1c.05 0 .05.05 0 .1zm.2-1s0 .05 0 0c0 0-.05.1-.1.1-1.5 0-7.097.05-7.247 0 0 0-.9-.05-1.849-.399 0 0-1.999-.65-3.048-2.898 0 0-1-1.85-.25-4.198 0 0 8.196 4.397 12.444 7.246l.05.05v.1zm.75-1.148c0 .05 0 .05 0 0-.05.1-.15.05-.15.05-1.35-.65-7.147-3.599-9.546-5.947 0 0-1.499-1.15-1.599-3.149V27.823c.1-2.448 2.549-4.747 2.549-4.747s5.047 6.097 8.745 14.193v.05zm1.348-.85s0 .1-.1.1c0 0-.05 0-.1-.05-.899-1.3-5.097-7.546-5.946-11.294 0 0-.2-.6-.2-1.4v-.5c0-.399.05-.799.2-1.148 0 0 .6-2.3 3.148-2.999 0 0 1.15-.25 1.55-.3-.05.05 2.798 3.698 1.448 17.591zm.8-22.138c-3.948 0-7.596-1.7-10.145-4.598-.25.1-.5.15-.8.15-1.398 0-2.498-1.1-2.498-2.499s1.15-2.498 2.499-2.498c1.35 0 2.498 1.099 2.498 2.498 0 .55-.15 1-.45 1.45a11.915 11.915 0 0 0 8.896 3.947c3.448 0 6.646-1.449 8.895-3.947-.3-.4-.45-.9-.45-1.45 0-1.399 1.1-2.498 2.5-2.498 1.398 0 2.498 1.099 2.498 2.498 0 1.4-1.1 2.499-2.499 2.499-.3 0-.55-.05-.8-.15-2.498 2.899-6.146 4.598-10.144 4.598zm1.05 22.238s-.05.1-.15.05c0 0-.05 0-.05-.1-1.4-13.893 1.449-17.59 1.449-17.59.8.1 1.499.299 1.499.299 2.549.6 3.198 2.998 3.198 2.998.45 1.25 0 3.049 0 3.049-.85 3.748-4.997 9.945-5.947 11.294zm1.249.85h-.1c-.05-.05-.05-.15-.05-.15 3.698-8.046 8.745-14.143 8.745-14.143s2.699 2.499 2.549 5.197c-.1 1.95-1.6 3.149-1.6 3.149-2.348 2.298-8.095 5.247-9.544 5.947.05-.05.05-.05 0 0zm6.646 5.147h-.2c-.35 0-.55-.1-.55-.1-1.349-.4-4.147-2.349-5.097-2.999-.05-.05-.05-.15-.05-.15 0-.05.1-.05.1-.05l9.645.35c-1.349 2.449-2.948 2.949-3.848 2.949zm6.797-9.695c0 1.35-.5 2.349-.5 2.349-1.05 2.298-3.098 2.948-3.098 2.948-.9.35-1.65.4-1.65.4-.15.05-5.896 0-7.396 0-.05 0-.1-.05-.1-.05-.05-.1.05-.15.05-.15 4.248-2.849 12.444-7.246 12.444-7.246.2.6.3 1.2.3 1.699v.05h-.05zM14.03 6.135c-.7 0-1.25.55-1.25 1.25 0 .649.5 1.149 1.15 1.199-.2-.25-.35-.5-.5-.8-.2-.35-.1-.85.25-1.05.35-.2.85-.1 1.05.25.15.25.3.5.45.7.05-.1.05-.2.05-.35.05-.65-.55-1.2-1.2-1.2zm21.189.85c.2-.35.7-.5 1.05-.25.349.2.499.7.249 1.05-.15.249-.35.549-.5.799.65-.05 1.15-.6 1.15-1.2 0-.7-.55-1.25-1.25-1.25s-1.25.55-1.25 1.25c0 .1 0 .2.05.35.2-.3.4-.5.5-.75z" fill="#494665"/></svg>