<svg width="50" height="50" fill="none" xmlns="http://www.w3.org/2000/svg"><path fill-rule="evenodd" clip-rule="evenodd" d="M10.843 47.683a94.688 94.688 0 0 0 28.355 0c3.832-.657 7.828-4.653 8.485-8.485a94.688 94.688 0 0 0 0-28.355c-.657-3.886-4.599-7.828-8.485-8.485a91.22 91.22 0 0 0-28.355 0c-3.886.657-7.828 4.599-8.485 8.485a91.22 91.22 0 0 0 0 28.355c.657 3.832 4.599 7.828 8.485 8.485zM11.39 14.4c0-.985.603-1.259 1.369-.657l11.112 8.977-9.415 7.664-1.697-1.368c-.766-.603-1.369-1.862-1.369-2.847V14.401zm4.215 16.97 21.622-17.627c.767-.602 1.369-.273 1.424.657v11.824c0 .93-.603 2.244-1.369 2.846L26.39 37.884c-.766.602-1.97.602-2.737 0l-8.047-6.514z" fill="#494665"/></svg>