<svg width="50" height="50" fill="none" xmlns="http://www.w3.org/2000/svg"><path d="M5 42.75c-.625 0-1.25-.5-1.25-1.125V7.375c0-.625.5-1.125 1.25-1.125h18.875C22.125 10.625 20 17.375 20 26.125c0 1.5 1 2.625 2.5 2.625h3.875V29c0 .625 0 2.25.25 4.25-.75.125-1.5.125-2.125.125-4.375 0-8.5-1.5-11.75-4.25-.375-.25-.75-.375-1-.375-.375 0-.75.125-1 .375s-.375.625-.375 1 .25.625.5.875c3.625 3.25 8.5 5 13.625 5 .75 0 1.625 0 2.375-.125.25 2.25.5 4.625.875 6.75H5v.125zm9.625-28.125c-.75 0-1.375.625-1.375 1.375v2.875c0 .75.625 1.375 1.375 1.375S16 19.625 16 18.875V16c0-.75-.625-1.375-1.375-1.375zm15.25 28c-.5-2.375-.75-4.875-1-7 3.375-.75 6.5-2.25 9.125-4.5.25-.25.5-.5.5-.875s-.125-.75-.375-1c-.25-.375-.625-.5-1-.5s-.625.125-1 .375c-2.125 1.875-4.75 3.125-7.5 3.75-.125-2-.25-3.375-.25-3.875 0-2.5-2-2.5-2.875-2.5h-3.25c-.125 0-.25 0-.25-.375 0-8.75 2.25-15.5 4.125-19.875h17.75c.625 0 1.25.5 1.25 1.125V41.5c0 .625-.625 1.125-1.25 1.125h-14zm4.5-28c-.75 0-1.375.625-1.375 1.375v2.875c0 .75.625 1.375 1.375 1.375s1.375-.625 1.375-1.375V16c0-.75-.625-1.375-1.375-1.375z" fill="#494665"/></svg>