<svg width="50" height="50" fill="none" xmlns="http://www.w3.org/2000/svg"><path fill-rule="evenodd" clip-rule="evenodd" d="M18.622 41.63c.668.96.972 2.04.85 3.18-.06.3-.12.66-.242.9-.79 1.56-2.432 1.14-3.71.6-2.249-.96-4.742-.9-7.113-1.44-.425-.06-.79-.12-1.094-.42-.547-.48-.365-1.02-.182-1.62.243-.72.182-1.5-.183-2.16-.121-.24-.243-.48-.304-.72-.06-.54.304-1.02.79-1.26.487-.24 1.034-.36 1.52-.6 1.217-.54 1.642-1.86 1.277-3.06 0 1.26-.425 1.68-1.459 2.28-.973.54-2.493.12-3.161.66-.852.72.304 2.52.182 3.9-.06 1.02-1.155 2.16-.669 3.24.487 1.02 2.797 1.14 5.168 1.62 3.405.72 5.411 1.92 6.931 1.98 2.31.06 2.615-2.22 6.262-2.28 1.034-.06 2.068-.06 3.101-.12h3.527c2.37.06 1.58 1.26 3.1 2.04 1.338.66 3.648.42 4.256-.12.79-.72 2.797-2.4 4.378-3.18 1.945-.96 6.566-2.64 3.222-4.68-.79-.48-2.614-.96-2.797-4.44-.608.54-.73 2.1-.547 2.82.182.9.79 1.74 1.642 2.16l.73.36c.242.18.364.42.303.72-.06.36-.486.54-.85.66-.913.3-1.825.6-2.676.96-.669.24-1.398.54-1.946 1.02-.304.24-.608.54-.912.84-.608.54-1.398 1.02-2.25 1.08-.85.06-1.762-.48-2.005-1.26-.122-.48 0-1.02.121-1.5.183-.9.183-1.86.122-2.76 0-.9 0-1.86-.243-2.76-.061-.3-.183-.66-.183-.96 0-.3.122-.66.426-.84.364-.18.85-.06 1.155.18.304.24.547.6.912.84.547.42 1.58.24 2.189 0 .73-.24 1.337-.78 1.763-1.38.608-.78 1.337-1.44 1.763-2.4.425-.96.304-2.04.121-3.06-.486-2.76-2.127-7.2-4.255-9.42-1.764-1.86-2.919-3.48-3.587-5.76-.608-1.92-.912-3.84-.79-5.64.181-2.34-1.156-5.58-3.284-7.14-1.338-.96-3.405-1.44-5.29-1.44-1.033 0-2.067.18-2.796.54-3.162 1.68-3.587 4.08-3.587 6.78.06 2.58.121 5.46.425 8.22-.547 1.98-2.128 3.24-3.404 4.8a23.03 23.03 0 0 0-3.284 5.34 21.67 21.67 0 0 0-1.398 4.38c-.06.24-.365 3.36.304 2.88 1.885-1.44 4.134 2.1 7.66 7.44zm1.216-3.72c1.52-.18 1.702-1.8.972-2.46-2.37-2.34-8.147-4.86-5.897-9.06-.06 1.26.79 2.58 2.006 3-.608-.24-.425-2.04-.425-2.52.121-2.64 1.276-5.34 2.553-7.62.608-1.02 1.277-1.98 1.277-3.24 0-1.2 1.034 1.44 2.067 2.04 1.155.6 2.493-1.2 4.317-2.1.547-.24 1.155-.54 1.155-.78-.243-1.08-2.432 1.32-4.378 1.38-.912.06-1.215-.18-1.58-.54-1.034-1.02.121-.18 1.641-.48.67-.12.912-.24 1.642-.54.79-.36 1.52-.84 2.31-1.14.243-.12.487-.42.365-.6-.547-.06-1.094.24-1.58.48-1.034.48-2.19.84-3.345.9-.547.06-1.094.06-1.58-.18-.426-.24-.67-.6-1.034-.84-.304-.18-.243-.66.182-1.08.244-.24.79-.36 1.095-.84.06-.06.425-.48.73-.72.12-.06.12-1.92-.852-1.98-.79-.06-1.034.6-.973 1.2.061.6.365 1.14.547 1.14.426 0 0 .48-.182.54-.365.12-.851-1.38-.79-2.1.06-.78.425-2.1 1.398-2.04 1.46.06 1.277 2.04 1.277 2.94v.12c0 .06.06.06.122 0 .607-.06 1.215.06 1.823.24-.121-.06 0-1.68 0-1.8.244-1.32 1.642-2.16 2.919-1.44.973.54 1.641 2.58 1.155 3.54-.122.24-.426.42-.669.36-.304-.06-.486-.42-.486-.78 0-.3.06-.66-.061-.96-.122-.48-.669-.78-1.155-.72-.547.12-.79.54-.851 1.08 0 .18-.061 1.08.243 1.14.365.06 1.277.72 1.885.84 2.067.42.547 1.62.79 3.06.182 1.02.912 1.86 1.46 2.7a20.669 20.669 0 0 1 1.58 3.3c.486 1.32.851 2.7 1.094 4.14.183 1.38.304 2.76.244 4.14.547-.06 1.094-.18 1.702-.18.608 0 2.128.36 2.31 1.08-.79 0-1.52-.24-2.31 0s-1.46.84-1.52 1.62c-.547-.12-1.095.06-1.52.48-1.155 1.2 0 3.54-.122 4.98-.06.78-.121 1.62-.304 2.34-.06.42-.243.78-.425 1.14-.122.24-.547.78-.547 1.02-.183-1.44-.304-2.88-.487-4.32-.365.06-.365.36-.608.6-.243.3-.669.48-.973.66-.73.36-1.58.54-2.432.66-.73.06-1.459.12-2.128 0-.182 0-1.52-.6-1.58-.54-.122.18.06.36.121.54.061.18.061.36 0 .48-.06.78-.243 1.5-.486 2.22-.06-1.68-.973-3.06-1.702-4.5z" fill="#494665"/></svg>