<svg width="50" height="50" fill="none" xmlns="http://www.w3.org/2000/svg"><path fill-rule="evenodd" clip-rule="evenodd" d="M48.75 25c0 13.117-10.633 23.75-23.75 23.75S1.25 38.117 1.25 25 11.883 1.25 25 1.25 48.75 11.883 48.75 25zM17.774 39.25h6.276v5.61c-2.134-.398-4.32-2.145-6.129-5.345a19.05 19.05 0 0 1-.147-.265zm-3.212-13.3c.11 4.323.964 8.25 2.299 11.4h7.189v-11.4h-9.488zm0-1.9c.11-4.323.964-8.25 2.299-11.4h7.189v11.4h-9.488zm11.388 1.9v11.4h7.19c1.334-3.15 2.188-7.077 2.298-11.4H25.95zm9.488-1.9H25.95v-11.4h7.19c1.334 3.15 2.188 7.077 2.298 11.4zm1.9 1.9c-.102 4.22-.88 8.13-2.149 11.4h5.48a19.856 19.856 0 0 0 4.259-11.4h-7.59zm7.59-1.9h-7.59c-.102-4.22-.88-8.13-2.149-11.4h5.48a19.856 19.856 0 0 1 4.259 11.4zm-32.267 0H5.072a19.856 19.856 0 0 1 4.26-11.4h5.479c-1.269 3.27-2.047 7.18-2.15 11.4zm-7.589 1.9h7.59c.101 4.22.88 8.13 2.149 11.4H9.33a19.856 19.856 0 0 1-4.259-11.4zm5.966 13.3h4.6c.921 1.893 2.023 3.504 3.258 4.749a19.943 19.943 0 0 1-7.858-4.749zm21.188 0H25.95v5.61c2.134-.398 4.32-2.145 6.129-5.345.05-.087.098-.176.147-.265zm-1.122 4.749c1.235-1.245 2.337-2.856 3.258-4.749h4.6a19.943 19.943 0 0 1-7.858 4.749zm1.122-33.249H25.95V5.14c2.134.398 4.32 2.145 6.129 5.345.05.087.098.176.147.265zm6.736 0h-4.6c-.921-1.893-2.023-3.504-3.258-4.749 2.988.96 5.67 2.604 7.858 4.749zm-14.912 0h-6.276l.147-.265c1.809-3.2 3.995-4.947 6.129-5.346v5.611zm-8.412 0c.921-1.893 2.023-3.504 3.258-4.749a19.943 19.943 0 0 0-7.858 4.749h4.6z" fill="#494665"/></svg>