<svg width="100" height="100" fill="none" xmlns="http://www.w3.org/2000/svg"><path d="M43.346 2.65C52.57 1.355 61.733.409 70.255.57a23.29 23.29 0 0 1 13.372 4.806c3.93 2.961 6.984 6.955 8.306 11.529 2.393 8.163 4.104 17.105 5.416 26.44 1.313 9.336 2.247 18.388 2.082 26.91a23.278 23.278 0 0 1-4.807 13.372c-2.961 3.93-6.955 6.984-11.529 8.306-8.162 2.398-17.105 4.104-26.44 5.416-9.336 1.313-18.388 2.247-26.91 2.082a23.29 23.29 0 0 1-13.372-4.807c-3.93-2.961-6.983-6.95-8.306-11.529-2.508-8.146-4.12-17.215-5.416-26.44C1.354 47.429.404 38.267.569 29.745a23.29 23.29 0 0 1 4.807-13.372c2.961-3.93 6.955-6.983 11.529-8.306 8.037-2.488 17.105-4.104 26.44-5.416z" fill="#fff"/><path d="M50 8.334c8.118 0 16.14.294 23.473 1.467a20.296 20.296 0 0 1 10.957 5.77c3.032 3.032 5.183 6.848 5.77 10.956C91.274 33.86 91.666 41.785 91.666 50s-.292 16.14-1.468 23.474a20.284 20.284 0 0 1-5.77 10.956c-3.032 3.032-6.848 5.183-10.956 5.77C66.14 91.277 58.215 91.666 50 91.666s-16.14-.291-23.474-1.468a20.296 20.296 0 0 1-10.956-5.77c-3.032-3.031-5.183-6.844-5.77-10.955C8.626 66.139 8.334 58.118 8.334 50s.292-16.14 1.468-23.473a20.296 20.296 0 0 1 5.77-10.957c3.031-3.032 6.848-5.183 10.955-5.769C33.764 8.628 41.785 8.334 50 8.334z" fill="url(#a)"/><path fill-rule="evenodd" clip-rule="evenodd" d="M70.172 1.17c-8.47-.154-17.572.8-26.787 2.1-9.319 1.32-18.336 2.935-26.32 5.419l-.006.002-.006.001c-4.428 1.284-8.303 4.255-11.209 8.104l-.003.003A22.688 22.688 0 0 0 1.17 29.827c-.153 8.47.797 17.583 2.1 26.787 1.304 9.206 2.923 18.228 5.42 26.323l.002.005.001.004c1.284 4.428 4.255 8.304 8.104 11.21l.003.002a22.689 22.689 0 0 0 13.028 4.672c8.47.154 17.471-.78 26.787-2.1 9.312-1.319 18.211-3.03 26.33-5.422h.002c4.428-1.284 8.304-4.255 11.21-8.104l.002-.003a22.712 22.712 0 0 0 4.672-13.028c.154-8.47-.787-17.47-2.103-26.788-1.316-9.311-3.027-18.21-5.419-26.33v-.002c-1.284-4.428-4.255-8.303-8.104-11.209l-.003-.003A22.712 22.712 0 0 0 70.173 1.17zm-26.948.958C52.46.825 61.634-.14 70.198.017h.01A23.865 23.865 0 0 1 83.9 4.925c4.005 3.025 7.148 7.096 8.514 11.806 2.412 8.191 4.134 17.15 5.454 26.493 1.32 9.337 2.27 18.41 2.114 26.974V70.207a23.864 23.864 0 0 1-4.908 13.694c-3.025 4.005-7.096 7.148-11.807 8.514-8.19 2.412-17.149 4.134-26.492 5.457-9.338 1.323-18.411 2.267-26.974 2.111h-.01A23.842 23.842 0 0 1 16.1 95.075c-4.004-3.024-7.147-7.094-8.513-11.803C5.063 75.092 3.433 66 2.128 56.776.82 47.55-.14 38.365.017 29.802v-.01A23.842 23.842 0 0 1 4.925 16.1c3.024-4.004 7.093-7.147 11.802-8.513C24.8 5.076 33.889 3.45 43.224 2.128z" fill="url(#b)"/><path d="M24.332 49.626a.81.81 0 0 1-.813-.813V26.426a3.776 3.776 0 0 1 3.77-3.769H69.71a3.776 3.776 0 0 1 3.77 3.77v18.047a.81.81 0 0 1-.814.813.81.81 0 0 1-.813-.813V26.427c0-1.183-.96-2.144-2.143-2.144H27.289c-1.183 0-2.144.961-2.144 2.143v22.387a.81.81 0 0 1-.813.813zM42.21 58.813h-9.83a.81.81 0 0 1-.812-.814.81.81 0 0 1 .813-.813h9.83a.81.81 0 0 1 .812.813.81.81 0 0 1-.813.813z" fill="#696586"/><path d="M77.294 68.812a.81.81 0 0 1-.813-.813v-20.17a2.258 2.258 0 0 0-2.254-2.253H45.52a2.258 2.258 0 0 0-2.254 2.254v20.169a.81.81 0 0 1-.813.813.81.81 0 0 1-.813-.813v-20.17a3.884 3.884 0 0 1 3.88-3.88h28.706a3.884 3.884 0 0 1 3.88 3.88V68a.81.81 0 0 1-.813.813z" fill="#696586"/><path d="M79.503 74.355H40.244a3.167 3.167 0 0 1-3.163-3.163 3.167 3.167 0 0 1 3.163-3.164h39.26a3.167 3.167 0 0 1 3.163 3.163 3.167 3.167 0 0 1-3.164 3.164zm-39.259-4.7a1.536 1.536 0 1 0 0 3.075h39.26a1.536 1.536 0 1 0 0-3.076h-39.26zM29.528 74.355h-9.165c-1.67 0-3.03-1.36-3.03-3.03V51.346c0-1.67 1.36-3.03 3.03-3.03h9.165c1.67 0 3.03 1.36 3.03 3.03v19.977c0 1.67-1.36 3.03-3.03 3.03zm-9.165-24.412c-.776 0-1.404.629-1.404 1.404v19.977c0 .776.628 1.405 1.404 1.405h9.165c.776 0 1.404-.629 1.404-1.404V51.346c0-.776-.628-1.404-1.404-1.404h-9.165z" fill="#696586"/><path d="M24.945 70.504a1.057 1.057 0 1 1 0-2.113 1.057 1.057 0 0 1 0 2.113z" fill="#696586"/><path d="M48.426 54.127c-1.5 0-2.72-1.22-2.72-2.72 0-1.5 1.22-2.72 2.72-2.72 1.5 0 2.72 1.22 2.72 2.72 0 1.5-1.22 2.72-2.72 2.72zm0-3.814c-.599 0-1.094.488-1.094 1.094 0 .606.488 1.094 1.094 1.094.606 0 1.094-.488 1.094-1.094 0-.606-.488-1.094-1.094-1.094zM31.102 32.738c-1.5 0-2.72-1.22-2.72-2.72 0-1.5 1.22-2.72 2.72-2.72 1.5 0 2.72 1.22 2.72 2.72 0 1.5-1.22 2.72-2.72 2.72zm0-3.806c-.599 0-1.094.488-1.094 1.094 0 .605.488 1.093 1.094 1.093.606 0 1.094-.488 1.094-1.093 0-.607-.488-1.094-1.094-1.094zM24.835 58.059c-1.5 0-2.72-1.22-2.72-2.72 0-1.5 1.22-2.72 2.72-2.72 1.5 0 2.72 1.22 2.72 2.72 0 1.5-1.22 2.72-2.72 2.72zm0-3.806c-.599 0-1.094.487-1.094 1.093s.488 1.094 1.094 1.094c.606 0 1.094-.488 1.094-1.094 0-.606-.488-1.093-1.094-1.093z" fill="#FD64B1"/><defs><linearGradient id="a" x1="13.355" y1="13.412" x2="84.23" y2="84.312" gradientUnits="userSpaceOnUse"><stop stop-color="#F9F8FF"/><stop offset=".495" stop-color="#EFEDFF"/><stop offset="1" stop-color="#D8D4F3"/></linearGradient><linearGradient id="b" x1="77" y1="0" x2="-3.417" y2="61.594" gradientUnits="userSpaceOnUse"><stop stop-color="#FF409C"/><stop offset="1" stop-color="#6F3DFF"/></linearGradient></defs></svg>