<svg width="100" height="100" fill="none" xmlns="http://www.w3.org/2000/svg"><path d="M50 8.333c8.118 0 16.14.295 23.473 1.468a20.296 20.296 0 0 1 10.957 5.77c3.032 3.031 5.183 6.848 5.77 10.955 1.075 7.335 1.467 15.259 1.467 23.474s-.292 16.14-1.468 23.473a20.284 20.284 0 0 1-5.77 10.957c-3.032 3.032-6.848 5.183-10.956 5.77C66.14 91.277 58.215 91.666 50 91.666s-16.14-.292-23.474-1.468a20.296 20.296 0 0 1-10.956-5.77c-3.032-3.032-5.183-6.844-5.77-10.956C8.626 66.14 8.334 58.118 8.334 50c0-8.118.292-16.14 1.468-23.474a20.296 20.296 0 0 1 5.77-10.956c3.031-3.032 6.848-5.183 10.955-5.77C33.764 8.629 41.785 8.334 50 8.334z" fill="url(#a)"/><path fill-rule="evenodd" clip-rule="evenodd" d="M70.172 1.17c-8.47-.154-17.572.8-26.787 2.1-9.319 1.32-18.336 2.935-26.32 5.419l-.006.002-.006.001c-4.428 1.284-8.303 4.255-11.209 8.104l-.003.003A22.688 22.688 0 0 0 1.17 29.827c-.153 8.47.797 17.583 2.1 26.787 1.304 9.206 2.923 18.228 5.42 26.323l.002.005.001.004c1.284 4.428 4.255 8.304 8.104 11.21l.003.002a22.689 22.689 0 0 0 13.028 4.672c8.47.154 17.471-.78 26.787-2.1 9.312-1.319 18.211-3.03 26.33-5.422h.002c4.428-1.284 8.304-4.255 11.21-8.104l.002-.003a22.712 22.712 0 0 0 4.672-13.028c.154-8.47-.787-17.47-2.103-26.788-1.316-9.311-3.027-18.21-5.419-26.33v-.002c-1.284-4.428-4.255-8.303-8.104-11.209l-.003-.003A22.712 22.712 0 0 0 70.173 1.17zm-26.948.958C52.46.825 61.634-.14 70.198.017h.01A23.865 23.865 0 0 1 83.9 4.925c4.005 3.025 7.148 7.096 8.514 11.806 2.412 8.191 4.134 17.15 5.454 26.493 1.32 9.337 2.27 18.41 2.114 26.974V70.207a23.864 23.864 0 0 1-4.908 13.694c-3.025 4.005-7.096 7.148-11.807 8.514-8.19 2.412-17.149 4.134-26.492 5.457-9.338 1.323-18.411 2.267-26.974 2.111h-.01A23.842 23.842 0 0 1 16.1 95.075c-4.004-3.024-7.147-7.094-8.513-11.803C5.063 75.092 3.433 66 2.128 56.776.82 47.55-.14 38.365.017 29.802v-.01A23.842 23.842 0 0 1 4.925 16.1c3.024-4.004 7.093-7.147 11.802-8.513C24.8 5.076 33.889 3.45 43.224 2.128z" fill="url(#b)"/><path d="M23.644 49.617a.73.73 0 0 1-.733-.733V26.455a3.7 3.7 0 0 1 3.695-3.695H69.11a3.7 3.7 0 0 1 3.695 3.695v1.83a.73.73 0 0 1-.733.732.73.73 0 0 1-.733-.733v-1.829c0-1.229-1-2.229-2.23-2.229H26.607c-1.23 0-2.229 1-2.229 2.23v22.428a.73.73 0 0 1-.733.733zM41.563 58.814h-9.848a.73.73 0 0 1-.733-.733.73.73 0 0 1 .733-.734h9.848a.73.73 0 0 1 .733.734.73.73 0 0 1-.733.733z" fill="#696586"/><path d="M28.85 74.393h-9.182a2.958 2.958 0 0 1-2.955-2.954V51.424a2.958 2.958 0 0 1 2.955-2.955h9.182a2.958 2.958 0 0 1 2.954 2.955v20.015a2.958 2.958 0 0 1-2.954 2.954zm-9.182-24.458c-.822 0-1.488.667-1.488 1.489v20.015c0 .822.666 1.488 1.488 1.488h9.182c.822 0 1.488-.667 1.488-1.488V51.424c0-.822-.666-1.489-1.488-1.489h-9.182z" fill="#696586"/><path d="M41.623 58.184a.738.738 0 0 1-.348-.089 11.233 11.233 0 0 1-5.961-9.93c0-6.197 5.042-11.24 11.24-11.24 4.532 0 8.597 2.696 10.36 6.864a.734.734 0 0 1-.393.963.732.732 0 0 1-.963-.392 9.75 9.75 0 0 0-9.004-5.968c-5.39 0-9.774 4.383-9.774 9.774a9.771 9.771 0 0 0 5.183 8.634.735.735 0 0 1-.348 1.384h.008z" fill="#FD64B1"/><path d="M76.706 68.84a.73.73 0 0 1-.733-.734V48.974a.73.73 0 0 1 .733-.733.73.73 0 0 1 .733.733v19.133a.73.73 0 0 1-.733.734zM41.8 68.84a.73.73 0 0 1-.733-.734V47.9a3.814 3.814 0 0 1 3.806-3.806h17.113a.73.73 0 0 1 .733.733.73.73 0 0 1-.733.733H44.873a2.345 2.345 0 0 0-2.34 2.34v20.207a.73.73 0 0 1-.733.734z" fill="#696586"/><path d="M78.92 74.393H39.586a3.09 3.09 0 0 1-3.087-3.088 3.09 3.09 0 0 1 3.087-3.088H78.92a3.09 3.09 0 0 1 3.088 3.088 3.09 3.09 0 0 1-3.088 3.088zm-39.334-4.71a1.621 1.621 0 1 0 0 3.244H78.92a1.621 1.621 0 1 0 0-3.243H39.586z" fill="#696586"/><path d="M71.426 50.55c-6.197 0-11.24-5.043-11.24-11.24 0-6.198 5.043-11.24 11.24-11.24 6.198 0 11.24 5.042 11.24 11.24 0 6.197-5.042 11.24-11.24 11.24zm0-21.014c-5.39 0-9.774 4.383-9.774 9.774 0 5.39 4.384 9.774 9.774 9.774 5.39 0 9.775-4.384 9.775-9.774 0-5.39-4.384-9.774-9.775-9.774zM53.966 63.73c-3.902 0-7.086-3.176-7.086-7.086a7.091 7.091 0 0 1 7.086-7.086 7.091 7.091 0 0 1 7.086 7.086 7.091 7.091 0 0 1-7.086 7.086zm0-12.699a5.619 5.619 0 0 0-5.613 5.613 5.619 5.619 0 0 0 5.613 5.613 5.619 5.619 0 0 0 5.613-5.613 5.619 5.619 0 0 0-5.613-5.613z" fill="#FD64B1"/><circle cx="24.333" cy="69" fill="#696586" r="1.667"/><defs><linearGradient id="a" x1="13.355" y1="13.412" x2="84.23" y2="84.312" gradientUnits="userSpaceOnUse"><stop stop-color="#F9F8FF"/><stop offset=".495" stop-color="#EFEDFF"/><stop offset="1" stop-color="#D8D4F3"/></linearGradient><linearGradient id="b" x1="77" y1="0" x2="-3.417" y2="61.594" gradientUnits="userSpaceOnUse"><stop stop-color="#FF409C"/><stop offset="1" stop-color="#6F3DFF"/></linearGradient></defs></svg>