<svg width="100" height="100" fill="none" xmlns="http://www.w3.org/2000/svg"><path d="M50 8.333c8.118 0 16.14.295 23.473 1.468a20.296 20.296 0 0 1 10.957 5.77c3.032 3.031 5.183 6.848 5.77 10.955 1.075 7.335 1.467 15.259 1.467 23.474s-.292 16.14-1.468 23.473a20.284 20.284 0 0 1-5.77 10.957c-3.032 3.032-6.848 5.183-10.956 5.77C66.14 91.277 58.215 91.666 50 91.666s-16.14-.292-23.474-1.468a20.296 20.296 0 0 1-10.956-5.77c-3.032-3.032-5.183-6.844-5.77-10.956C8.626 66.14 8.334 58.118 8.334 50c0-8.118.292-16.14 1.468-23.474a20.296 20.296 0 0 1 5.77-10.956c3.031-3.032 6.848-5.183 10.955-5.77C33.764 8.629 41.785 8.334 50 8.334z" fill="url(#a)"/><path fill-rule="evenodd" clip-rule="evenodd" d="M70.172 1.17c-8.47-.154-17.572.8-26.787 2.1-9.319 1.32-18.336 2.935-26.32 5.419l-.006.002-.006.001c-4.428 1.284-8.303 4.255-11.209 8.104l-.003.003A22.688 22.688 0 0 0 1.17 29.827c-.153 8.47.797 17.583 2.1 26.787 1.304 9.206 2.923 18.228 5.42 26.323l.002.005.001.004c1.284 4.428 4.255 8.304 8.104 11.21l.003.002a22.689 22.689 0 0 0 13.028 4.672c8.47.154 17.471-.78 26.787-2.1 9.312-1.319 18.211-3.03 26.33-5.422h.002c4.428-1.284 8.304-4.255 11.21-8.104l.002-.003a22.712 22.712 0 0 0 4.672-13.028c.154-8.47-.787-17.47-2.103-26.788-1.316-9.311-3.027-18.21-5.419-26.33v-.002c-1.284-4.428-4.255-8.303-8.104-11.209l-.003-.003A22.712 22.712 0 0 0 70.173 1.17zm-26.948.958C52.46.825 61.634-.14 70.198.017h.01A23.865 23.865 0 0 1 83.9 4.925c4.005 3.025 7.148 7.096 8.514 11.806 2.412 8.191 4.134 17.15 5.454 26.493 1.32 9.337 2.27 18.41 2.114 26.974V70.207a23.864 23.864 0 0 1-4.908 13.694c-3.025 4.005-7.096 7.148-11.807 8.514-8.19 2.412-17.149 4.134-26.492 5.457-9.338 1.323-18.411 2.267-26.974 2.111h-.01A23.842 23.842 0 0 1 16.1 95.075c-4.004-3.024-7.147-7.094-8.513-11.803C5.063 75.092 3.433 66 2.128 56.776.82 47.55-.14 38.365.017 29.802v-.01A23.842 23.842 0 0 1 4.925 16.1c3.024-4.004 7.093-7.147 11.802-8.513C24.8 5.076 33.889 3.45 43.224 2.128z" fill="url(#b)"/><path d="M50.165 27.018a5.514 5.514 0 0 1-5.509-5.51 5.51 5.51 0 1 1 5.51 5.51zm0-9.53a4.027 4.027 0 0 0-4.021 4.02 4.032 4.032 0 0 0 4.021 4.022 4.032 4.032 0 0 0 4.021-4.021 4.032 4.032 0 0 0-4.02-4.021zM50.165 50.974c-5.755 0-8.88-1.644-9.276-4.881-.21-1.652-.942-11.287-1.106-13.656-.225-3.177 1.995-4.007 3.064-4.41.688-.262 1.002-.314 1.36-.382.292-.052.621-.12 1.316-.328a.744.744 0 0 1 .927.493.747.747 0 0 1-.493.927c-.77.232-1.166.306-1.48.366-.314.06-.538.097-1.114.314-1.278.478-2.242.994-2.108 2.915.202 2.833.905 12.027 1.099 13.574.299 2.377 2.922 3.58 7.81 3.58 4.89 0 7.513-1.203 7.812-3.58.187-1.51.897-10.726 1.099-13.574.134-1.92-.83-2.437-2.108-2.915-.568-.21-.792-.254-1.114-.314-.314-.06-.703-.127-1.48-.366a.744.744 0 0 1 .434-1.42c.687.209 1.024.269 1.315.328a7.04 7.04 0 0 1 1.36.382c1.07.396 3.29 1.233 3.065 4.41-.187 2.683-.904 12.049-1.106 13.656-.404 3.236-3.528 4.88-9.276 4.88z" fill="#696586"/><path d="M54.508 69.698h-8.7a.746.746 0 0 1-.74-.673l-1.93-19.755a.74.74 0 0 1 .666-.808.73.73 0 0 1 .807.666l1.862 19.082h7.355l1.86-19.082a.74.74 0 1 1 1.473.142l-1.928 19.755a.746.746 0 0 1-.74.673h.015z" fill="#696586"/><path d="M50.165 69.698a.737.737 0 0 1-.74-.74v-17.82c0-.41.329-.74.74-.74s.74.33.74.74v17.82c0 .411-.329.74-.74.74zM50.165 38.005a.746.746 0 0 1-.688-.456l-3.326-7.953c-.486-1.308-.075-2.974.897-3.752a.738.738 0 0 1 1.039.12.738.738 0 0 1-.12 1.039c-.418.336-.71 1.323-.44 2.048l3.31 7.93a.745.745 0 0 1-.68 1.032l.008-.008z" fill="#696586"/><path d="M50.165 38.005a.628.628 0 0 1-.284-.06.739.739 0 0 1-.396-.971l3.326-7.953c.254-.695-.03-1.682-.456-2.018a.738.738 0 1 1 .92-1.159c.971.777 1.382 2.444.911 3.723l-3.334 7.982a.746.746 0 0 1-.687.456zM58.484 77.673a.737.737 0 0 1-.74-.74c0-2.616 1.114-4.178 3.49-4.918.45-.142 1.017-.284 1.615-.441.576-.15 1.189-.306 1.75-.47 1.726-.517 2.055-1.354 2.07-1.391a.753.753 0 0 1 .934-.456.73.73 0 0 1 .479.904c-.045.165-.546 1.615-3.065 2.362a42.26 42.26 0 0 1-1.801.486c-.576.15-1.122.284-1.54.419-1.764.553-2.452 1.532-2.452 3.505 0 .411-.329.74-.74.74zM81.29 77.673a.737.737 0 0 1-.74-.74c0-1.973-.688-2.952-2.453-3.505-.425-.135-.971-.27-1.547-.419-.598-.157-1.226-.314-1.801-.486-2.52-.755-3.012-2.205-3.065-2.362a.73.73 0 0 1 .501-.92.74.74 0 0 1 .92.48c.022.067.373.874 2.07 1.382.553.165 1.166.322 1.742.471.605.157 1.173.299 1.621.441 2.385.748 3.491 2.31 3.491 4.918 0 .411-.329.74-.74.74z" fill="#696586"/><path d="M69.89 70.82a6.074 6.074 0 0 1-6.069-6.07c0-3.349 2.72-6.07 6.07-6.07 3.348 0 6.069 2.721 6.069 6.07 0 3.348-2.72 6.07-6.07 6.07zm0-10.652a4.587 4.587 0 0 0-4.582 4.582 4.587 4.587 0 0 0 4.582 4.582 4.587 4.587 0 0 0 4.582-4.582 4.587 4.587 0 0 0-4.581-4.582zM69.89 76.978a.77.77 0 0 1-.448-.15c-1.151-.866-3.536-2.668-4.455-4.723a.742.742 0 0 1 .374-.98.742.742 0 0 1 .979.374c.658 1.48 2.452 2.96 3.543 3.805 1.091-.845 2.885-2.325 3.543-3.805.164-.373.605-.545.98-.373.373.164.537.605.373.979-.92 2.055-3.304 3.857-4.455 4.724a.77.77 0 0 1-.449.15h.015zM19.033 77.673a.737.737 0 0 1-.74-.74c0-2.616 1.114-4.178 3.49-4.918.45-.142 1.017-.284 1.615-.441.576-.15 1.189-.306 1.75-.47 1.726-.517 2.055-1.354 2.07-1.391.142-.374.56-.583.934-.456a.73.73 0 0 1 .478.904c-.052.165-.545 1.615-3.064 2.362a42.22 42.22 0 0 1-1.802.486c-.575.15-1.12.284-1.54.419-1.763.553-2.451 1.532-2.451 3.505 0 .411-.329.74-.74.74zM41.838 77.673a.737.737 0 0 1-.74-.74c0-1.973-.688-2.952-2.452-3.505-.426-.135-.964-.27-1.54-.419-.597-.157-1.225-.314-1.8-.486-2.52-.755-3.013-2.205-3.065-2.362a.73.73 0 0 1 .5-.92.74.74 0 0 1 .92.48c.022.067.374.874 2.07 1.382.56.165 1.166.322 1.75.471.605.157 1.173.299 1.614.441 2.384.748 3.49 2.31 3.49 4.918 0 .411-.328.74-.74.74h-.007z" fill="#696586"/><path d="M30.432 70.82a6.074 6.074 0 0 1-6.07-6.07c0-3.349 2.721-6.07 6.07-6.07 3.348 0 6.07 2.721 6.07 6.07 0 3.348-2.722 6.07-6.07 6.07zm0-10.652a4.587 4.587 0 0 0-4.582 4.582 4.587 4.587 0 0 0 4.582 4.582 4.587 4.587 0 0 0 4.582-4.582 4.587 4.587 0 0 0-4.582-4.582zM30.432 76.978a.77.77 0 0 1-.449-.15c-1.15-.866-3.535-2.668-4.454-4.723a.742.742 0 0 1 .373-.98.742.742 0 0 1 .98.374c.657 1.48 2.451 2.96 3.542 3.805 1.092-.845 2.886-2.325 3.543-3.805a.742.742 0 0 1 1.353.605c-.92 2.056-3.303 3.858-4.455 4.725a.77.77 0 0 1-.448.15h.015z" fill="#696586"/><path d="M33.295 40.741a.746.746 0 0 1-.576-1.21l2.586-3.2-3.199-2.586a.746.746 0 0 1-.112-1.047.746.746 0 0 1 1.047-.112l3.774 3.057a.746.746 0 0 1 .112 1.047l-3.057 3.775a.748.748 0 0 1-.575.276z" fill="#FD64B1"/><path d="M22.845 58.86a.738.738 0 0 1-.658-.396 15.625 15.625 0 0 1-1.824-7.333c0-8.618 7.012-15.63 15.63-15.63.411 0 .74.33.74.74 0 .411-.329.74-.74.74-7.796 0-14.142 6.346-14.142 14.142 0 2.318.568 4.612 1.652 6.638a.742.742 0 0 1-.658 1.091v.008zM67.028 40.741a.737.737 0 0 1-.576-.276l-3.057-3.775a.746.746 0 0 1 .112-1.047l3.775-3.057a.746.746 0 0 1 1.046.112.74.74 0 0 1-.112 1.047l-3.199 2.586 2.586 3.2a.747.747 0 0 1-.112 1.046.719.719 0 0 1-.463.164z" fill="#FD64B1"/><path d="M77.477 58.86c-.12 0-.239-.03-.351-.09a.742.742 0 0 1-.306-1.002 14.13 14.13 0 0 0 1.651-6.637c0-7.796-6.346-14.142-14.142-14.142a.737.737 0 0 1-.74-.74c0-.411.33-.74.74-.74 8.619 0 15.63 7.011 15.63 15.63 0 2.556-.628 5.09-1.824 7.332a.752.752 0 0 1-.658.396v-.007z" fill="#FD64B1"/><defs><linearGradient id="a" x1="13.355" y1="13.412" x2="84.23" y2="84.312" gradientUnits="userSpaceOnUse"><stop stop-color="#F9F8FF"/><stop offset=".495" stop-color="#EFEDFF"/><stop offset="1" stop-color="#D8D4F3"/></linearGradient><linearGradient id="b" x1="77" y1="0" x2="-3.417" y2="61.594" gradientUnits="userSpaceOnUse"><stop stop-color="#FF409C"/><stop offset="1" stop-color="#6F3DFF"/></linearGradient></defs></svg>