<svg width="214" height="15" fill="none" xmlns="http://www.w3.org/2000/svg"><path d="M213.707 8.207a1 1 0 0 0 0-1.414L207.343.429a1 1 0 1 0-1.414 1.414l5.657 5.657-5.657 5.657a1 1 0 1 0 1.414 1.414l6.364-6.364zM0 8.5h.986v-2H0v2zm4.93 0h1.973v-2H4.93v2zm5.917 0h1.972v-2h-1.972v2zm5.917 0h1.972v-2h-1.972v2zm5.917 0h1.972v-2H22.68v2zm5.916 0h1.972v-2h-1.972v2zm5.917 0h1.972v-2h-1.972v2zm5.917 0h1.972v-2H40.43v2zm5.916 0h1.972v-2h-1.972v2zm5.917 0h1.972v-2h-1.972v2zm5.916 0h1.973v-2H58.18v2zm5.917 0h1.972v-2h-1.972v2zm5.917 0h1.972v-2h-1.972v2zm5.916 0h1.973v-2H75.93v2zm5.917 0h1.972v-2h-1.972v2zm5.917 0h1.972v-2h-1.972v2zm5.916 0h1.973v-2H93.68v2zm5.917 0h1.972v-2h-1.972v2zm5.917 0h1.972v-2h-1.972v2zm5.917 0h1.972v-2h-1.972v2zm5.916 0h1.972v-2h-1.972v2zm5.917 0h1.972v-2h-1.972v2zm5.917 0h1.972v-2h-1.972v2zm5.916 0h1.972v-2h-1.972v2zm5.917 0h1.972v-2h-1.972v2zm5.917 0h1.972v-2h-1.972v2zm5.916 0h1.972v-2h-1.972v2zm5.917 0h1.972v-2h-1.972v2zm5.917 0h1.972v-2h-1.972v2zm5.916 0h1.972v-2h-1.972v2zm5.917 0h1.972v-2h-1.972v2zm5.917 0h1.972v-2h-1.972v2zm5.916 0h1.972v-2h-1.972v2zm5.917 0h1.972v-2h-1.972v2zm5.917 0h1.972v-2h-1.972v2zm5.916 0h1.972v-2h-1.972v2zm5.917 0H213v-2h-.986v2z" fill="#696586"/></svg>