<svg width="748" height="267" viewBox="0 0 748 267" fill="none" xmlns="http://www.w3.org/2000/svg">
<g clip-path="url(#clip0_22148_3663)">
<path opacity="0.5" d="M546.64 -7.09992C504.03 -7.86992 461.39 -8.20992 418.79 -10.6899C397.64 -11.9099 376.51 -13.6399 355.48 -16.1699C334.88 -18.6499 314.48 -22.0499 293.98 -25.1699C300.07 -12.7399 306.3 -1.16992 312.61 9.21008C345.61 63.6201 398.41 136.11 454.02 190.32C509.63 244.53 568.02 280.46 612.16 261.74C683.3 231.57 753.98 87.0101 734.87 -1.48992C672.18 -0.849922 609.29 -5.97992 546.64 -7.09992Z" stroke="#D9ABD6" stroke-width="0.43" stroke-linecap="round" stroke-linejoin="round"/>
<path opacity="0.51" d="M546.64 -7.09994C504.03 -7.86994 461.39 -8.20994 418.79 -10.6899C397.64 -11.9099 376.51 -13.6399 355.48 -16.1699C333.62 -18.7999 311.98 -22.4599 290.24 -25.6899C296.64 -13.2099 303.16 -1.78994 309.79 8.50006C333.43 45.2401 366.63 90.5001 403.28 133.25C419.28 151.83 435.89 169.77 452.64 186.09C508.64 240.71 564.82 277.79 609.04 259.3C679.7 229.79 749.43 86.0101 729.62 -1.40994C668.64 -1.12994 607.53 -6.00994 546.64 -7.09994Z" stroke="#D8ABD7" stroke-width="0.42" stroke-linecap="round" stroke-linejoin="round"/>
<path opacity="0.52" d="M546.64 -7.09992C504.03 -7.86992 461.39 -8.20992 418.79 -10.6899C397.64 -11.9099 376.51 -13.6399 355.48 -16.1699C332.48 -18.9399 309.66 -22.8599 286.76 -26.1699H286.45C292.641 -14.4718 299.468 -3.12149 306.9 7.83008C331.16 43.3101 364.72 87.1001 401.59 129.28C417.77 147.79 434.49 165.61 451.2 181.89C507.66 236.89 561.58 275.15 605.85 256.89C676.05 227.89 744.84 84.9501 724.31 -1.39992C665.1 -1.40992 605.79 -6.03992 546.64 -7.09992Z" stroke="#D6ABD8" stroke-width="0.42" stroke-linecap="round" stroke-linejoin="round"/>
<path opacity="0.53" d="M546.64 -7.10012C504.03 -7.87012 461.39 -8.21012 418.79 -10.6901C397.64 -11.9101 376.51 -13.6401 355.48 -16.1701C332.48 -18.9401 309.66 -22.8601 286.76 -26.1701C285.41 -26.3301 284.05 -26.4701 282.7 -26.6201C289.147 -14.9865 296.29 -3.75277 304.09 7.01988C328.96 41.2499 362.95 83.5099 399.97 125.18C416.34 143.6 433.16 161.3 449.83 177.55C506.73 232.99 558.39 272.37 602.79 254.34C672.4 226.02 740.25 83.8699 718.99 -1.41012C661.54 -1.68012 603.99 -6.07012 546.64 -7.10012Z" stroke="#D5ABD9" stroke-width="0.42" stroke-linecap="round" stroke-linejoin="round"/>
<path opacity="0.54" d="M546.64 -7.10003C504.03 -7.87003 461.39 -8.21003 418.79 -10.69C397.64 -11.91 376.51 -13.64 355.48 -16.17C332.48 -18.94 309.66 -22.86 286.76 -26.17C284.15 -26.48 281.54 -26.75 278.94 -27.03C285.633 -15.4502 293.065 -4.31375 301.19 6.30997C326.79 39.19 361.15 80 398.31 121.14C414.87 139.47 431.78 157.07 448.42 173.28C505.75 229.12 555.17 269.67 599.58 251.87C668.79 224.14 735.66 82.79 713.65 -1.45003C657.98 -1.95003 602.21 -6.10003 546.64 -7.10003Z" stroke="#D4AADA" stroke-width="0.41" stroke-linecap="round" stroke-linejoin="round"/>
<path opacity="0.55" d="M546.64 -7.09995C504.03 -7.86995 461.39 -8.20995 418.79 -10.69C397.64 -11.91 376.51 -13.64 355.48 -16.17C332.48 -18.94 309.66 -22.86 286.76 -26.17C282.873 -26.63 278.986 -27.0566 275.1 -27.45C282.061 -15.9173 289.827 -4.8899 298.34 5.55005C324.53 37.19 359.34 76.5001 396.61 117.12C413.36 135.36 430.37 152.85 446.97 169.03C504.73 225.28 551.91 267.03 596.39 249.41C665.08 222.28 731.03 81.6 708.24 -1.48995C654.39 -2.20995 600.43 -6.13995 546.64 -7.09995Z" stroke="#D3AADA" stroke-width="0.41" stroke-linecap="round" stroke-linejoin="round"/>
<path opacity="0.56" d="M546.64 -7.10007C504.03 -7.87007 461.39 -8.21007 418.79 -10.6901C397.64 -11.9101 376.51 -13.6401 355.48 -16.1701C332.48 -18.9401 309.66 -22.8601 286.76 -26.1701C281.59 -26.7801 276.42 -27.3201 271.24 -27.8201C278.496 -16.3505 286.612 -5.44911 295.52 4.78993C322.34 35.1499 357.52 72.9599 394.99 113.06C411.93 131.21 428.99 148.6 445.6 164.74C503.79 221.4 548.72 264.25 593.28 246.91C661.47 220.38 726.47 80.3899 702.91 -1.59007C650.79 -2.48007 598.64 -6.21007 546.64 -7.10007Z" stroke="#D1AADB" stroke-width="0.41" stroke-linecap="round" stroke-linejoin="round"/>
<path opacity="0.57" d="M546.64 -7.09992C504.03 -7.86992 461.39 -8.20992 418.79 -10.6899C397.64 -11.9099 376.51 -13.6399 355.48 -16.1699C332.48 -18.9399 309.66 -22.8599 286.76 -26.1699C280.29 -26.9399 273.81 -27.5999 267.33 -28.1699C274.864 -16.7373 283.326 -5.94421 292.63 4.10008C320.07 33.2001 355.73 69.4901 393.29 109.1C410.42 127.16 427.62 144.45 444.15 160.55C502.78 217.62 545.45 261.62 590.08 244.55C657.79 218.49 721.87 79.1801 697.51 -1.68992C647.2 -2.71992 596.84 -6.20992 546.64 -7.09992Z" stroke="#D0AADC" stroke-width="0.41" stroke-linecap="round" stroke-linejoin="round"/>
<path opacity="0.58" d="M546.641 -7.10009C504.031 -7.87009 461.391 -8.21009 418.791 -10.6901C397.641 -11.9101 376.511 -13.6401 355.481 -16.1701C332.481 -18.9401 309.661 -22.8601 286.761 -26.1701C279.001 -27.1234 271.211 -27.9301 263.391 -28.5901C271.233 -17.2024 280.068 -6.53085 289.791 3.29991C317.861 31.1199 353.961 65.9099 391.651 104.98C408.981 122.98 426.271 140.13 442.761 156.2C501.821 213.68 542.241 258.82 586.951 241.95C654.191 216.59 717.261 77.9299 692.091 -1.81009C643.591 -2.97009 595.041 -6.21009 546.641 -7.10009Z" stroke="#CFA9DD" stroke-width="0.4" stroke-linecap="round" stroke-linejoin="round"/>
<path opacity="0.59" d="M546.64 -7.10012C504.03 -7.87012 461.39 -8.21012 418.79 -10.6901C397.64 -11.9101 376.51 -13.6401 355.48 -16.1701C332.48 -18.9401 309.66 -22.8601 286.76 -26.1701C277.64 -27.2501 268.51 -28.1701 259.37 -28.8701C267.534 -17.5299 276.759 -6.99239 286.92 2.59988C315.61 29.1399 352.16 62.4199 389.97 100.98C407.5 118.85 424.87 135.98 441.33 151.98C500.86 209.79 539.02 256.11 583.79 239.48C650.53 214.7 712.62 76.6499 686.63 -1.95012C639.96 -3.21012 593.23 -6.27012 546.64 -7.10012Z" stroke="#CEA9DE" stroke-width="0.4" stroke-linecap="round" stroke-linejoin="round"/>
<path opacity="0.6" d="M546.64 -7.09992C504.03 -7.86992 461.39 -8.20992 418.79 -10.6899C397.64 -11.9099 376.51 -13.6399 355.48 -16.1699C332.48 -18.9399 309.66 -22.8599 286.76 -26.1699C276.3 -27.4099 265.81 -28.3999 255.31 -29.1699C263.835 -17.9028 273.481 -7.52973 284.1 1.79008C313.42 27.0601 350.41 58.7901 388.35 96.8801C406.08 114.66 423.54 131.64 439.96 147.64C499.88 205.93 535.79 253.37 580.66 236.98C646.91 212.79 708.01 75.3401 681.17 -2.10992C636.3 -3.44992 591.41 -6.29992 546.64 -7.09992Z" stroke="#CDA9DE" stroke-width="0.4" stroke-linecap="round" stroke-linejoin="round"/>
<path opacity="0.61" d="M546.64 -7.10001C504.03 -7.87001 461.39 -8.21001 418.79 -10.69C397.64 -11.91 376.51 -13.64 355.48 -16.17C332.48 -18.94 309.66 -22.86 286.76 -26.17C274.93 -27.58 263.08 -28.66 251.2 -29.51C260.06 -18.2456 270.119 -7.97852 281.2 1.10999C311.14 25.11 348.6 55.36 386.65 92.9C404.58 110.59 422.12 127.47 438.51 143.42C498.87 202.13 532.51 250.72 577.51 234.56C643.28 210.93 703.4 74.06 675.72 -2.23001C632.66 -3.68001 589.59 -6.33001 546.64 -7.10001Z" stroke="#CBA9DF" stroke-width="0.39" stroke-linecap="round" stroke-linejoin="round"/>
<path opacity="0.62" d="M546.64 -7.10003C504.03 -7.87003 461.39 -8.21003 418.79 -10.69C397.64 -11.91 376.51 -13.64 355.48 -16.17C332.48 -18.94 309.66 -22.86 286.76 -26.17C273.55 -27.74 260.3 -28.9 247.04 -29.78C257.04 -17.87 267.38 -7.78003 278.35 0.369972C308.94 23.04 346.86 51.79 385.03 88.79C403.16 106.38 420.79 123.17 437.15 139.08C497.93 198.2 529.31 247.93 574.35 232.01C639.63 208.98 698.79 72.65 670.2 -2.46003C628.98 -3.90003 587.79 -6.36003 546.64 -7.10003Z" stroke="#CAA8E0" stroke-width="0.39" stroke-linecap="round" stroke-linejoin="round"/>
<path opacity="0.63" d="M546.64 -7.10007C504.03 -7.87007 461.39 -8.21007 418.79 -10.6901C397.64 -11.9101 376.51 -13.6401 355.48 -16.1701C332.48 -18.9401 309.66 -22.8601 286.76 -26.1701C272.14 -27.9101 257.47 -29.1701 242.76 -30.0701C253.23 -18.1801 263.99 -8.27007 275.46 -0.370068C306.7 21.0299 345.09 48.2599 383.37 84.7899C401.7 102.29 419.42 118.97 435.74 134.85C496.95 194.38 526.06 245.25 571.19 229.58C635.98 207.08 694.09 71.2699 664.7 -2.65007C625.31 -4.12007 585.93 -6.40007 546.64 -7.10007Z" stroke="#C9A8E1" stroke-width="0.39" stroke-linecap="round" stroke-linejoin="round"/>
<path opacity="0.64" d="M546.639 -7.10011C504.029 -7.87011 461.389 -8.21011 418.789 -10.6901C397.639 -11.9101 376.509 -13.6401 355.479 -16.1701C332.479 -18.9401 309.659 -22.8601 286.759 -26.1701C270.789 -28.1201 254.659 -29.4301 238.529 -30.3601C249.449 -18.5101 260.669 -8.78011 272.679 -1.16011C304.449 19.0099 343.329 44.7199 381.679 80.7399C400.219 98.1399 418.019 114.74 434.309 130.57C495.949 190.51 522.799 242.57 568.019 227.09C632.319 205.15 689.399 69.8499 659.119 -2.91011C621.609 -4.33011 584.079 -6.43011 546.639 -7.10011Z" stroke="#C8A8E2" stroke-width="0.39" stroke-linecap="round" stroke-linejoin="round"/>
<path opacity="0.65" d="M546.64 -7.1001C504.03 -7.8701 461.39 -8.2101 418.79 -10.6901C397.64 -11.9101 376.51 -13.6401 355.48 -16.1701C332.48 -18.9401 309.66 -22.8601 286.76 -26.1701C269.31 -28.2901 251.79 -29.6601 234.17 -30.6001C245.55 -18.7801 257.27 -9.2101 269.79 -1.9001C302.18 16.9899 341.54 41.1799 380.01 76.6999C398.76 94.0099 416.64 110.49 432.89 126.3C494.97 186.64 519.54 239.79 564.89 224.61C628.69 203.24 684.75 68.4099 653.61 -3.0901C617.93 -4.5301 582.24 -6.4601 546.64 -7.1001Z" stroke="#C7A8E2" stroke-width="0.38" stroke-linecap="round" stroke-linejoin="round"/>
<path opacity="0.66" d="M546.64 -7.10005C504.03 -7.87005 461.39 -8.21005 418.79 -10.69C397.64 -11.91 376.51 -13.64 355.48 -16.17C332.48 -18.94 309.66 -22.86 286.76 -26.17C267.76 -28.42 248.76 -29.87 229.67 -30.8C241.54 -19 253.78 -9.63005 266.93 -2.60005C299.93 15.02 339.76 37.68 378.34 72.7C397.34 89.91 415.25 106.3 431.47 122.07C493.98 182.82 516.28 237.07 561.69 222.17C625.01 201.35 680.01 66.9899 647.98 -3.28005C614.2 -4.73005 580.38 -6.50005 546.64 -7.10005Z" stroke="#C5A7E3" stroke-width="0.38" stroke-linecap="round" stroke-linejoin="round"/>
<path opacity="0.67" d="M546.641 -7.1C504.031 -7.87 461.391 -8.21 418.791 -10.69C397.641 -11.91 376.511 -13.64 355.481 -16.17C332.481 -18.94 309.661 -22.86 286.761 -26.17C266.291 -28.6 245.761 -30.08 225.141 -31C237.521 -19.2 250.301 -10 264.071 -3.35C297.671 13.01 338.011 34.13 376.681 68.65C395.841 85.76 413.881 102.06 430.061 117.79C493.001 178.95 513.061 234.37 558.541 219.69C621.391 199.39 675.341 65.46 642.441 -3.55C610.481 -4.92 578.531 -6.53 546.641 -7.1Z" stroke="#C4A7E4" stroke-width="0.38" stroke-linecap="round" stroke-linejoin="round"/>
<path opacity="0.68" d="M546.64 -7.09992C504.03 -7.86992 461.39 -8.20992 418.79 -10.6899C397.64 -11.9099 376.51 -13.6399 355.48 -16.1699C332.48 -18.9399 309.66 -22.8599 286.76 -26.1699C264.76 -28.7799 242.64 -30.2999 220.51 -31.1699C233.43 -19.3699 246.79 -10.4199 261.22 -4.05992C295.42 11.0201 336.22 30.6101 375.02 64.6501C394.39 81.6501 412.51 97.8601 428.65 113.56C492.06 175.06 509.79 231.61 555.42 217.18C617.79 197.47 670.62 63.9501 636.79 -3.79992C606.79 -5.09992 576.66 -6.55992 546.64 -7.09992Z" stroke="#C3A7E5" stroke-width="0.38" stroke-linecap="round" stroke-linejoin="round"/>
<path opacity="0.69" d="M546.64 -7.09989C504.03 -7.86989 461.39 -8.20989 418.79 -10.6899C397.64 -11.9099 376.51 -13.6399 355.48 -16.1699C332.48 -18.9399 309.66 -22.8599 286.76 -26.1699C263.19 -28.9699 239.51 -30.5199 215.76 -31.3899C229.24 -19.5599 243.21 -10.8299 258.32 -4.82989C293.13 8.99011 334.46 27.0301 373.32 60.5801C392.9 77.4901 411.09 93.5801 427.2 109.26C491.01 171.26 506.47 228.91 552.2 214.74C614.01 195.58 665.8 62.4501 631.13 -3.99989C602.99 -5.27989 574.79 -6.59989 546.64 -7.09989Z" stroke="#C2A7E6" stroke-width="0.37" stroke-linecap="round" stroke-linejoin="round"/>
<path opacity="0.7" d="M546.64 -7.10005C504.03 -7.87005 461.39 -8.21005 418.79 -10.69C397.64 -11.91 376.51 -13.64 355.48 -16.17C332.48 -18.94 309.66 -22.86 286.76 -26.17C261.6 -29.17 236.31 -30.72 210.99 -31.55C224.115 -20.2335 239.205 -11.421 255.51 -5.55005C290.95 6.93995 332.79 23.4399 371.79 56.4999C391.58 73.3099 409.85 89.32 425.92 104.95C490.16 167.34 503.34 226.14 549.16 212.22C610.47 193.61 661.16 60.86 625.63 -4.29005C599.24 -5.45005 572.92 -6.63005 546.64 -7.10005Z" stroke="#C1A6E6" stroke-width="0.37" stroke-linecap="round" stroke-linejoin="round"/>
<path opacity="0.71" d="M546.639 -7.09996C504.029 -7.86996 461.389 -8.20996 418.789 -10.69C397.639 -11.91 376.509 -13.64 355.479 -16.17C332.479 -18.94 309.659 -22.86 286.759 -26.17C259.959 -29.35 232.999 -30.93 206.029 -31.71C219.805 -20.3333 235.648 -11.7255 252.689 -6.35996C288.689 4.93004 331.049 19.88 370.079 52.47C390.079 69.17 408.429 85.09 424.459 100.68C489.129 163.47 500.029 223.39 545.959 209.79C606.789 191.68 656.339 59.29 619.939 -4.53996C595.479 -5.61996 571.039 -6.66996 546.639 -7.09996Z" stroke="#BFA6E7" stroke-width="0.37" stroke-linecap="round" stroke-linejoin="round"/>
<path opacity="0.72" d="M546.64 -7.10009C504.03 -7.87009 461.39 -8.21009 418.79 -10.6901C397.64 -11.9101 376.51 -13.6401 355.48 -16.1701C332.48 -18.9401 309.66 -22.8601 286.76 -26.1701C258.3 -29.5501 229.68 -31.1101 201.04 -31.8401C215.445 -20.3593 232.035 -11.9284 249.8 -7.06009C286.4 2.93991 329.27 16.3599 368.38 48.4699C388.6 65.0599 407.01 80.8999 423.01 96.4699C488.16 159.61 496.79 220.65 542.79 207.27C603.08 189.79 651.53 57.6999 614.27 -4.79009C591.71 -5.78009 569.16 -6.70009 546.64 -7.10009Z" stroke="#BEA6E8" stroke-width="0.36" stroke-linecap="round" stroke-linejoin="round"/>
<path opacity="0.73" d="M546.64 -7.09997C504.03 -7.86997 461.39 -8.20997 418.79 -10.69C397.64 -11.91 376.51 -13.64 355.48 -16.17C332.48 -18.94 309.66 -22.86 286.76 -26.17C256.6 -29.75 226.24 -31.3 195.88 -31.97C210.979 -20.3626 228.39 -12.1244 246.94 -7.80997C284.19 0.930029 327.56 12.79 366.79 44.39C387.23 60.88 405.71 76.62 421.67 92.14C487.18 155.79 493.49 217.9 539.65 204.79C599.41 187.79 646.71 56.11 608.65 -5.02997C587.94 -5.92997 567.28 -6.72997 546.64 -7.09997Z" stroke="#BDA6E9" stroke-width="0.36" stroke-linecap="round" stroke-linejoin="round"/>
<path opacity="0.74" d="M602.979 -5.27008C584.179 -6.07008 565.399 -6.77008 546.639 -7.10008C504.029 -7.87008 461.389 -8.21008 418.789 -10.6901C397.639 -11.9101 376.509 -13.6401 355.479 -16.1701C332.479 -18.9401 309.659 -22.8601 286.759 -26.1701C256.359 -29.7801 225.759 -31.3201 195.179 -31.9901L190.609 -32.0801C206.435 -20.3067 224.717 -12.2629 244.089 -8.55008C281.889 -1.03008 325.789 9.23992 365.089 40.3899C385.739 56.7699 404.289 72.3899 420.229 87.9099C486.229 151.91 490.229 215.19 536.489 202.35C595.569 185.97 641.639 55.1499 603.229 -4.82008C603.159 -4.99008 603.069 -5.14008 602.979 -5.27008Z" stroke="#BCA5E9" stroke-width="0.36" stroke-linecap="round" stroke-linejoin="round"/>
<path opacity="0.75" d="M597.44 -5.50993C580.49 -6.19993 563.56 -6.79993 546.64 -7.09993C504.03 -7.86993 461.39 -8.20993 418.79 -10.6899C397.64 -11.9099 376.51 -13.6399 355.48 -16.1699C332.48 -18.9399 309.66 -22.8599 286.76 -26.1699C256.36 -29.7799 225.76 -31.3199 195.18 -31.9899L185.18 -32.1799C201.77 -20.2222 220.964 -12.3768 241.18 -9.28993C279.59 -3.02993 324 5.71007 363.35 36.3501C384.22 52.6201 402.84 68.1901 418.74 83.6401C485.13 148.07 486.86 212.43 533.25 199.88C591.06 184.24 635.55 56.8801 598.95 -2.79993C598.52 -3.68993 597.98 -4.58993 597.44 -5.50993Z" stroke="#BAA5EA" stroke-width="0.36" stroke-linecap="round" stroke-linejoin="round"/>
<path opacity="0.75" d="M592.06 -5.72004C576.91 -6.32004 561.77 -6.83004 546.64 -7.10004C504.03 -7.87004 461.39 -8.21004 418.79 -10.69C397.64 -11.91 376.51 -13.64 355.48 -16.17C332.48 -18.94 309.66 -22.86 286.76 -26.17C256.36 -29.78 225.76 -31.32 195.18 -31.99C190.006 -32.0967 184.84 -32.1967 179.68 -32.29C197.82 -19.5 217.19 -12.75 238.38 -10.03C277.38 -5.03004 322.32 2.09996 361.74 32.31C382.83 48.47 401.52 63.96 417.38 79.36C484.21 144.21 483.64 209.67 530.15 197.36C586.71 182.45 629.64 58.45 594.79 -0.82004C593.94 -2.34004 593.01 -3.99004 592.06 -5.72004Z" stroke="#B9A5EB" stroke-width="0.35" stroke-linecap="round" stroke-linejoin="round"/>
<path opacity="0.76" d="M586.79 -5.92992C573.39 -6.43992 559.99 -6.85992 546.61 -7.09992C504.03 -7.86992 461.39 -8.20992 418.79 -10.6899C397.64 -11.9099 376.51 -13.6399 355.48 -16.1699C332.48 -18.9399 309.66 -22.8599 286.76 -26.1699C256.36 -29.7799 225.76 -31.3199 195.18 -31.9899C188.16 -32.1366 181.124 -32.2799 174.07 -32.4199C192.97 -19.3099 213.3 -12.9299 235.56 -10.8199C275.16 -7.05992 320.63 -1.50992 360.12 28.2301C381.43 44.2301 400.18 59.6901 416.01 75.0501C483.27 140.3 480.4 206.86 527.01 194.88C582.25 180.7 623.64 60.1001 590.61 1.20008C589.397 -0.96659 588.124 -3.34326 586.79 -5.92992Z" stroke="#B8A5EC" stroke-width="0.35" stroke-linecap="round" stroke-linejoin="round"/>
<path opacity="0.77" d="M581.69 -6.12001C570 -6.54001 558.32 -6.89001 546.69 -7.12001C504.03 -7.87001 461.39 -8.21001 418.79 -10.69C397.64 -11.91 376.51 -13.64 355.48 -16.17C332.48 -18.94 309.66 -22.86 286.76 -26.17C256.36 -29.78 225.76 -31.32 195.18 -31.99C186.253 -32.2033 177.296 -32.3767 168.31 -32.51C187.98 -19 209.31 -13.02 232.71 -11.51C272.91 -9.00001 318.9 -5.04001 358.46 24.24C379.99 40.13 398.79 55.45 414.6 70.79C482.29 136.45 477.12 204.09 523.88 192.41C577.79 178.93 617.69 61.79 586.42 3.21999C584.93 0.42999 583.35 -2.70001 581.69 -6.12001Z" stroke="#B7A5ED" stroke-width="0.35" stroke-linecap="round" stroke-linejoin="round"/>
<path opacity="0.78" d="M576.69 -6.3001C566.69 -6.6401 556.69 -6.90676 546.69 -7.1001C504.03 -7.8701 461.39 -8.2101 418.79 -10.6901C397.64 -11.9101 376.51 -13.6401 355.48 -16.1701C332.48 -18.9401 309.66 -22.8601 286.76 -26.1701C256.36 -29.7801 225.76 -31.3201 195.18 -31.9901C184.253 -32.2568 173.333 -32.4601 162.42 -32.6001C182.87 -18.6001 205.27 -13.0601 229.85 -12.3001C270.65 -11.0401 317.17 -8.6601 356.85 20.1499C378.61 35.9699 397.48 51.2199 413.24 66.5099C481.31 132.58 473.79 201.3 520.72 189.93C573.37 177.16 611.72 63.3599 582.22 5.2399C580.49 1.8399 578.64 -2.0201 576.69 -6.3001Z" stroke="#B6A4ED" stroke-width="0.34" stroke-linecap="round" stroke-linejoin="round"/>
<path opacity="0.79" d="M571.79 -6.45992C563.397 -6.73326 555.013 -6.94659 546.64 -7.09992C504.03 -7.86992 461.39 -8.20992 418.79 -10.6899C397.64 -11.9099 376.51 -13.6399 355.48 -16.1699C332.48 -18.9399 309.66 -22.8599 286.76 -26.1699C256.36 -29.7799 225.76 -31.3199 195.18 -31.9899C182.287 -32.2966 169.377 -32.5233 156.45 -32.6699C177.67 -18.1399 201.18 -13.0599 226.99 -13.0499C268.4 -13.0499 315.44 -12.2499 355.14 16.1101C377.14 31.8101 396.06 46.9801 411.78 62.2401C480.34 128.72 470.55 198.51 517.57 187.45C568.92 175.37 605.79 64.9701 578.01 7.26008C576.09 3.27008 574.01 -1.32992 571.79 -6.45992Z" stroke="#B4A4EE" stroke-width="0.34" stroke-linecap="round" stroke-linejoin="round"/>
<path opacity="0.8" d="M566.99 -6.60999C560.196 -6.80999 553.413 -6.97332 546.64 -7.09999C504.03 -7.86999 461.39 -8.20999 418.79 -10.69C397.64 -11.91 376.51 -13.64 355.48 -16.17C332.48 -18.94 309.66 -22.86 286.76 -26.17C256.36 -29.78 225.76 -31.32 195.18 -31.99C180.253 -32.3367 165.323 -32.5867 150.39 -32.74C172.39 -17.57 197.04 -13 224.14 -13.74C266.14 -14.97 313.72 -15.74 353.48 12.12C375.68 27.71 394.69 42.8 410.37 58.02C479.37 124.91 467.26 195.76 514.42 185.02C564.42 173.62 599.9 66.62 573.81 9.32001C571.73 4.70001 569.44 -0.629989 566.99 -6.60999Z" stroke="#B3A4EF" stroke-width="0.34" stroke-linecap="round" stroke-linejoin="round"/>
<path opacity="0.81" d="M562.29 -6.74007C557.07 -6.88674 551.853 -7.00673 546.64 -7.10007C504.03 -7.87007 461.39 -8.21007 418.79 -10.6901C397.64 -11.9101 376.51 -13.6401 355.48 -16.1701C332.48 -18.9401 309.66 -22.8601 286.76 -26.1701C256.36 -29.7801 225.76 -31.3201 195.18 -31.9901C178.253 -32.3834 161.283 -32.6601 144.27 -32.8201C166.99 -16.9001 192.85 -12.8901 221.27 -14.5301C263.89 -17.0001 311.99 -19.4201 351.8 8.02993C374.24 23.4999 393.3 38.5199 408.95 53.6999C478.37 120.99 463.95 192.9 511.25 182.49C560.01 171.79 594 68.1699 569.6 11.2899C567.39 6.13993 564.94 0.0699315 562.29 -6.74007Z" stroke="#B2A4F0" stroke-width="0.34" stroke-linecap="round" stroke-linejoin="round"/>
<path opacity="0.82" d="M557.68 -6.86009C554 -6.95009 550.32 -7.04009 546.68 -7.10009C504.03 -7.87009 461.39 -8.21009 418.79 -10.6901C397.64 -11.9101 376.51 -13.6401 355.48 -16.1701C332.48 -18.9401 309.66 -22.8601 286.76 -26.1701C256.36 -29.7801 225.76 -31.3201 195.18 -31.9901C176.18 -32.4001 157.1 -32.6501 138.06 -32.8401L139.06 -32.1601C162.26 -15.9801 189.06 -12.7101 218.43 -15.2401C261.65 -18.9501 310.28 -22.9701 350.15 4.02991C372.82 19.3799 391.94 34.3199 407.55 49.4699C477.4 117.17 460.68 190.13 508.11 180.06C555.54 169.99 588.11 69.7899 565.4 13.3499C563.09 7.57991 560.5 0.789912 557.68 -6.86009Z" stroke="#B1A3F1" stroke-width="0.33" stroke-linecap="round" stroke-linejoin="round"/>
<path opacity="0.83" d="M553.17 -6.96994C550.99 -6.96994 548.82 -7.06994 546.64 -7.09994C504.03 -7.86994 461.39 -8.20994 418.79 -10.6899C397.64 -11.9099 376.51 -13.6399 355.48 -16.1699C332.48 -18.9399 309.66 -22.8599 286.76 -26.1699C256.36 -29.7799 225.76 -31.3199 195.18 -31.9899C174.11 -32.4899 153 -32.7399 131.89 -32.9399C132.89 -32.1999 133.98 -31.4499 135.1 -30.6999C158.49 -14.9899 185.74 -12.6999 215.57 -16.0199C259.4 -21.0199 308.57 -26.5999 348.49 -0.0199432C371.38 15.2001 390.56 30.0801 406.14 45.1901C476.43 113.3 457.38 187.29 504.95 177.57C551.08 168.14 582.28 71.3601 561.19 15.3601C558.79 9.02006 556.12 1.51006 553.17 -6.96994Z" stroke="#B0A3F1" stroke-width="0.33" stroke-linecap="round" stroke-linejoin="round"/>
<path opacity="0.84" d="M548.79 -7.05999H546.68C504.03 -7.86999 461.39 -8.20999 418.79 -10.69C397.64 -11.91 376.51 -13.64 355.48 -16.17C332.48 -18.94 309.66 -22.86 286.76 -26.17C256.36 -29.78 225.76 -31.32 195.18 -31.99C171.98 -32.49 148.78 -32.76 125.58 -32.99C127.29 -31.73 129.12 -30.47 131.11 -29.18C154.68 -13.94 182.41 -12.53 212.68 -16.75C257.15 -22.95 306.84 -30.21 346.79 -4.08999C369.95 11.01 389.19 25.79 404.79 40.89C475.5 109.41 454.13 184.42 501.85 175.06C546.66 166.27 576.5 72.91 557.04 17.35C554.58 10.46 551.79 2.23001 548.79 -7.05999Z" stroke="#AEA3F2" stroke-width="0.33" stroke-linecap="round" stroke-linejoin="round"/>
<path opacity="0.85" d="M544.43 -7.14C502.55 -7.88 460.65 -8.29 418.83 -10.69C397.68 -11.91 376.55 -13.64 355.52 -16.17C332.52 -18.94 309.7 -22.86 286.8 -26.17C256.4 -29.78 225.8 -31.32 195.22 -31.99C172.01 -32.53 148.79 -32.8 125.57 -33L119.79 -32.71C121.997 -31.0633 124.463 -29.3967 127.19 -27.71C150.95 -12.93 179.19 -12.46 209.86 -17.52C254.86 -24.96 305.13 -33.81 345.17 -8.15C368.52 6.85 387.82 21.56 403.33 36.6C474.47 105.53 450.79 181.6 498.64 172.6C542.15 164.43 570.64 74.5 552.78 19.39C550.36 11.9 547.55 2.94 544.43 -7.14Z" stroke="#ADA3F3" stroke-width="0.33" stroke-linecap="round" stroke-linejoin="round"/>
<path opacity="0.86" d="M540.19 -7.20989C499.72 -7.90989 459.24 -8.36989 418.83 -10.6899C397.68 -11.9099 376.55 -13.6399 355.52 -16.1699C346.43 -17.2599 337.38 -18.5399 328.34 -19.8899C333.614 -17.7842 338.691 -15.2141 343.51 -12.2099C367.09 2.63011 386.44 17.3101 401.92 32.3101C473.5 101.65 447.48 178.66 495.49 170.06C537.68 162.51 564.85 76.0001 548.58 21.3501C546.18 13.3301 543.35 3.66011 540.19 -7.20989Z" stroke="#ACA2F4" stroke-width="0.32" stroke-linecap="round" stroke-linejoin="round"/>
<path opacity="0.87" d="M536.04 -7.28999C496.96 -7.93999 457.86 -8.44999 418.83 -10.69C397.68 -11.91 376.55 -13.64 355.52 -16.17C349.64 -16.8833 343.776 -17.6567 337.93 -18.49C339.25 -17.76 340.56 -17.01 341.85 -16.21C365.66 -1.49999 385.07 13.11 400.51 28.08C472.51 97.82 444.18 175.82 492.34 167.63C533.21 160.63 559.08 77.63 544.34 23.4C542.02 14.79 539.21 4.36001 536.04 -7.28999Z" stroke="#ABA2F5" stroke-width="0.32" stroke-linecap="round" stroke-linejoin="round"/>
<path opacity="0.88" d="M531.99 -7.36008C494.26 -7.98008 456.51 -8.52008 418.83 -10.6901C397.68 -11.9101 376.55 -13.6401 355.52 -16.1701C351.85 -16.6101 348.19 -17.0901 344.52 -17.5801C366.59 -3.90008 384.63 9.78992 399.1 23.7899C471.54 93.9399 440.87 172.9 489.18 165.13C528.73 158.77 553.34 79.1299 540.18 25.3999C537.9 16.1599 535.13 5.05992 531.99 -7.36008Z" stroke="#AAA2F5" stroke-width="0.32" stroke-linecap="round" stroke-linejoin="round"/>
<path opacity="0.89" d="M528.03 -7.42003C491.61 -8.02003 455.19 -8.60003 418.83 -10.69C397.68 -11.91 376.55 -13.64 355.52 -16.17C353.91 -16.36 352.31 -16.58 350.71 -16.78C369.43 -4.78003 384.98 7.21997 397.71 19.54C470.58 90.1 437.59 170 486.05 162.67C524.28 156.89 547.63 80.76 535.98 27.44C533.79 17.56 531.11 5.78997 528.03 -7.42003Z" stroke="#A8A2F6" stroke-width="0.31" stroke-linecap="round" stroke-linejoin="round"/>
<path opacity="0.9" d="M524.16 -7.49004C489.04 -8.07004 453.91 -8.67004 418.83 -10.69C398.06 -11.89 377.31 -13.58 356.66 -16.04C370.797 -6.84179 384.06 3.63556 396.28 15.26C469.59 86.26 434.28 167.07 482.87 160.19C519.79 154.98 541.87 82.34 531.76 29.46C529.79 18.94 527.15 6.39996 524.16 -7.49004Z" stroke="#A7A1F7" stroke-width="0.31" stroke-linecap="round" stroke-linejoin="round"/>
<path opacity="0.91" d="M520.4 -7.54989C486.53 -8.10989 452.65 -8.74989 418.83 -10.6899C399.94 -11.7799 381.08 -13.2799 362.29 -15.3899C373.852 -7.50087 384.749 1.32196 394.87 10.9901C468.61 82.3801 430.95 164.1 479.72 157.72C515.32 153.06 536.23 83.9301 527.55 31.4801C525.71 20.3101 523.26 7.06011 520.4 -7.54989Z" stroke="#A6A1F8" stroke-width="0.31" stroke-linecap="round" stroke-linejoin="round"/>
<path opacity="0.92" d="M516.73 -7.61007C484.08 -8.16007 451.43 -8.82007 418.83 -10.6901C401.71 -11.6901 384.62 -13.0101 367.57 -14.8201C376.699 -8.26212 385.351 -1.06401 393.46 6.71993C467.63 78.5199 427.63 161.11 476.56 155.24C510.85 151.12 530.56 85.5299 523.35 33.4999C521.71 21.6699 519.43 7.69993 516.73 -7.61007Z" stroke="#A5A1F9" stroke-width="0.31" stroke-linecap="round" stroke-linejoin="round"/>
<path opacity="0.93" d="M513.17 -7.67003C481.71 -8.21003 450.25 -8.88003 418.83 -10.67C403.36 -11.56 387.91 -12.73 372.5 -14.28C379.334 -9.07757 385.861 -3.48493 392.05 2.46997C466.65 74.67 424.32 158.11 473.41 152.78C506.41 149.2 524.93 87.16 519.14 35.54C517.79 23.01 515.67 8.31997 513.17 -7.67003Z" stroke="#A3A1F9" stroke-width="0.3" stroke-linecap="round" stroke-linejoin="round"/>
<path opacity="0.94" d="M509.72 -7.7299C479.41 -8.2599 449.1 -8.9499 418.83 -10.7299C404.83 -11.5399 390.93 -12.5699 377.01 -13.8999C381.91 -9.8999 386.453 -5.8999 390.64 -1.8999C465.64 70.7101 421.01 154.96 470.25 150.2C501.91 147.15 519.3 88.6901 514.94 37.4601C513.79 24.3201 511.99 8.9301 509.72 -7.7299Z" stroke="#A2A0FA" stroke-width="0.3" stroke-linecap="round" stroke-linejoin="round"/>
<path opacity="0.95" d="M506.371 -7.78998C477.181 -8.31998 447.981 -9.01998 418.831 -10.69C406.251 -11.4233 393.687 -12.3533 381.141 -13.48C383.971 -11.03 386.681 -8.56998 389.231 -6.08998C464.701 66.91 417.701 151.91 467.101 147.81C497.451 145.26 513.701 90.41 510.731 39.55C509.921 25.62 508.381 9.52002 506.371 -7.78998Z" stroke="#A1A0FB" stroke-width="0.3" stroke-linecap="round" stroke-linejoin="round"/>
<path opacity="0.96" d="M503.151 -7.84989C475.031 -8.36989 446.911 -9.07989 418.831 -10.6899C407.497 -11.3566 396.184 -12.1732 384.891 -13.1399C385.891 -12.2199 386.891 -11.2899 387.831 -10.3599C463.721 63.0701 414.391 148.79 463.951 145.33C492.951 143.33 508.111 92.0801 506.531 41.5701C506.071 26.9001 504.851 10.0801 503.151 -7.84989Z" stroke="#A0A0FC" stroke-width="0.29" stroke-linecap="round" stroke-linejoin="round"/>
<path opacity="0.97" d="M418.79 -10.6901C408.57 -11.2834 398.36 -12.0034 388.16 -12.8501C461.9 60.5899 411.49 145.61 460.79 142.85C488.54 141.3 502.53 93.7599 502.32 43.5899C502.26 28.1499 501.4 10.5899 500.04 -7.9101C472.96 -8.4201 445.88 -9.1401 418.79 -10.6901Z" stroke="#9FA0FD" stroke-width="0.29" stroke-linecap="round" stroke-linejoin="round"/>
<path opacity="0.98" d="M418.79 -10.6901C409.557 -11.2301 400.333 -11.8701 391.12 -12.6101C458.76 60.1699 409.12 142.33 457.6 140.39C484.05 139.32 496.93 95.4799 498.08 45.6299C498.46 29.3999 498 11.1699 497.02 -7.95011C470.97 -8.47011 444.88 -9.21011 418.79 -10.6901Z" stroke="#9D9FFD" stroke-width="0.29" stroke-linecap="round" stroke-linejoin="round"/>
<path opacity="0.99" d="M418.79 -10.6899C410.457 -11.1766 402.123 -11.7466 393.79 -12.3999C455.68 59.6501 406.91 139.03 454.51 137.9C479.69 137.3 491.44 97.1801 493.94 47.6301C494.81 30.5801 494.8 11.6301 494.25 -8.0299C469.07 -8.5299 443.94 -9.2099 418.79 -10.6899Z" stroke="#9C9FFE" stroke-width="0.29" stroke-linecap="round" stroke-linejoin="round"/>
<path d="M418.79 -10.69C411.177 -11.13 403.574 -11.64 395.98 -12.22C452.41 59.02 404.53 135.69 451.29 135.42C475.19 135.28 485.83 98.93 489.67 49.65C491.06 31.74 491.56 12.12 491.47 -8.07997C467.27 -8.58997 443.04 -9.29997 418.79 -10.69Z" stroke="#9B9FFF" stroke-width="0.28" stroke-linecap="round" stroke-linejoin="round"/>
<path opacity="0.4" d="M776.69 -2.8C700.14 1.64 623.2 -5.73 546.69 -7.1C504.03 -7.87 461.39 -8.21 418.79 -10.69C397.64 -11.91 376.51 -13.64 355.48 -16.17C332.48 -18.94 309.66 -22.86 286.76 -26.17C256.36 -29.78 225.76 -31.32 195.18 -31.99C172.01 -32.53 148.79 -32.8 125.57 -33C101.904 -31.76 78.237 -30.7033 54.5703 -29.83C137.06 84.87 242.78 157.85 266.25 125.17C370.31 -20 585.12 182.33 718.57 61.47C744.87 37.66 766 16.29 782.2 -3.13L776.69 -2.8Z" stroke="#D9ABD6" stroke-width="0.43" stroke-linecap="round" stroke-linejoin="round"/>
<path opacity="0.41" d="M546.64 -7.1C504.03 -7.87 461.39 -8.21 418.79 -10.69C397.64 -11.91 376.51 -13.64 355.48 -16.17C332.48 -18.94 309.66 -22.86 286.76 -26.17C256.36 -29.78 225.76 -31.32 195.18 -31.99C172.01 -32.53 148.79 -32.8 125.57 -33C101.93 -31.76 78.2832 -30.7067 54.6299 -29.84C134.41 82.57 236.03 153.99 260.63 121.74C367.54 -18.67 575.63 177.91 708.12 59.96C733.81 36.96 754.55 16.35 770.56 -2.47C696 1.24 621.15 -5.76 546.64 -7.1Z" stroke="#D7ABD7" stroke-width="0.43" stroke-linecap="round" stroke-linejoin="round"/>
<path opacity="0.43" d="M546.64 -7.1C504.03 -7.87 461.39 -8.21 418.79 -10.69C397.64 -11.91 376.51 -13.64 355.48 -16.17C332.48 -18.94 309.66 -22.86 286.76 -26.17C256.36 -29.78 225.76 -31.32 195.18 -31.99C172.01 -32.53 148.79 -32.8 125.57 -33C101.904 -31.76 78.237 -30.7033 54.5703 -29.83C131.65 80.29 229.29 150.17 254.94 118.36C364.42 -17.39 566.24 173.79 697.57 58.45C722.79 36.27 743.29 16.28 759.17 -1.99C688.4 0.54 617.37 -5.83 546.64 -7.1Z" stroke="#D6ABD8" stroke-width="0.43" stroke-linecap="round" stroke-linejoin="round"/>
<path opacity="0.44" d="M546.64 -7.1C504.03 -7.87 461.39 -8.21 418.79 -10.69C397.64 -11.91 376.51 -13.64 355.48 -16.17C332.48 -18.94 309.66 -22.86 286.76 -26.17C256.36 -29.78 225.76 -31.32 195.18 -31.99C172.01 -32.53 148.79 -32.8 125.57 -33C101.823 -31.76 78.0667 -30.7 54.3 -29.82C128.71 78.05 222.52 146.35 249.3 114.99C361.12 -16.21 556.79 169.47 687.07 56.94C711.92 35.47 732.07 16.09 747.84 -1.65C680.79 -0.12 613.59 -5.9 546.64 -7.1Z" stroke="#D4AAD9" stroke-width="0.43" stroke-linecap="round" stroke-linejoin="round"/>
<path opacity="0.46" d="M546.64 -7.1C504.03 -7.87 461.39 -8.21 418.79 -10.69C397.64 -11.91 376.51 -13.64 355.48 -16.17C332.48 -18.94 309.66 -22.86 286.76 -26.17C256.36 -29.78 225.76 -31.32 195.18 -31.99C172.01 -32.53 148.79 -32.8 125.57 -33C101.676 -31.7467 77.783 -30.6833 53.8896 -29.81C125.66 75.79 215.79 142.55 243.61 111.61C357.61 -15.04 547.33 165.18 676.61 55.43C701.11 34.62 721.07 15.8 736.68 -1.47C673.33 -0.749999 609.86 -5.97 546.64 -7.1Z" stroke="#D3AADA" stroke-width="0.43" stroke-linecap="round" stroke-linejoin="round"/>
<path opacity="0.47" d="M546.64 -7.1C504.03 -7.87 461.39 -8.21 418.79 -10.69C397.64 -11.91 376.51 -13.64 355.48 -16.17C332.48 -18.94 309.66 -22.86 286.76 -26.17C256.36 -29.78 225.76 -31.32 195.18 -31.99C172.01 -32.53 148.79 -32.8 125.57 -33C101.503 -31.74 77.4268 -30.67 53.3401 -29.79C122.47 73.6 209 138.76 237.95 108.21C353.84 -13.99 537.87 160.89 666.06 53.91C690.27 33.72 710.06 15.42 725.53 -1.4C665.91 -1.35 606.16 -6.03 546.64 -7.1Z" stroke="#D1AADB" stroke-width="0.43" stroke-linecap="round" stroke-linejoin="round"/>
<path opacity="0.49" d="M546.64 -7.1C504.03 -7.87 461.39 -8.21 418.79 -10.69C397.64 -11.91 376.51 -13.64 355.48 -16.17C332.48 -18.94 309.66 -22.86 286.76 -26.17C256.36 -29.78 225.76 -31.32 195.18 -31.99C172.01 -32.53 148.79 -32.8 125.57 -33C101.263 -31.7267 76.9499 -30.65 52.6299 -29.77C119.17 71.4 202.24 134.97 232.29 104.85C349.89 -13.03 528.41 156.59 655.56 52.4C679.56 32.77 699.11 14.95 714.56 -1.44C658.56 -1.91 602.5 -6.1 546.64 -7.1Z" stroke="#D0A9DC" stroke-width="0.43" stroke-linecap="round" stroke-linejoin="round"/>
<path opacity="0.5" d="M546.64 -7.1C504.03 -7.87 461.39 -8.21 418.79 -10.69C397.64 -11.91 376.51 -13.64 355.48 -16.17C332.48 -18.94 309.66 -22.86 286.76 -26.17C256.36 -29.78 225.76 -31.32 195.18 -31.99C172.01 -32.53 148.79 -32.8 125.57 -33C100.97 -31.7067 76.3767 -30.62 51.79 -29.74C115.79 69.26 195.51 131.18 226.65 101.47C345.79 -12.16 518.94 152.3 645.06 50.89C668.79 31.79 688.27 14.43 703.59 -1.58C651.26 -2.44 598.87 -6.21 546.64 -7.1Z" stroke="#CEA9DD" stroke-width="0.43" stroke-linecap="round" stroke-linejoin="round"/>
<path opacity="0.52" d="M546.64 -7.1C504.03 -7.87 461.39 -8.21 418.79 -10.69C397.64 -11.91 376.51 -13.64 355.48 -16.17C332.48 -18.94 309.66 -22.86 286.76 -26.17C256.36 -29.78 225.76 -31.32 195.18 -31.99C172.01 -32.53 148.79 -32.8 125.57 -33C100.637 -31.6667 75.7 -30.5667 50.76 -29.7C112.22 67.02 188.79 127.39 220.98 98.09C341.44 -11.4 509.46 148.01 634.56 49.38C658.16 30.79 677.49 13.84 692.79 -1.8C644.03 -2.94 595.26 -6.21 546.64 -7.1Z" stroke="#CDA9DE" stroke-width="0.43" stroke-linecap="round" stroke-linejoin="round"/>
<path opacity="0.53" d="M546.64 -7.1C504.03 -7.87 461.39 -8.21 418.79 -10.69C397.64 -11.91 376.51 -13.64 355.48 -16.17C332.48 -18.94 309.66 -22.86 286.76 -26.17C256.36 -29.78 225.76 -31.32 195.18 -31.99C172.01 -32.53 148.79 -32.8 125.57 -33C100.25 -31.68 74.9303 -30.52 49.5703 -29.66C108.57 64.83 181.99 123.58 215.29 94.71C336.94 -10.74 499.95 143.71 624.03 47.87C647.54 29.73 666.79 13.21 681.98 -2.08C636.84 -3.41 591.68 -6.29 546.64 -7.1Z" stroke="#CBA9DF" stroke-width="0.43" stroke-linecap="round" stroke-linejoin="round"/>
<path opacity="0.55" d="M546.64 -7.1C504.03 -7.87 461.39 -8.21 418.79 -10.69C397.64 -11.91 376.51 -13.64 355.48 -16.17C332.48 -18.94 309.66 -22.86 286.76 -26.17C256.36 -29.78 225.76 -31.32 195.18 -31.99C172.01 -32.53 148.79 -32.8 125.57 -33C99.8229 -31.6667 74.0696 -30.54 48.3096 -29.62C104.84 62.64 175.31 119.76 209.66 91.38C332.35 -10.21 490.49 139.42 613.56 46.36C636.95 28.67 656.12 12.53 671.28 -2.42C629.71 -3.86 588.12 -6.36 546.64 -7.1Z" stroke="#CAA8E0" stroke-width="0.43" stroke-linecap="round" stroke-linejoin="round"/>
<path opacity="0.56" d="M546.64 -7.1C504.03 -7.87 461.39 -8.21 418.79 -10.69C397.64 -11.91 376.51 -13.64 355.48 -16.17C332.48 -18.94 309.66 -22.86 286.76 -26.17C256.36 -29.78 225.76 -31.32 195.18 -31.99C172.01 -32.53 148.79 -32.8 125.57 -33C99.3401 -31.63 73.1101 -30.44 46.8701 -29.57C101 60.43 168.61 115.93 204 87.95C327.6 -9.71999 481 135.12 603.06 44.84C626.38 27.59 645.51 11.84 660.64 -2.81C622.61 -4.27 584.58 -6.42 546.64 -7.1Z" stroke="#C8A8E1" stroke-width="0.43" stroke-linecap="round" stroke-linejoin="round"/>
<path opacity="0.58" d="M546.64 -7.1C504.03 -7.87 461.39 -8.21 418.79 -10.69C397.64 -11.91 376.51 -13.64 355.48 -16.17C332.48 -18.94 309.66 -22.86 286.76 -26.17C256.36 -29.78 225.76 -31.32 195.18 -31.99C172.01 -32.53 148.79 -32.8 125.57 -33C98.79 -31.6 72.06 -30.39 45.29 -29.51C97.07 58.25 161.94 112.07 198.35 84.58C322.73 -9.37 471.5 130.79 592.56 43.33C615.85 26.5 634.95 11.09 650.04 -3.21C615.55 -4.66 581.06 -6.49 546.64 -7.1Z" stroke="#C7A8E2" stroke-width="0.43" stroke-linecap="round" stroke-linejoin="round"/>
<path opacity="0.59" d="M546.64 -7.1C504.03 -7.87 461.39 -8.21 418.79 -10.69C397.64 -11.91 376.51 -13.64 355.48 -16.17C332.48 -18.94 309.66 -22.86 286.76 -26.17C256.36 -29.78 225.76 -31.32 195.18 -31.99C172.01 -32.53 148.79 -32.8 125.57 -33C98.2503 -31.57 70.9203 -30.33 43.5703 -29.45C93.0603 56.03 155.3 108.19 192.69 81.2C317.79 -9.10999 462 126.52 582.06 41.79C605.33 25.37 624.41 10.32 639.49 -3.71C608.51 -5.02 577.55 -6.55 546.64 -7.1Z" stroke="#C5A7E3" stroke-width="0.43" stroke-linecap="round" stroke-linejoin="round"/>
<path opacity="0.6" d="M546.64 -7.1C504.03 -7.87 461.39 -8.21 418.79 -10.69C397.64 -11.91 376.51 -13.64 355.48 -16.17C332.48 -18.94 309.66 -22.86 286.76 -26.17C256.36 -29.78 225.76 -31.32 195.18 -31.99C172.01 -32.53 148.79 -32.8 125.57 -33C97.6305 -31.54 69.6905 -30.27 41.7305 -29.39C88.9705 53.79 148.69 104.29 187.03 77.79C312.69 -8.96 452.48 122.21 571.55 40.31C594.83 24.31 613.9 9.6 628.96 -4.14C601.5 -5.35 574.05 -6.61 546.64 -7.1Z" stroke="#C4A7E4" stroke-width="0.43" stroke-linecap="round" stroke-linejoin="round"/>
<path opacity="0.62" d="M546.64 -7.1C504.03 -7.87 461.39 -8.21 418.79 -10.69C397.64 -11.91 376.51 -13.64 355.48 -16.17C332.48 -18.94 309.66 -22.86 286.76 -26.17C256.36 -29.78 225.76 -31.32 195.18 -31.99C172.01 -32.53 148.79 -32.8 125.57 -33C97.2497 -31.52 68.9297 -30.23 40.5697 -29.35H39.7197C84.7897 51.57 142.11 100.37 181.37 74.44C307.54 -8.89 442.96 117.9 561.05 38.79C584.34 23.18 603.41 8.79 618.47 -4.61C594.5 -5.66 570.55 -6.67 546.64 -7.1Z" stroke="#C2A7E5" stroke-width="0.43" stroke-linecap="round" stroke-linejoin="round"/>
<path opacity="0.63" d="M546.64 -7.1C504.03 -7.87 461.39 -8.21 418.79 -10.69C397.64 -11.91 376.51 -13.64 355.48 -16.17C332.48 -18.94 309.66 -22.86 286.76 -26.17C256.36 -29.78 225.76 -31.32 195.18 -31.99C172.01 -32.53 148.79 -32.8 125.57 -33C97.2503 -31.52 68.9303 -30.23 40.5703 -29.35L37.5703 -29.27C80.5003 49.31 135.51 96.42 175.65 71.06C302.25 -8.94 433.36 113.59 550.48 37.28C573.79 22.1 592.87 8.1 607.92 -5.06C587.52 -5.94 567.07 -6.74 546.64 -7.1Z" stroke="#C1A6E6" stroke-width="0.43" stroke-linecap="round" stroke-linejoin="round"/>
<path opacity="0.65" d="M546.64 -7.1C504.03 -7.87 461.39 -8.21 418.79 -10.69C397.64 -11.91 376.51 -13.64 355.48 -16.17C332.48 -18.94 309.66 -22.86 286.76 -26.17C256.36 -29.78 225.76 -31.32 195.18 -31.99C172.01 -32.53 148.79 -32.8 125.57 -33C97.2504 -31.52 68.9304 -30.23 40.5704 -29.35L35.4004 -29.21C76.2604 47.02 129.09 92.43 170.06 67.67C297.06 -9.05 423.9 109.26 540.06 35.76C563.39 21 582.47 7.36 597.52 -5.51C580.54 -6.21 563.58 -6.8 546.64 -7.1Z" stroke="#BFA6E7" stroke-width="0.43" stroke-linecap="round" stroke-linejoin="round"/>
<path opacity="0.66" d="M546.64 -7.1C504.03 -7.87 461.39 -8.21 418.79 -10.69C397.64 -11.91 376.51 -13.64 355.48 -16.17C332.48 -18.94 309.66 -22.86 286.76 -26.17C256.36 -29.78 225.76 -31.32 195.18 -31.99C172.01 -32.53 148.79 -32.8 125.57 -33C97.25 -31.52 68.93 -30.23 40.57 -29.35L33 -29.13C71.88 44.73 122.62 88.43 164.37 64.3C291.66 -9.25 414.37 104.95 529.52 34.3C552.87 19.98 571.95 6.69 587 -5.88C573.56 -6.43 560.09 -6.86 546.64 -7.1Z" stroke="#BEA6E8" stroke-width="0.43" stroke-linecap="round" stroke-linejoin="round"/>
<path opacity="0.68" d="M546.64 -7.1C504.03 -7.87 461.39 -8.21 418.79 -10.69C397.64 -11.91 376.51 -13.64 355.48 -16.17C332.48 -18.94 309.66 -22.86 286.76 -26.17C256.36 -29.78 225.76 -31.32 195.18 -31.99C172.01 -32.53 148.79 -32.8 125.57 -33C97.25 -31.52 68.93 -30.23 40.57 -29.35L30.51 -29.06C67.51 42.41 116.23 84.39 158.71 60.94C286.31 -9.53 404.79 100.62 519.05 32.79C542.4 18.92 561.49 6.01 576.54 -6.21C566.57 -6.64 556.6 -6.93 546.64 -7.1Z" stroke="#BCA6E9" stroke-width="0.43" stroke-linecap="round" stroke-linejoin="round"/>
<path opacity="0.69" d="M546.64 -7.1C504.03 -7.87 461.39 -8.21 418.79 -10.69C397.64 -11.91 376.51 -13.64 355.48 -16.17C332.48 -18.94 309.66 -22.86 286.76 -26.17C256.36 -29.78 225.76 -31.32 195.18 -31.99C172.01 -32.53 148.79 -32.8 125.57 -33C97.2504 -31.52 68.9304 -30.23 40.5704 -29.35C36.3504 -29.2167 32.1271 -29.0967 27.9004 -28.99C63.0204 40.06 109.9 80.32 153.05 57.54C280.86 -9.9 395.21 96.28 508.52 31.24C531.86 17.84 550.94 5.32 565.99 -6.64C559.55 -6.83333 553.1 -6.98667 546.64 -7.1Z" stroke="#BBA5EA" stroke-width="0.43" stroke-linecap="round" stroke-linejoin="round"/>
<path opacity="0.71" d="M546.64 -7.1C504.03 -7.87 461.39 -8.21 418.79 -10.69C397.64 -11.91 376.51 -13.64 355.48 -16.17C332.48 -18.94 309.66 -22.86 286.76 -26.17C256.36 -29.78 225.76 -31.32 195.18 -31.99C172.01 -32.53 148.79 -32.8 125.57 -33C97.2497 -31.52 68.9297 -30.23 40.5697 -29.35C35.443 -29.19 30.313 -29.0467 25.1797 -28.92C58.5497 37.69 103.66 76.22 147.43 54.17C275.43 -10.34 385.67 91.94 498.05 29.73C521.35 16.82 540.4 4.73 555.44 -6.92C552.51 -6.99 549.57 -7.05 546.64 -7.1Z" stroke="#B9A5EB" stroke-width="0.43" stroke-linecap="round" stroke-linejoin="round"/>
<path opacity="0.72" d="M418.79 -10.69C397.64 -11.91 376.51 -13.64 355.48 -16.17C332.48 -18.94 309.66 -22.86 286.76 -26.17C256.36 -29.78 225.76 -31.32 195.18 -31.99C172.01 -32.53 148.79 -32.8 125.57 -33C97.2501 -31.52 68.9301 -30.23 40.5701 -29.35C34.4901 -29.1633 28.4134 -28.9967 22.3401 -28.85C54.0301 35.29 97.4601 72.09 141.79 50.79C269.99 -10.85 376.11 87.58 487.57 28.21C510.79 15.84 529.79 4.16 544.79 -7.14C502.79 -7.88 460.79 -8.28 418.79 -10.69Z" stroke="#B8A5EC" stroke-width="0.43" stroke-linecap="round" stroke-linejoin="round"/>
<path opacity="0.74" d="M418.79 -10.69C397.64 -11.91 376.51 -13.64 355.48 -16.17C332.48 -18.94 309.66 -22.86 286.76 -26.17C256.36 -29.78 225.76 -31.32 195.18 -31.99C172.01 -32.53 148.79 -32.8 125.57 -33C97.2496 -31.52 68.9296 -30.23 40.5696 -29.35C33.5096 -29.13 26.4496 -28.94 19.3896 -28.78C49.4396 32.86 91.2996 67.93 136.08 47.41C264.45 -11.43 366.48 83.22 477.01 26.7C500.16 14.87 519.12 3.62 534.13 -7.3C495.7 -7.96 457.23 -8.48 418.79 -10.69Z" stroke="#B6A4ED" stroke-width="0.43" stroke-linecap="round" stroke-linejoin="round"/>
<path opacity="0.75" d="M418.79 -10.69C397.64 -11.91 376.51 -13.64 355.48 -16.17C332.48 -18.94 309.66 -22.86 286.76 -26.17C256.36 -29.78 225.76 -31.32 195.18 -31.99C172.01 -32.53 148.79 -32.8 125.57 -33C97.2501 -31.52 68.9301 -30.23 40.5701 -29.35C32.4901 -29.0967 24.4134 -28.8833 16.3401 -28.71C44.9101 30.41 85.2901 63.79 130.45 44.03C258.99 -12.08 356.91 78.84 466.54 25.19C489.61 13.9 508.54 3.1 523.54 -7.5C488.6 -8.07 453.69 -8.69 418.79 -10.69Z" stroke="#B5A4EE" stroke-width="0.43" stroke-linecap="round" stroke-linejoin="round"/>
<path opacity="0.77" d="M418.79 -10.69C397.64 -11.91 376.51 -13.64 355.48 -16.17C332.48 -18.94 309.66 -22.86 286.76 -26.17C256.36 -29.78 225.76 -31.32 195.18 -31.99C172.01 -32.53 148.79 -32.8 125.57 -33C97.2504 -31.52 68.9304 -30.23 40.5704 -29.35C31.4504 -29.07 22.3238 -28.8333 13.1904 -28.64C40.3404 27.93 79.3304 59.53 124.79 40.65C253.47 -12.79 347.29 74.46 456.03 23.65C479.03 12.91 497.88 2.55 512.88 -7.71C481.52 -8.21 450.15 -8.89 418.79 -10.69Z" stroke="#B3A4EF" stroke-width="0.43" stroke-linecap="round" stroke-linejoin="round"/>
<path opacity="0.78" d="M418.79 -10.69C397.64 -11.91 376.51 -13.64 355.48 -16.17C332.48 -18.94 309.66 -22.86 286.76 -26.17C256.36 -29.78 225.76 -31.32 195.18 -31.99C172.01 -32.53 148.79 -32.8 125.57 -33C97.2499 -31.52 68.93 -30.23 40.57 -29.35C30.3566 -29.03 20.15 -28.7733 9.94995 -28.58C35.74 25.42 73.42 55.3 119.11 37.27C247.95 -13.56 337.66 70.05 445.51 22.17C468.45 11.98 487.29 2.05 502.3 -7.83C474.48 -8.38 446.64 -9.09 418.79 -10.69Z" stroke="#B2A3F0" stroke-width="0.43" stroke-linecap="round" stroke-linejoin="round"/>
<path opacity="0.8" d="M418.79 -10.69C397.64 -11.91 376.51 -13.64 355.48 -16.17C332.48 -18.94 309.66 -22.86 286.76 -26.17C256.36 -29.78 225.76 -31.32 195.18 -31.99C172.01 -32.53 148.79 -32.8 125.57 -33C97.2501 -31.52 68.9301 -30.23 40.5701 -29.35C29.2368 -29.0033 17.9201 -28.7267 6.62012 -28.52C31.1801 22.88 67.6201 51.04 113.45 33.89C242.45 -14.39 328.04 65.64 435.01 20.65C457.95 11.02 476.79 1.52 491.79 -8.08C467.48 -8.58 443.14 -9.29 418.79 -10.69Z" stroke="#B0A3F1" stroke-width="0.43" stroke-linecap="round" stroke-linejoin="round"/>
<path opacity="0.81" d="M418.79 -10.69C397.64 -11.91 376.51 -13.64 355.48 -16.17C332.48 -18.94 309.66 -22.86 286.76 -26.17C256.36 -29.78 225.76 -31.32 195.18 -31.99C172.01 -32.53 148.79 -32.8 125.57 -33C97.2497 -31.52 68.9297 -30.23 40.5697 -29.35C28.1164 -28.9567 15.6664 -28.66 3.21973 -28.46C26.6697 20.32 61.9997 46.79 107.79 30.51C237.01 -15.27 318.43 61.2 424.54 19.14C447.45 10.06 466.31 0.98 481.38 -8.3C460.52 -8.8 439.66 -9.49 418.79 -10.69Z" stroke="#AFA3F2" stroke-width="0.43" stroke-linecap="round" stroke-linejoin="round"/>
<path opacity="0.82" d="M418.79 -10.69C397.64 -11.91 376.51 -13.64 355.48 -16.17C332.48 -18.94 309.66 -22.86 286.76 -26.17C256.36 -29.78 225.76 -31.32 195.18 -31.99C172.01 -32.53 148.79 -32.8 125.57 -33C97.25 -31.52 68.93 -30.23 40.57 -29.35C26.97 -28.93 13.3667 -28.5967 -0.23999 -28.35C22.17 17.72 56.45 42.45 102.17 27.14C231.54 -16.21 308.79 56.79 414.04 17.63C437.04 9.09 455.91 0.43 471.04 -8.57C453.63 -9.05 436.22 -9.69 418.79 -10.69Z" stroke="#ADA3F3" stroke-width="0.43" stroke-linecap="round" stroke-linejoin="round"/>
<path opacity="0.84" d="M418.79 -10.69C397.64 -11.91 376.51 -13.64 355.48 -16.17C332.48 -18.94 309.66 -22.86 286.76 -26.17C256.36 -29.78 225.76 -31.32 195.18 -31.99C172.01 -32.53 148.79 -32.8 125.57 -33C97.25 -31.52 68.93 -30.23 40.57 -29.35C25.8033 -28.89 11.0333 -28.5567 -3.73999 -28.35C17.79 15.09 51.01 38.13 96.51 23.79C226.08 -17.15 299.15 52.3 403.51 16.15C426.58 8.15 445.58 -0.109999 460.8 -8.85C446.79 -9.32 432.79 -9.89 418.79 -10.69Z" stroke="#ACA2F4" stroke-width="0.43" stroke-linecap="round" stroke-linejoin="round"/>
<path opacity="0.85" d="M418.79 -10.69C397.64 -11.91 376.51 -13.64 355.48 -16.17C332.48 -18.94 309.66 -22.86 286.76 -26.17C256.36 -29.78 225.76 -31.32 195.18 -31.99C172.01 -32.53 148.79 -32.8 125.57 -33C97.25 -31.52 68.93 -30.23 40.57 -29.35C24.6434 -28.8567 8.71671 -28.5033 -7.20996 -28.29C13.35 12.44 45.69 33.79 90.85 20.38C220.65 -18.21 289.5 47.79 393.04 14.61C416.27 7.17 435.41 -0.719999 450.79 -9.21C440.123 -9.59667 429.457 -10.09 418.79 -10.69Z" stroke="#AAA2F5" stroke-width="0.43" stroke-linecap="round" stroke-linejoin="round"/>
<path opacity="0.87" d="M418.79 -10.69C397.64 -11.91 376.51 -13.64 355.48 -16.17C332.48 -18.94 309.66 -22.86 286.76 -26.17C256.36 -29.78 225.76 -31.32 195.18 -31.99C172.01 -32.53 148.79 -32.8 125.57 -33C97.2499 -31.52 68.9299 -30.23 40.5699 -29.35C23.4499 -28.8233 6.31659 -28.4433 -10.8301 -28.21C9.04992 9.79 40.5199 29.5 85.1699 17.04C215.17 -19.23 279.82 43.28 382.51 13.14C406 6.24 425.34 -1.29 440.85 -9.58C433.52 -9.93 426.17 -10.27 418.79 -10.69Z" stroke="#A9A2F6" stroke-width="0.43" stroke-linecap="round" stroke-linejoin="round"/>
<path opacity="0.88" d="M418.79 -10.69C397.64 -11.91 376.51 -13.64 355.48 -16.17C332.48 -18.94 309.66 -22.86 286.76 -26.17C256.36 -29.78 225.76 -31.32 195.18 -31.99C172.01 -32.53 148.79 -32.8 125.57 -33C97.2503 -31.52 68.9303 -30.23 40.5703 -29.35C22.2503 -28.7767 3.91698 -28.3933 -14.4297 -28.2C4.86031 7.07 35.4903 25.11 79.5403 13.62C209.86 -20.38 270.18 38.69 372.03 11.62C395.85 5.28 415.45 -1.89 431.16 -10.02C427.05 -10.21 422.94 -10.46 418.79 -10.69Z" stroke="#A7A1F7" stroke-width="0.43" stroke-linecap="round" stroke-linejoin="round"/>
<path opacity="0.9" d="M418.79 -10.69C397.64 -11.91 376.51 -13.64 355.48 -16.17C332.48 -18.94 309.66 -22.86 286.76 -26.17C256.36 -29.78 225.76 -31.32 195.18 -31.99C172.01 -32.53 148.79 -32.8 125.57 -33C97.2503 -31.52 68.9303 -30.23 40.5703 -29.35C21.0903 -28.7433 1.59031 -28.3633 -17.9297 -28.21C0.790312 4.35 30.6203 20.79 73.8803 10.24C204.51 -21.53 260.52 34.11 361.53 10.07C385.79 4.3 405.72 -2.55 421.69 -10.55L418.79 -10.69Z" stroke="#A6A1F8" stroke-width="0.43" stroke-linecap="round" stroke-linejoin="round"/>
<path opacity="0.91" d="M355.52 -16.21C332.52 -18.98 309.7 -22.9 286.8 -26.21C256.4 -29.82 225.8 -31.36 195.22 -32.03C172.01 -32.53 148.79 -32.8 125.57 -33C97.2503 -31.52 68.9303 -30.23 40.5703 -29.35C19.9036 -28.6833 -0.763021 -28.28 -21.4297 -28.14C-3.17969 1.61 25.8803 16.41 68.1703 6.86C199.17 -22.71 250.81 29.49 350.98 8.56C375.75 3.38 396.09 -3.15 412.38 -11.08C393.42 -12.27 374.43 -13.9 355.52 -16.21Z" stroke="#A4A1F9" stroke-width="0.43" stroke-linecap="round" stroke-linejoin="round"/>
<path opacity="0.93" d="M355.52 -16.21C332.52 -18.98 309.7 -22.9 286.8 -26.21C256.4 -29.82 225.8 -31.36 195.22 -32.03C172.01 -32.53 148.79 -32.8 125.57 -33C97.25 -31.52 68.93 -30.23 40.57 -29.35C18.8033 -28.6833 -2.97 -28.27 -24.75 -28.11C-6.83 -1.16 21.43 12.06 62.56 3.48C193.91 -23.92 241.2 24.84 340.56 7.05C365.98 2.5 386.83 -3.75 403.49 -11.68C387.45 -12.8 371.46 -14.21 355.52 -16.21Z" stroke="#A3A0FA" stroke-width="0.43" stroke-linecap="round" stroke-linejoin="round"/>
<path opacity="0.94" d="M355.52 -16.21C332.52 -18.98 309.7 -22.9 286.8 -26.21C256.4 -29.82 225.8 -31.36 195.22 -32.03C172.01 -32.53 148.79 -32.8 125.57 -33C97.2503 -31.52 68.9304 -30.23 40.5704 -29.35C17.7637 -28.6367 -5.05631 -28.2133 -27.8896 -28.08C-10.3096 -3.93 17.1104 7.73 56.9004 0.100002C188.66 -25.16 231.55 20.1 330.03 5.54C356.23 1.65 377.69 -4.33 394.8 -12.32C381.68 -13.34 368.587 -14.6367 355.52 -16.21Z" stroke="#A1A0FB" stroke-width="0.43" stroke-linecap="round" stroke-linejoin="round"/>
<path opacity="0.96" d="M355.52 -16.21C332.52 -18.98 309.7 -22.9 286.8 -26.21C256.4 -29.82 225.8 -31.36 195.22 -32.03C172.01 -32.53 148.79 -32.8 125.57 -33C97.2499 -31.52 68.9299 -30.23 40.5699 -29.35C16.7832 -28.59 -7.02009 -28.1633 -30.8401 -28.07C-13.5101 -6.72 13.0999 3.41 51.2499 -3.27C183.45 -26.44 221.91 15.42 319.53 4.02C346.63 0.86 368.79 -4.88 386.43 -12.98C376.11 -13.88 365.807 -14.9567 355.52 -16.21Z" stroke="#A0A0FC" stroke-width="0.43" stroke-linecap="round" stroke-linejoin="round"/>
<path opacity="0.97" d="M355.52 -16.21C332.52 -18.98 309.7 -22.9 286.8 -26.21C256.4 -29.82 225.8 -31.36 195.22 -32.03C172.01 -32.53 148.79 -32.8 125.57 -33C97.2503 -31.52 68.9303 -30.23 40.5703 -29.35C15.9036 -28.5833 -8.76302 -28.1533 -33.4297 -28.06C-16.3297 -9.53 9.33031 -0.889999 45.5703 -6.65C178.26 -27.73 212.27 10.65 309.01 2.51C337.13 0.150002 360.1 -5.37 378.36 -13.73C370.747 -14.45 363.134 -15.2767 355.52 -16.21Z" stroke="#9EA0FD" stroke-width="0.43" stroke-linecap="round" stroke-linejoin="round"/>
<path opacity="0.99" d="M355.52 -16.21C332.52 -18.98 309.7 -22.9 286.8 -26.21C256.4 -29.82 225.8 -31.36 195.22 -32.03C172.01 -32.53 148.79 -32.8 125.57 -33C97.25 -31.52 68.93 -30.23 40.57 -29.35C15.2166 -28.59 -10.1534 -28.1567 -35.54 -28.05C-18.69 -12.34 5.87996 -5.21 39.93 -10.03C173.14 -29.03 202.68 5.84 298.52 0.970001C327.79 -0.509999 351.68 -5.82 370.65 -14.52C365.603 -15.02 360.56 -15.5833 355.52 -16.21Z" stroke="#9D9FFE" stroke-width="0.43" stroke-linecap="round" stroke-linejoin="round"/>
<path d="M355.52 -16.21C332.52 -18.98 309.7 -22.9 286.8 -26.21C256.4 -29.82 225.8 -31.36 195.22 -32.03C172.01 -32.53 148.79 -32.8 125.57 -33C97.25 -31.52 68.93 -30.23 40.57 -29.35C14.7167 -28.55 -11.14 -28.1167 -37 -28.05C-20.47 -15.15 2.79 -9.42 34.27 -13.41C168.05 -30.41 193.1 0.990002 288.02 -0.509998C318.54 -0.989998 343.46 -6.13 363.26 -15.28C360.67 -15.56 358.1 -15.86 355.52 -16.21Z" stroke="#9B9FFF" stroke-width="0.43" stroke-linecap="round" stroke-linejoin="round"/>
</g>
<defs>
<clipPath id="clip0_22148_3663">
<rect width="748" height="267" fill="white"/>
</clipPath>
</defs>
</svg>
