<svg width="214" height="80" viewBox="0 0 214 80" fill="none" xmlns="http://www.w3.org/2000/svg">
<path d="M122.745 46.9497L118.971 58.6128L115.196 46.9497H110.478L106.628 58.509L102.976 46.9497H97.5601L103.495 65.1803H109.025L112.667 54.14L116.206 65.1803H121.736L127.671 46.9497H122.745ZM197.763 31.8519H201.311L205.576 37.891H212.558L207.576 30.6912C208.966 30.0515 210.154 29.043 211.011 27.7754C211.784 26.447 212.182 24.9338 212.162 23.3971C212.21 21.8101 211.772 20.2463 210.907 18.9149C210.036 17.5949 208.809 16.5482 207.369 15.8953C205.628 15.1445 203.743 14.7899 201.848 14.8574H191.204V37.8816H197.81L197.763 31.8519ZM197.763 20.1794H201.414C202.486 20.1081 203.55 20.4007 204.434 21.0097C204.782 21.3228 205.056 21.7098 205.236 22.1425C205.416 22.5751 205.496 23.0425 205.472 23.5103C205.487 23.977 205.402 24.4416 205.223 24.8729C205.044 25.3042 204.775 25.6922 204.434 26.0109C203.552 26.6267 202.487 26.923 201.414 26.8507H197.763V20.1794ZM133.163 46.9591L125.038 65.1897H130.351L131.813 61.6512H139.523L140.976 65.1897H146.402L138.268 46.9591H133.163ZM133.267 57.7918L135.663 51.9603L138.06 57.7918H133.267ZM103.571 36.9568C105.611 38.0121 107.88 38.5469 110.176 38.5138C112.474 38.5593 114.746 38.0238 116.782 36.9568C118.698 36.0183 120.291 34.5302 121.358 32.6822C122.504 30.8421 123.085 28.7063 123.028 26.5393C123.072 24.3709 122.493 22.2355 121.358 20.3869C120.234 18.5857 118.655 17.1116 116.782 16.1124C114.725 15.124 112.456 14.6604 110.176 14.763C107.879 14.7174 105.606 15.253 103.571 16.32C101.683 17.2513 100.097 18.6971 98.9944 20.4907C97.9066 22.3517 97.3333 24.4686 97.3333 26.6242C97.3333 28.7799 97.9066 30.8967 98.9944 32.7577C100.094 34.5584 101.68 36.0109 103.571 36.9474V36.9568ZM104.722 23.0857C105.232 22.1037 106.033 21.3029 107.015 20.7927C108 20.2394 109.113 19.9532 110.242 19.9623C111.371 19.9649 112.48 20.2504 113.469 20.7927C114.407 21.3619 115.193 22.1484 115.762 23.0857C116.307 24.1524 116.595 25.332 116.602 26.5299C116.608 27.7263 116.319 28.9058 115.762 29.9646C115.183 30.9295 114.355 31.7213 113.366 32.2576C112.381 32.8121 111.268 33.0984 110.139 33.088C109.023 33.1086 107.923 32.8297 106.952 32.2803C105.981 31.731 105.175 30.9313 104.618 29.9646C104.11 28.9295 103.861 27.7864 103.892 26.6337C103.82 25.3957 104.109 24.1634 104.722 23.0857ZM162.028 14.9612H155.772L150.874 29.757L146.298 14.9612H140.249L135.352 29.6532L130.634 14.9612H123.868L131.417 37.9853H138.494L143.08 23.9255L147.562 37.9853H154.545L162.028 14.9612ZM187.034 57.7729H194.583V53.923H187.034V50.7902H195.677V46.7326H181.825V64.9633H195.979V61.0001H187.024L187.034 57.7729ZM197.413 46.9402V51.1016H203.075V65.2558H208.284V51.0072H213.813V46.8459H197.451L197.413 46.9402ZM186.477 14.9517H180.013V27.2187L169.699 14.9517H164.283V37.957H170.775V25.7938L181.089 38.0608H186.515L186.477 14.9517ZM170.775 46.9497H165.566V65.1803H179.532V61.0095H170.775V46.9497ZM153.583 46.9497H148.374V65.1803H162.339V61.0095H153.583V46.9497Z" fill="url(#paint0_radial_22887_967)"/>
<path d="M40.0042 0.0145558C47.5363 -0.090299 55.0656 0.37147 62.5285 1.39595C66.5132 2.14981 70.1783 4.08698 73.0459 6.95486C75.9135 9.82273 77.8505 13.4882 78.6043 17.4733C79.6284 24.937 80.0901 32.4671 79.9855 40C80.0901 47.5329 79.6284 55.063 78.6043 62.5267C77.8505 66.5118 75.9135 70.1773 73.0459 73.0451C70.1783 75.913 66.5132 77.8502 62.5285 78.6041C55.0656 79.6285 47.5363 80.0903 40.0042 79.9855C32.4748 80.0896 24.9483 79.6278 17.4881 78.6041C13.5034 77.8502 9.83831 75.913 6.97072 73.0451C4.10314 70.1773 2.16615 66.5118 1.41237 62.5267C0.382709 55.0634 -0.0845646 47.5333 0.0144832 40C-0.0900782 32.4671 0.371642 24.937 1.39574 17.4733C2.15063 13.486 4.09006 9.81884 6.96084 6.95073C9.83163 4.08262 13.5004 2.14679 17.4881 1.39595C24.9483 0.372167 32.4748 -0.089599 40.0042 0.0145558Z" fill="url(#paint1_radial_22887_967)"/>
<path d="M45.8962 50.4769V56.818H51.3879V50.4769C51.3879 49.5808 51.7439 48.7215 52.3774 48.0879C53.0109 47.4543 53.8702 47.0983 54.7662 47.0983V41.606C52.4144 41.6082 50.1596 42.5435 48.4966 44.2067C46.8336 45.8698 45.8984 48.1249 45.8962 50.4769ZM34.1306 41.606C31.7789 41.6082 29.524 42.5435 27.8611 44.2067C26.1981 45.8698 25.2629 48.1249 25.2607 50.4769V56.818H30.8023V50.4769C30.8023 49.5808 31.1582 48.7215 31.7918 48.0879C32.4253 47.4543 33.2846 47.0983 34.1806 47.0983C35.0765 47.0983 35.9358 47.4543 36.5693 48.0879C37.2029 48.7215 37.5588 49.5808 37.5588 50.4769V56.818H43.0505V50.4769C43.0494 49.308 42.8176 48.1509 42.3683 47.0719C41.9191 45.9929 41.2612 45.0132 40.4325 44.189C39.6038 43.3648 38.6205 42.7124 37.5391 42.2691C36.4576 41.8259 35.2993 41.6005 34.1306 41.606ZM49.7571 30.0556C49.7571 30.9517 49.4011 31.811 48.7676 32.4446C48.1341 33.0782 47.2748 33.4342 46.3788 33.4342C45.4829 33.4342 44.6236 33.0782 43.9901 32.4446C43.3565 31.811 43.0006 30.9517 43.0006 30.0556V23.7145H37.5089V30.0556C37.5089 30.9517 37.153 31.811 36.5194 32.4446C35.8859 33.0782 35.0266 33.4342 34.1306 33.4342C33.2347 33.4342 32.3754 33.0782 31.7419 32.4446C31.1083 31.811 30.7524 30.9517 30.7524 30.0556V23.7145H25.2607V30.0556C25.2597 31.791 25.7686 33.4885 26.7242 34.937C27.6799 36.3855 29.0401 37.5213 30.6358 38.2031C32.2315 38.8849 33.9924 39.0827 35.6996 38.7719C37.4068 38.4611 38.985 37.6554 40.2381 36.4549C41.4912 37.6554 43.0694 38.4611 44.7766 38.7719C46.4838 39.0827 48.2447 38.8849 49.8404 38.2031C51.4361 37.5213 52.7963 36.3855 53.7519 34.937C54.7076 33.4885 55.2165 31.791 55.2155 30.0556V23.7145H49.7238L49.7571 30.0556ZM40.0051 9.03516C33.8815 9.03516 27.8954 10.8512 22.8038 14.2537C17.7121 17.6561 13.7437 22.4922 11.4003 28.1502C9.05687 33.8083 8.44373 40.0343 9.63839 46.0409C10.8331 52.0475 13.7819 57.5649 18.1119 61.8954C22.442 66.2259 27.9588 69.175 33.9648 70.3698C39.9708 71.5645 46.1961 70.9513 51.8536 68.6077C57.5111 66.264 62.3467 62.2952 65.7488 57.2031C69.1509 52.1109 70.9667 46.1242 70.9667 40C70.9667 31.7876 67.7047 23.9116 61.8983 18.1045C56.0918 12.2975 48.2166 9.03516 40.0051 9.03516ZM40.0051 65.4974C34.9627 65.4974 30.0335 64.002 25.8409 61.2003C21.6483 58.3986 18.3806 54.4165 16.4509 49.7574C14.5213 45.0984 14.0164 39.9717 15.0001 35.0256C15.9838 30.0796 18.412 25.5364 21.9775 21.9705C25.543 18.4046 30.0858 15.9762 35.0313 14.9924C39.9768 14.0086 45.103 14.5135 49.7616 16.4433C54.4202 18.3732 58.4019 21.6413 61.2033 25.8343C64.0047 30.0274 65.5 34.957 65.5 40C65.5 46.7623 62.8139 53.2477 58.0327 58.0294C53.2515 62.8111 46.7668 65.4974 40.0051 65.4974Z" fill="url(#paint2_radial_22887_967)"/>
<defs>
<radialGradient id="paint0_radial_22887_967" cx="0" cy="0" r="1" gradientUnits="userSpaceOnUse" gradientTransform="translate(108.876 19.2449) scale(132.042 57.2605)">
<stop stop-color="#563BFF"/>
<stop offset="1" stop-color="#6A1BB8"/>
</radialGradient>
<radialGradient id="paint1_radial_22887_967" cx="0" cy="0" r="1" gradientUnits="userSpaceOnUse" gradientTransform="translate(7.92754 7.12123) scale(90.6882 90.6975)">
<stop stop-color="#563BFF"/>
<stop offset="1" stop-color="#6A1BB8"/>
</radialGradient>
<radialGradient id="paint2_radial_22887_967" cx="0" cy="0" r="1" gradientUnits="userSpaceOnUse" gradientTransform="translate(20.859 18.3221) scale(60.5171 60.5232)">
<stop stop-color="white"/>
<stop offset="0.36" stop-color="#F5F7FA"/>
<stop offset="0.97" stop-color="#DBE3EE"/>
<stop offset="1" stop-color="#DAE2ED"/>
</radialGradient>
</defs>
</svg>
