<svg width="1110" height="14" viewBox="0 0 1110 14" fill="none" xmlns="http://www.w3.org/2000/svg">
<path fill-rule="evenodd" clip-rule="evenodd" d="M410.213 2.96942L413.035 0.0610303L413.071 0.0971606L413.107 0.0610146L413.169 0.122813L413.23 0.0609926L413.255 0.0861188L413.28 0.0610193L413.341 0.122787L413.403 0.0608512L421.062 7.75821L428.721 0.0608811L428.757 0.097008L428.854 0L428.94 0.0866024L428.966 0.0608732L429.027 0.122794L429.089 0.0609989L436.748 7.75837L444.408 0.0610287L444.504 0.158035L444.601 0.0610115L444.626 0.0867458L444.652 0.0610162L444.713 0.122816L444.775 0.0609973L452.434 7.75837L460.094 0.0610272L460.19 0.158022L460.287 0.0608607L460.312 0.0865958L460.338 0.0608669L460.4 0.122661L460.461 0.060845L468.12 7.7582L475.78 0.0608764L475.867 0.148728L475.952 0.0610303L475.963 0.0714412L475.973 0.0610083L475.999 0.0867435L476.024 0.0610146L476.086 0.122807L476.147 0.0609926L480.973 5.03442L483.745 7.82019L491.466 0.061024L491.552 0.147638L491.639 0.0608811L491.649 0.0712627L491.659 0.0608575L491.685 0.0865945L491.771 0L499.492 7.75916L507.152 0.0608732L507.239 0.147612L507.325 0.0610287L507.335 0.0714409L507.345 0.0610052L507.432 0.147608L507.518 0.0610115L515.178 7.7593L522.838 0.0610209L522.925 0.147636L523.011 0.0610272L523.021 0.0714241L523.031 0.0610036L523.118 0.147605L523.204 0.0608607L530.864 7.75917L538.524 0.0610193L538.611 0.147609L538.697 0.0608764L538.707 0.0713046L538.718 0.0608544L538.804 0.147604L538.89 0.0610083L546.55 7.75915L554.211 0.0608732L554.297 0.147634L554.383 0.061024L554.393 0.0714209L554.404 0.0610005L554.49 0.147602L554.576 0.0608575L562.237 7.75914L569.897 0.0610162L569.983 0.14763L570.069 0.0608732L570.08 0.0712403L570.09 0.0608512L570.176 0.147601L570.262 0.0610052L577.923 7.75912L585.583 0.0608669L585.669 0.147629L585.755 0.0610209L585.766 0.0714491L585.776 0.0609989L585.862 0.147601L585.948 0.0610036L593.609 7.75931L601.269 0.0610146L601.355 0.147629L601.441 0.0610193L601.452 0.071417L601.462 0.0609973L601.548 0.147599L601.635 0.0608544L609.295 7.75912L617.016 0L617.102 0.0865903L617.128 0.0608732L617.138 0.0712678L617.148 0.060845L617.235 0.147596L617.321 0.0610005L625.042 7.82017L627.814 5.03376L632.64 0.0610303L632.701 0.122787L632.763 0.0610115L632.788 0.086758L632.814 0.0610162L632.824 0.0714436L632.835 0.0609926L632.92 0.148672L633.007 0.0608512L640.666 7.75821L648.326 0.0608811L648.387 0.122646L648.449 0.0608607L648.474 0.0865836L648.5 0.0608669L648.597 0.158021L648.693 0.0609989L656.353 7.75837L664.012 0.0610287L664.073 0.122797L664.135 0.0610083L664.16 0.0867556L664.186 0.0610146L664.283 0.158044L664.379 0.0609973L672.039 7.75837L679.698 0.0610272L679.759 0.122808L679.821 0.0608575L679.847 0.0866067L679.933 0L680.029 0.0969802L680.065 0.060845L687.725 7.7582L695.384 0.0608764L695.446 0.122808L695.507 0.0610052L695.532 0.0861485L695.557 0.0610303L695.618 0.12281L695.68 0.0610115L695.716 0.0971569L695.752 0.0609926L698.576 2.97211L703.375 7.79458L711.07 0.061024L711.132 0.122806L711.193 0.0610036L711.218 0.0858364L711.243 0.0608811L711.304 0.122648L711.366 0.0608607L719.061 7.79437L726.757 0.0608732L726.818 0.122635L726.879 0.0608544L726.904 0.0858285L726.929 0.0610287L726.99 0.1228L727.052 0.0610083L734.747 7.7945L742.443 0.0610209L742.504 0.122781L742.566 0.0610005L742.59 0.0858429L742.615 0.0610272L742.677 0.122812L742.738 0.0608575L750.433 7.79441L758.129 0.0610193L758.19 0.12278L758.252 0.0608512L758.276 0.0856662L758.301 0.0608764L758.363 0.122822L758.424 0.0610052L766.12 7.79438L773.815 0.0608732L773.876 0.122837L773.938 0.0609989L773.963 0.0858068L773.987 0.061024L774.049 0.122796L774.11 0.0610036L781.806 7.79453L789.501 0.0610162L789.562 0.122777L789.624 0.0609973L789.649 0.0858511L789.674 0.0608732L789.735 0.122641L789.797 0.0608544L797.492 7.79438L805.187 0.0608669L805.249 0.122666L805.31 0.060845L805.335 0.0857929L805.36 0.0610209L805.421 0.122813L805.483 0.0610005L813.178 7.79451L820.873 0.0610146L820.935 0.122766L820.996 0.0609926L821.021 0.0858519L821.046 0.0610193L821.107 0.122813L821.169 0.0608512L828.864 7.79438L836.62 0L836.706 0.0865903L836.732 0.0608732L836.794 0.122776L836.855 0.0609989L844.611 7.85537L852.367 0.0610115L852.393 0.086758L852.418 0.0610162L852.48 0.122816L852.541 0.0609973L860.297 7.85533L868.053 0.0608607L868.079 0.0865836L868.104 0.0608669L868.166 0.122635L868.227 0.060845L875.983 7.85536L883.739 0.0610083L883.765 0.0867556L883.79 0.0610146L883.852 0.122782L883.913 0.0609926L890.396 6.57538V6.699L891.608 7.91718L899.425 0.0608575L899.451 0.0866067L899.537 0L907.355 7.85629L915.112 0.0610052L915.198 0.147596L915.284 0.0610115L923.041 7.85631L930.798 0.0610036L930.884 0.147617L930.97 0.0608607L938.727 7.85614L946.484 0.0608544L946.57 0.147592L946.656 0.0610083L954.413 7.85629L962.17 0.0610005L962.256 0.147614L962.342 0.0608575L970.099 7.85616L977.856 0.0608512L977.942 0.147613L978.029 0.0610052L985.785 7.85628L993.542 0.0609989L993.628 0.147589L993.715 0.0610036L1001.47 7.85631L1009.23 0.0609973L1009.31 0.147611L1009.4 0.0608544L1017.16 7.85616L1024.91 0.060845L1025 0.147584L1025.09 0.0610005L1032.84 7.85628L1040.6 0.0609926L1040.69 0.147631L1040.77 0.0608512L1048.62 7.94289L1056.46 0.0609989L1064.3 7.94289L1072.15 0.0609973L1079.99 7.94289L1087.83 0.060845L1095.67 7.94289L1103.52 0.0609926L1110 6.57538V14H1047.08H890.396H827.479H702.234L690.288 14H627.37H470.683H407.766H282.521H219.604H62.917H0V5.35627L5.26911 0.0610303L13.1121 7.94292L20.9553 0.0608811L28.7984 7.94292L36.6415 0.0610287C39.7044 3.1391 41.4216 4.86485 44.4845 7.94292L52.3275 0.0610272L60.1705 7.94292L68.0137 0.0608764L68.1 0.147626L68.1862 0.0610303L75.943 7.85633L83.6998 0.061024L83.786 0.147626L83.8723 0.0608811L91.6292 7.85617L99.386 0.0608732L99.4723 0.147624L99.5585 0.0610287L107.315 7.85632L115.072 0.0610209L115.158 0.147624L115.245 0.0610272L123.001 7.85631L130.758 0.0610193L130.844 0.147627L130.931 0.0608764L138.688 7.85617L146.444 0.0608732L146.531 0.147628L146.617 0.061024L154.374 7.8563L162.131 0.0610162L162.217 0.14763L162.303 0.0608732L170.06 7.85615L177.817 0.0608669L177.903 0.147629L177.989 0.0610209L185.746 7.85631L193.503 0.0610146L193.589 0.147623L193.675 0.0610193L201.432 7.8563L209.25 0L209.336 0.0866024L209.361 0.0608732L217.179 7.91719L219.604 5.47982V5.35627L224.873 0.0610303L224.935 0.122799L224.996 0.0610115L225.022 0.0867458L225.048 0.0610162L232.804 7.85541L240.56 0.0608811L240.621 0.122649L240.683 0.0608607L240.708 0.0865958L240.734 0.0608669L248.49 7.8554L256.246 0.0610287L256.307 0.122812L256.369 0.0610083L256.394 0.0867435L256.42 0.0610146L264.176 7.85541L271.932 0.0610272L271.993 0.122797L272.055 0.0608575L272.081 0.0865945L272.167 0L279.923 7.79439L287.618 0.0608764L287.68 0.122803L287.741 0.0610052L287.766 0.0858282L287.79 0.0610303L287.852 0.122807L287.913 0.0610115L295.609 7.79454L303.304 0.061024L303.366 0.122791L303.427 0.0610036L303.452 0.0858438L303.477 0.0608811L303.538 0.122644L303.6 0.0608607L311.295 7.79439L318.99 0.0608732L319.052 0.122654L319.113 0.0608544L319.138 0.0858167L319.163 0.0610287L319.224 0.12282L319.286 0.0610083L326.981 7.79453L334.676 0.0610209L334.738 0.122803L334.799 0.0610005L334.824 0.0858242L334.849 0.0610272L334.91 0.122807L334.972 0.0608575L342.667 7.79436L350.363 0.0610193L350.424 0.122806L350.486 0.0608512L350.51 0.0856736L350.535 0.0608764L350.597 0.122803L350.658 0.0610052L358.353 7.79438L366.049 0.0608732L366.11 0.122789L366.172 0.0609989L366.197 0.0858382L366.221 0.061024L366.283 0.122789L366.344 0.0610036L374.04 7.79452L381.735 0.0610162L381.796 0.122818L381.858 0.0609973L381.883 0.0858079L381.907 0.0608732L381.969 0.122663L382.03 0.0608544L389.726 7.79437L397.421 0.0608669L397.483 0.122651L397.544 0.060845L397.569 0.0858209L397.594 0.0610209L397.655 0.1228L397.717 0.0610005L405.412 7.79452L410.213 2.96942Z" fill="#374B69"/>
</svg>
