<svg width="20" height="20" viewBox="0 0 20 20" fill="none" xmlns="http://www.w3.org/2000/svg">
<path fill-rule="evenodd" clip-rule="evenodd" d="M17.3 10C17.3 14.0317 14.0317 17.3 10 17.3C5.96832 17.3 2.7 14.0317 2.7 10C2.7 5.96832 5.96832 2.7 10 2.7C14.0317 2.7 17.3 5.96832 17.3 10ZM10 20C11.4808 20 12.8865 19.6781 14.1508 19.1005L14.7667 19.7165C14.8937 19.8435 15.1084 19.8526 15.2945 19.7389C16.1693 19.2046 17.0066 18.5499 17.7782 17.7782C18.5499 17.0066 19.2046 16.1693 19.7389 15.2945C19.8526 15.1084 19.8435 14.8937 19.7165 14.7667L19.1005 14.1508C19.6781 12.8865 20 11.4808 20 10C20 8.51921 19.6781 7.1136 19.1006 5.8493L19.7165 5.23334C19.8435 5.10635 19.8526 4.89168 19.7389 4.70554C19.2046 3.83079 18.5499 2.99348 17.7783 2.22184C17.0066 1.4502 16.1693 0.795511 15.2946 0.261198C15.1084 0.1475 14.8938 0.156607 14.7668 0.283589L14.1509 0.899504C12.8865 0.321884 11.4809 0 10 0C8.5192 0 7.11357 0.321863 5.84926 0.899445L5.23338 0.283565C5.10639 0.156582 4.89172 0.147475 4.70558 0.261173C3.83083 0.795486 2.99352 1.45018 2.22188 2.22182C1.45024 2.99346 0.795551 3.83076 0.261238 4.70552C0.14754 4.89166 0.156647 5.10633 0.283629 5.23331L0.899486 5.84917C0.321878 7.1135 0 8.51916 0 10C0 11.4808 0.321877 12.8865 0.899483 14.1508L0.283649 14.7667C0.156667 14.8936 0.14756 15.1083 0.261258 15.2945C0.795571 16.1692 1.45026 17.0065 2.2219 17.7782C2.99355 18.5498 3.83085 19.2045 4.7056 19.7388C4.89174 19.8525 5.10641 19.8434 5.2334 19.7164L5.84925 19.1006C7.11356 19.6781 8.51919 20 10 20ZM18.7912 15.2556L17.2918 13.7563C16.8973 14.4683 16.3885 15.1497 15.7691 15.7691C15.1497 16.3885 14.4683 16.8973 13.7563 17.2918L15.2557 18.7912C15.9383 18.3445 16.5934 17.815 17.2042 17.2042C17.815 16.5934 18.3445 15.9383 18.7912 15.2556ZM2.70831 6.24378L1.20893 4.7444C1.65564 4.06175 2.1851 3.40667 2.79592 2.79586C3.40674 2.18504 4.06182 1.65557 4.74446 1.20886L6.24384 2.70824C5.53186 3.10273 4.85041 3.61155 4.23101 4.23095C3.61162 4.85034 3.1028 5.5318 2.70831 6.24378ZM4.74448 18.7911L6.24386 17.2917C5.53188 16.8972 4.85042 16.3884 4.23103 15.769C3.61163 15.1496 3.10281 14.4682 2.70832 13.7562L1.20895 15.2556C1.65566 15.9382 2.18512 16.5933 2.79594 17.2041C3.40675 17.8149 4.06184 18.3444 4.74448 18.7911ZM13.7563 2.70827L15.2557 1.20889C15.9383 1.6556 16.5934 2.18506 17.2042 2.79588C17.8151 3.4067 18.3445 4.06178 18.7912 4.74442L17.2919 6.2438C16.8974 5.53182 16.3885 4.85037 15.7691 4.23097C15.1498 3.61158 14.4683 3.10276 13.7563 2.70827Z" fill="#696586"/>
<path d="M10.7159 11.9288H9.01776C9.0222 11.5255 9.05327 11.1783 9.11099 10.8871C9.17314 10.5914 9.27747 10.3248 9.42397 10.0874C9.57492 9.84991 9.77469 9.6147 10.0233 9.38172C10.232 9.19355 10.414 9.01434 10.5694 8.84409C10.7248 8.67384 10.8468 8.4991 10.9356 8.31989C11.0244 8.1362 11.0688 7.93235 11.0688 7.70833C11.0688 7.44848 11.0289 7.23342 10.9489 7.06317C10.8735 6.88844 10.758 6.75627 10.6027 6.66667C10.4517 6.57706 10.2608 6.53226 10.03 6.53226C9.83907 6.53226 9.66149 6.57482 9.49723 6.65995C9.33296 6.74059 9.19756 6.86604 9.09101 7.03629C8.9889 7.20654 8.93563 7.43056 8.93119 7.70833H7C7.01332 7.09453 7.15316 6.58826 7.41953 6.18952C7.69034 5.78629 8.05216 5.48835 8.50499 5.2957C8.95782 5.09857 9.46615 5 10.03 5C10.6515 5 11.1842 5.10305 11.6282 5.30914C12.0721 5.51075 12.4118 5.80869 12.6471 6.20296C12.8824 6.59274 13 7.06765 13 7.62769C13 8.01747 12.9245 8.3647 12.7736 8.66935C12.6226 8.96953 12.4251 9.24955 12.1809 9.50941C11.9367 9.76927 11.6681 10.0381 11.3751 10.3159C11.1221 10.5444 10.9489 10.7841 10.8557 11.0349C10.7669 11.2858 10.7203 11.5838 10.7159 11.9288ZM8.81798 14.0054C8.81798 13.7186 8.91565 13.4812 9.11099 13.293C9.30633 13.1004 9.56826 13.004 9.89678 13.004C10.2209 13.004 10.4806 13.1004 10.6759 13.293C10.8757 13.4812 10.9756 13.7186 10.9756 14.0054C10.9756 14.2832 10.8757 14.5184 10.6759 14.711C10.4806 14.9037 10.2209 15 9.89678 15C9.56826 15 9.30633 14.9037 9.11099 14.711C8.91565 14.5184 8.81798 14.2832 8.81798 14.0054Z" fill="#696586"/>
</svg>
