<svg width="133" height="133" fill="none" xmlns="http://www.w3.org/2000/svg"><path d="M66.71.024c12.432-.173 24.859.59 37.175 2.28a33.304 33.304 0 0 1 26.532 26.534 248.26 248.26 0 0 1 2.28 37.178c.172 12.433-.59 24.86-2.28 37.179a33.308 33.308 0 0 1-26.532 26.534 247.935 247.935 0 0 1-37.174 2.28 248.028 248.028 0 0 1-37.16-2.28 33.3 33.3 0 0 1-26.533-26.534A248.164 248.164 0 0 1 .711 66.017a248.16 248.16 0 0 1 2.28-37.179 33.306 33.306 0 0 1 26.56-26.534A248.086 248.086 0 0 1 66.71.024z" fill="url(#a)"/><path d="M76.435 83.307v10.465H85.5V83.307a5.577 5.577 0 0 1 5.575-5.576v-9.064a14.652 14.652 0 0 0-14.639 14.64zm-19.418-14.64a14.652 14.652 0 0 0-14.64 14.64v10.465h9.147V83.307a5.577 5.577 0 1 1 11.15 0v10.465h9.065V83.307a14.655 14.655 0 0 0-14.722-14.64zm25.79-19.064a5.576 5.576 0 1 1-11.15 0V39.138h-9.064v10.465a5.576 5.576 0 1 1-11.152 0V39.138h-9.063v10.465A14.614 14.614 0 0 0 59.606 63.99a14.611 14.611 0 0 0 7.49-3.824 14.612 14.612 0 0 0 24.72-10.562V39.138h-9.064l.055 10.465zM66.712 14.911a51.096 51.096 0 0 0-47.21 31.548 51.11 51.11 0 0 0 11.078 55.693 51.101 51.101 0 0 0 26.163 13.987 51.102 51.102 0 0 0 61.069-50.123 51.107 51.107 0 0 0-14.967-36.137 51.097 51.097 0 0 0-36.133-14.968zm0 93.186A42.074 42.074 0 0 1 27.838 82.12a42.086 42.086 0 0 1 9.121-45.86 42.076 42.076 0 0 1 71.83 29.756 42.085 42.085 0 0 1-12.324 29.756 42.073 42.073 0 0 1-29.753 12.325z" fill="url(#b)"/><defs><radialGradient id="a" cx="0" cy="0" r="1" gradientUnits="userSpaceOnUse" gradientTransform="matrix(149.673 0 0 149.688 13.771 11.753)"><stop stop-color="#563BFF"/><stop offset="1" stop-color="#6A1BB8"/></radialGradient><radialGradient id="b" cx="0" cy="0" r="1" gradientUnits="userSpaceOnUse" gradientTransform="matrix(99.8781 0 0 99.8883 35.113 30.238)"><stop stop-color="#fff"/><stop offset=".36" stop-color="#F5F7FA"/><stop offset=".97" stop-color="#DBE3EE"/><stop offset="1" stop-color="#DAE2ED"/></radialGradient></defs></svg>