<svg width="194" height="255" viewBox="0 0 194 255" fill="none" xmlns="http://www.w3.org/2000/svg">
<path d="M42.8201 224.787L36.5907 244.036L30.3613 224.787H22.5745L16.2205 243.865L10.1935 224.787H1.25435L11.0501 254.876H20.1762L26.1876 236.654L32.0276 254.876H41.1537L50.9495 224.787H42.8201ZM166.63 199.87H172.485L179.525 209.837H191.049L182.826 197.954C185.12 196.898 187.081 195.234 188.495 193.142C189.77 190.95 190.427 188.452 190.395 185.916C190.474 183.297 189.751 180.716 188.324 178.519C186.886 176.34 184.861 174.612 182.484 173.535C179.611 172.296 176.499 171.711 173.373 171.822H155.806V209.821H166.708L166.63 199.87ZM166.63 180.605H172.657C174.425 180.488 176.181 180.971 177.64 181.976C178.215 182.493 178.668 183.131 178.964 183.845C179.26 184.559 179.393 185.331 179.353 186.103C179.379 186.873 179.239 187.64 178.943 188.352C178.648 189.063 178.204 189.704 177.64 190.23C176.185 191.246 174.427 191.735 172.657 191.616H166.63V180.605ZM60.0133 224.803L46.6045 254.891H55.3724L57.7863 249.051H70.5099L72.9082 254.891H81.8629L68.4386 224.803H60.0133ZM60.1846 242.681L64.1403 233.057L68.0959 242.681H60.1846ZM11.1747 208.295C14.5413 210.037 18.2861 210.919 22.0762 210.865C25.8684 210.94 29.6182 210.056 32.9776 208.295C36.1404 206.746 38.7699 204.29 40.5308 201.24C42.4218 198.203 43.3802 194.678 43.2873 191.102C43.3599 187.523 42.4031 183.999 40.5308 180.948C38.6748 177.975 36.0701 175.542 32.9776 173.893C29.5835 172.262 25.8381 171.497 22.0762 171.666C18.2839 171.591 14.5341 172.475 11.1747 174.236C8.05872 175.773 5.44042 178.159 3.62151 181.119C1.82609 184.191 0.879883 187.684 0.879883 191.242C0.879883 194.8 1.82609 198.293 3.62151 201.365C5.43588 204.337 8.0546 206.734 11.1747 208.28V208.295ZM13.0747 185.402C13.9167 183.781 15.2383 182.46 16.859 181.618C18.4846 180.705 20.3207 180.232 22.1852 180.247C24.0472 180.251 25.8785 180.723 27.5113 181.618C29.0582 182.557 30.3562 183.855 31.2957 185.402C32.1952 187.163 32.6698 189.109 32.6817 191.086C32.691 193.061 32.215 195.008 31.2957 196.755C30.3392 198.348 28.9732 199.654 27.34 200.539C25.7152 201.455 23.8786 201.927 22.0139 201.91C20.1731 201.944 18.3569 201.484 16.7545 200.577C15.1521 199.67 13.8222 198.351 12.9033 196.755C12.0646 195.047 11.6531 193.16 11.7042 191.258C11.5864 189.214 12.0624 187.181 13.0747 185.402ZM107.653 171.993H97.3275L89.2448 196.412L81.6916 171.993H71.709L63.6264 196.241L55.8396 171.993H44.6733L57.1322 209.993H68.8123L76.3811 186.788L83.7785 209.993H95.3029L107.653 171.993ZM148.923 242.65H161.381V236.296H148.923V231.126H163.188V224.429H140.326V254.517H163.686V247.976H148.907L148.923 242.65ZM166.053 224.772V231.64H175.398V255H183.994V231.484H193.12V224.616H166.116L166.053 224.772ZM148.004 171.978H137.336V192.223L120.314 171.978H111.375V209.946H122.089V189.872L139.111 210.117H148.066L148.004 171.978ZM122.089 224.787H113.493V254.876H136.542V247.992H122.089V224.787ZM93.7144 224.787H85.1178V254.876H108.167V247.992H93.7144V224.787Z" fill="url(#paint0_radial_22410_5852)"/>
<path d="M97.7109 0.024023C110.142 -0.149031 122.569 0.613078 134.885 2.30389C141.462 3.54808 147.511 6.74521 152.243 11.4784C156.976 16.2116 160.173 22.2611 161.417 28.8382C163.107 41.1564 163.869 53.5841 163.697 66.0165C163.869 78.4489 163.107 90.8767 161.417 103.195C160.173 109.772 156.976 115.821 152.243 120.555C147.511 125.288 141.462 128.485 134.885 129.729C122.569 131.42 110.142 132.182 97.7109 132.009C85.2844 132.181 72.8625 131.419 60.5501 129.729C53.9737 128.485 47.9248 125.288 43.1921 120.555C38.4594 115.821 35.2625 109.772 34.0185 103.195C32.3191 90.8774 31.5479 78.4496 31.7114 66.0165C31.5388 53.5841 32.3009 41.1564 33.991 28.8382C35.2369 22.2574 38.4378 16.2051 43.1758 11.4716C47.9138 6.73801 53.9687 3.54309 60.5501 2.30389C72.8625 0.61423 85.2844 -0.147875 97.7109 0.024023V0.024023Z" fill="url(#paint1_radial_22410_5852)"/>
<path d="M107.435 83.3071V93.7725H116.499V83.3071C116.499 81.8282 117.086 80.41 118.132 79.3642C119.177 78.3185 120.595 77.731 122.074 77.731V68.6665C118.193 68.6702 114.471 70.2138 111.727 72.9587C108.982 75.7035 107.439 79.4253 107.435 83.3071V83.3071ZM88.017 68.6665C84.1356 68.6702 80.4142 70.2138 77.6696 72.9587C74.9251 75.7035 73.3815 79.4253 73.3779 83.3071V93.7725H82.5239V83.3071C82.5239 81.8282 83.1113 80.41 84.1569 79.3642C85.2025 78.3185 86.6207 77.731 88.0994 77.731C89.5781 77.731 90.9963 78.3185 92.0419 79.3642C93.0875 80.41 93.6749 81.8282 93.6749 83.3071V93.7725H102.738V83.3071C102.737 81.378 102.354 79.4683 101.613 77.6875C100.871 75.9066 99.7854 74.2897 98.4177 72.9295C97.0499 71.5692 95.4271 70.4925 93.6423 69.7609C91.8575 69.0294 89.9459 68.6575 88.017 68.6665V68.6665ZM113.807 49.6035C113.807 51.0824 113.22 52.5007 112.174 53.5464C111.128 54.5921 109.71 55.1796 108.232 55.1796C106.753 55.1796 105.335 54.5921 104.289 53.5464C103.244 52.5007 102.656 51.0824 102.656 49.6035V39.1381H93.5925V49.6035C93.5925 51.0824 93.0051 52.5007 91.9595 53.5464C90.9139 54.5921 89.4957 55.1796 88.017 55.1796C86.5383 55.1796 85.1202 54.5921 84.0745 53.5464C83.0289 52.5007 82.4415 51.0824 82.4415 49.6035V39.1381H73.3779V49.6035C73.3762 52.4677 74.2162 55.2692 75.7934 57.6599C77.3706 60.0506 79.6155 61.925 82.2491 63.0503C84.8827 64.1755 87.7888 64.5019 90.6064 63.989C93.424 63.476 96.0287 62.1463 98.0968 60.1651C100.165 62.1463 102.77 63.476 105.587 63.989C108.405 64.5019 111.311 64.1755 113.945 63.0503C116.578 61.925 118.823 60.0506 120.4 57.6599C121.977 55.2692 122.817 52.4677 122.816 49.6035V39.1381H113.752L113.807 49.6035ZM97.7123 14.9111C87.6058 14.9111 77.7262 17.9084 69.323 23.5238C60.9197 29.1393 54.3701 37.1207 50.5025 46.4589C46.6349 55.7971 45.623 66.0725 47.5947 75.9859C49.5664 85.8992 54.4331 95.0052 61.5795 102.152C68.7259 109.299 77.831 114.167 87.7433 116.139C97.6556 118.11 107.93 117.098 117.267 113.23C126.604 109.362 134.585 102.812 140.2 94.4081C145.815 86.004 148.812 76.1234 148.812 66.0158C148.812 52.462 143.428 39.4633 133.845 29.8794C124.262 20.2954 111.265 14.9111 97.7123 14.9111V14.9111ZM97.7123 108.097C89.3902 108.097 81.2551 105.629 74.3355 101.005C67.416 96.3813 62.0229 89.809 58.8381 82.1197C55.6534 74.4303 54.8202 65.9692 56.4437 57.8062C58.0673 49.6432 62.0747 42.145 67.9593 36.2598C73.8439 30.3746 81.3413 26.3668 89.5035 24.743C97.6656 23.1193 106.126 23.9527 113.815 27.1377C121.503 30.3227 128.075 35.7164 132.698 42.6367C137.322 49.5569 139.789 57.6929 139.789 66.0158C139.789 77.1765 135.356 87.8801 127.465 95.7718C119.574 103.664 108.872 108.097 97.7123 108.097V108.097Z" fill="url(#paint2_radial_22410_5852)"/>
<defs>
<radialGradient id="paint0_radial_22410_5852" cx="0" cy="0" r="1" gradientUnits="userSpaceOnUse" gradientTransform="translate(10.8321 174.236) scale(182.459 182.46)">
<stop stop-color="white"/>
<stop offset="1" stop-color="#B8C0CD"/>
</radialGradient>
<radialGradient id="paint1_radial_22410_5852" cx="0" cy="0" r="1" gradientUnits="userSpaceOnUse" gradientTransform="translate(44.7712 11.753) scale(149.673 149.688)">
<stop stop-color="#563BFF"/>
<stop offset="1" stop-color="#6A1BB8"/>
</radialGradient>
<radialGradient id="paint2_radial_22410_5852" cx="0" cy="0" r="1" gradientUnits="userSpaceOnUse" gradientTransform="translate(66.1133 30.2384) scale(99.8781 99.8883)">
<stop stop-color="white"/>
<stop offset="0.36" stop-color="#F5F7FA"/>
<stop offset="0.97" stop-color="#DBE3EE"/>
<stop offset="1" stop-color="#DAE2ED"/>
</radialGradient>
</defs>
</svg>
