<svg width="60" height="60" fill="none" xmlns="http://www.w3.org/2000/svg"><path d="M45.67 60H10.804a5.825 5.825 0 0 1-4.1-1.692A5.77 5.77 0 0 1 5 54.23V22.764c-.005-.586.22-1.15.63-1.573L26.266.651a2.26 2.26 0 0 1 1.58-.626H45.67a5.825 5.825 0 0 1 4.099 1.696 5.77 5.77 0 0 1 1.7 4.081v48.452a5.764 5.764 0 0 1-1.71 4.063A5.82 5.82 0 0 1 45.67 60z" fill="url(#a)"/><path d="M57.132 35.23H32.96c-.697 0-1.263.564-1.263 1.26v10.163c0 .696.566 1.26 1.263 1.26h24.172c.697 0 1.263-.564 1.263-1.26V36.49c0-.696-.566-1.26-1.263-1.26z" fill="#E63229"/><path d="M40.635 39.489c.236.369.356.799.346 1.236a2.12 2.12 0 0 1-.347 1.222 2.136 2.136 0 0 1-.984.808c-.47.199-.976.295-1.486.283h-1.1v1.642H35.29v-6.286h2.888a3.593 3.593 0 0 1 1.485.282c.398.168.737.451.972.813zm-1.46 1.236a.88.88 0 0 0-.279-.684 1.247 1.247 0 0 0-.83-.239h-.989v1.837h.99c.296.021.59-.063.83-.239a.834.834 0 0 0 .279-.675zm6.01-2.331a4.221 4.221 0 0 1 1.841.384c.513.237.946.618 1.247 1.095a3.36 3.36 0 0 1 0 3.32c-.3.477-.734.857-1.247 1.094a4.223 4.223 0 0 1-1.84.384h-2.981v-6.277h2.98zm1.234 4.414a1.88 1.88 0 0 0 0-2.533 1.842 1.842 0 0 0-1.304-.442h-1.127v3.417h1.127c.475.027.943-.132 1.304-.442zm5.375-1.65h2.786v1.372h-2.786v2.15H50.02v-6.286h4.95v1.373h-3.162l-.014 1.39zM27.872 0a2.26 2.26 0 0 0-1.58.627L5.654 21.167a2.231 2.231 0 0 0-.63 1.572v1.04H24.05a4.904 4.904 0 0 0 3.46-1.426 4.857 4.857 0 0 0 1.432-3.443V0h-1.07z" fill="#fff"/><defs><linearGradient id="a" x1="10.167" y1="14.143" x2="36.302" y2="42.123" gradientUnits="userSpaceOnUse"><stop stop-color="#AFB3C6"/><stop offset="1" stop-color="#CFD3EC"/></linearGradient></defs></svg>