<svg width="950" height="301" fill="none" xmlns="http://www.w3.org/2000/svg"><path opacity=".15" d="M-485 194.429c392.459 126.348 772.525 91.336 1169.115-7.611 314.606-78.493 594.115-30.067 750.885 16.106" stroke="url(#a)"/><path opacity=".5" d="M-485 183.877C-281.902 285.305-148.466 304.323.67 285.305 285.007 249.046 476.526 35.357 886.647 67.959 1097.62 84.73 1302.42 185.748 1435 300" stroke="url(#b)"/><path opacity=".3" d="M-485 36.061C-202.866.667 4.817 66.573 527.941 193.503 951.495 296.274 1242.76 143.815 1435 36.061" stroke="url(#c)"/><defs><linearGradient id="a" x1="-43.4" y1="275.855" x2="-24.221" y2="59.947" gradientUnits="userSpaceOnUse"><stop stop-color="#FF409C"/><stop offset="1" stop-color="#6F3DFF"/></linearGradient><linearGradient id="b" x1="-18.777" y1="417.524" x2="108.308" y2="-141.528" gradientUnits="userSpaceOnUse"><stop stop-color="#40DDFF"/><stop offset="1" stop-color="#6F3DFF"/></linearGradient><linearGradient id="c" x1="-43.4" y1="227.565" x2="1.529" y2="-101.141" gradientUnits="userSpaceOnUse"><stop stop-color="#FF409C"/><stop offset="1" stop-color="#6F3DFF"/></linearGradient></defs></svg>