<svg width="1920" height="498" fill="none" xmlns="http://www.w3.org/2000/svg"><path opacity=".15" d="M0 322.104c392.459 209.317 772.525 151.313 1169.11-12.609 314.61-130.037 594.12-49.811 750.89 26.683" stroke="url(#a)"/><path opacity=".5" d="M0 304.623C203.098 472.656 336.535 504.162 485.67 472.656c284.339-60.07 475.858-414.081 885.981-360.071C1582.62 140.369 1787.42 307.723 1920 497" stroke="url(#b)"/><path opacity=".3" d="M0 59.741C282.134 1.105 489.817 110.29 1012.94 320.57c423.55 170.257 714.82-82.316 907.06-260.829" stroke="url(#c)"/><defs><linearGradient id="a" x1="441.6" y1="457" x2="493.528" y2="104.132" gradientUnits="userSpaceOnUse"><stop stop-color="#FF409C"/><stop offset="1" stop-color="#6F3DFF"/></linearGradient><linearGradient id="b" x1="466.223" y1="691.698" x2="787.475" y2="-161.342" gradientUnits="userSpaceOnUse"><stop stop-color="#40DDFF"/><stop offset="1" stop-color="#6F3DFF"/></linearGradient><linearGradient id="c" x1="441.6" y1="377" x2="561.086" y2="-150.673" gradientUnits="userSpaceOnUse"><stop stop-color="#FF409C"/><stop offset="1" stop-color="#6F3DFF"/></linearGradient></defs></svg>