<svg width="346" height="12" fill="none" xmlns="http://www.w3.org/2000/svg"><path fill-rule="evenodd" clip-rule="evenodd" d="M0 5.394v6.09h346v-7.09L341.656.05l-6.465 6.466L328.725.05l-6.466 6.466L315.794.05l-6.466 6.466L302.863.05l-6.466 6.466L289.931.05l-6.465 6.466L277 .05l-6.466 6.466L264.069.05l-6.466 6.466L251.137.05l-6.465 6.466L238.206.05l-6.465 6.466L225.275.05l-6.466 6.466L212.344.05l-6.466 6.466L199.413.05l-6.466 6.466L186.481.05l-6.465 6.466L173.5 0l-6.516 6.516L160.519.05l-6.466 6.466L147.588.05l-6.466 6.466L134.656.05l-6.465 6.466L121.725.05l-6.466 6.466L108.794.05l-6.466 6.466L95.863.05l-6.466 6.466L82.931.05l-6.465 6.466L70 .05l-6.465 6.466L57.069.05l-6.466 6.466L44.138.05l-6.466 6.466L31.206.05l-6.465 6.466L18.275.05 11.81 6.516 5.344.05 0 5.394z" fill="#F1F3F7"/></svg>