<svg width="20" height="20" viewBox="0 0 20 20" fill="none" xmlns="http://www.w3.org/2000/svg">
<circle cx="10" cy="10" r="10" fill="#8272F2"/>
<mask id="mask0_22902_991" style="mask-type:alpha" maskUnits="userSpaceOnUse" x="2" y="2" width="16" height="16">
<circle cx="10" cy="10" r="8" fill="#8272F2"/>
</mask>
<g mask="url(#mask0_22902_991)">
<path d="M10 11.5707C12.039 11.5707 13.6959 9.40065 13.6959 6.95325C13.6959 4.50585 12.039 3 10 3C7.96101 3 6.30413 4.50907 6.30413 6.95325C6.30413 9.39742 7.9578 11.5707 10 11.5707ZM13.5803 11.129C13.1779 11.7084 12.6421 12.1816 12.0184 12.5083C11.3948 12.8351 10.7018 13.0057 9.99839 13.0057C9.29498 13.0057 8.60197 12.8351 7.97834 12.5083C7.3547 12.1816 6.8189 11.7084 6.41651 11.129C4.6055 12.1254 3 13.7279 3 15.7948V19H17V15.7948C17 13.7279 15.3945 12.1254 13.5803 11.129Z" fill="white"/>
</g>
</svg>
