<svg width="1110" height="14" fill="none" xmlns="http://www.w3.org/2000/svg"><path fill-rule="evenodd" clip-rule="evenodd" d="M410.213 2.97 413.035.06l.036.036.036-.036.062.062.061-.062.025.025.025-.025.061.062.062-.062 7.659 7.697 7.659-7.697.036.036.097-.097.086.087.026-.026.061.062.062-.062 7.659 7.697 7.66-7.697.096.097.097-.097.025.026.026-.026.061.062.062-.062 7.659 7.697 7.66-7.697.096.097.097-.097.025.026.026-.026.062.062.061-.062 7.659 7.697 7.66-7.697.087.088.085-.088.011.01.01-.01.026.026.025-.026.062.062.061-.062 4.826 4.973 2.772 2.786 7.721-7.759.086.087.087-.087.01.01.01-.01.026.026.086-.087 7.721 7.76 7.66-7.7.087.088.086-.087.01.01.01-.01.087.087.086-.087 7.66 7.698 7.66-7.698.087.087.086-.087.01.01.01-.01.087.087.086-.087 7.66 7.698 7.66-7.698.087.087.086-.087.01.01.011-.01.086.087.086-.087 7.66 7.698 7.661-7.698.086.087.086-.087.01.01.011-.01.086.087.086-.087 7.661 7.698 7.66-7.698.086.087.086-.087.011.01.01-.01.086.087.086-.087 7.661 7.698 7.66-7.698.086.087.086-.087.011.01.01-.01.086.087.086-.087 7.661 7.698 7.66-7.698.086.087.086-.087.011.01.01-.01.086.087.087-.087 7.66 7.698L617.016 0l.086.087.026-.026.01.01.01-.01.087.087.086-.087 7.721 7.76 2.772-2.787L632.64.06l.061.062.062-.062.025.026.026-.026.01.01.011-.01.085.088.087-.088 7.659 7.697 7.66-7.697.061.062.062-.062.025.026.026-.026.097.097.096-.097 7.66 7.697 7.659-7.697.061.062.062-.062.025.026.026-.026.097.097.096-.097 7.66 7.697 7.659-7.697.061.062.062-.062.026.026.086-.087.096.097.036-.036 7.66 7.697 7.659-7.697.062.062.061-.062.025.025.025-.025.061.062.062-.062.036.036.036-.036 2.824 2.911 4.799 4.823L711.07.06l.062.062.061-.062.025.025.025-.025.061.062.062-.062 7.695 7.733 7.696-7.733.061.062.061-.062.025.025.025-.025.061.062.062-.062 7.695 7.734L742.443.06l.061.062.062-.062.024.025.025-.025.062.062.061-.062 7.695 7.733 7.696-7.733.061.062.062-.062.024.025.025-.025.062.062.061-.062 7.696 7.733 7.695-7.733.061.062.062-.062.025.025.024-.025.062.062.061-.062 7.696 7.734L789.501.06l.061.062.062-.062.025.025.025-.025.061.062.062-.062 7.695 7.733 7.695-7.733.062.062.061-.062.025.025.025-.025.061.062.062-.062 7.695 7.734L820.873.06l.062.062.061-.062.025.025.025-.025.061.062.062-.062 7.695 7.733L836.62 0l.086.087.026-.026.062.062.061-.062 7.756 7.794 7.756-7.794.026.026.025-.026.062.062.061-.062 7.756 7.794 7.756-7.794.026.026.025-.026.062.062.061-.062 7.756 7.794 7.756-7.794.026.026.025-.026.062.062.061-.062 6.483 6.514V6.7l1.212 1.218 7.817-7.856.026.026.086-.087 7.818 7.856 7.757-7.795.086.087.086-.087 7.757 7.795 7.757-7.795.086.087.086-.087 7.757 7.795 7.757-7.795.086.087.086-.087 7.757 7.795L962.17.061l.086.087.086-.087 7.757 7.795 7.757-7.795.086.087.087-.087 7.756 7.795 7.757-7.795.086.087.087-.087 7.755 7.795 7.76-7.795.08.087.09-.087 7.76 7.795 7.75-7.795.09.087.09-.087 7.75 7.795 7.76-7.795.09.087.08-.087 7.85 7.882 7.84-7.882 7.84 7.882 7.85-7.882 7.84 7.882 7.84-7.882 7.84 7.882 7.85-7.882 6.48 6.514V14H0V5.356L5.27.061l7.842 7.882L20.955.06l7.843 7.882L36.642.06l7.842 7.882L52.328.06l7.843 7.882L68.014.06l.086.087.086-.087 7.757 7.795L83.7.061l.086.087.086-.087 7.757 7.795L99.386.061l.086.087.087-.087 7.756 7.795 7.757-7.795.086.087.087-.087 7.756 7.795 7.757-7.795.086.087.087-.087 7.757 7.795 7.756-7.795.087.087.086-.087 7.757 7.795 7.757-7.795.086.087.086-.087 7.757 7.795 7.757-7.795.086.087.086-.087 7.757 7.795 7.757-7.795.086.087.086-.087 7.757 7.795L209.25 0l.086.087.025-.026 7.818 7.856 2.425-2.437v-.124l5.269-5.295.062.062.061-.062.026.026.026-.026 7.756 7.794L240.56.061l.061.062.062-.062.025.026.026-.026 7.756 7.794 7.756-7.794.061.062.062-.062.025.026.026-.026 7.756 7.794 7.756-7.794.061.062.062-.062.026.026.086-.087 7.756 7.794 7.695-7.733.062.062.061-.062.025.025.024-.025.062.062.061-.062 7.696 7.734L303.304.06l.062.062.061-.062.025.025.025-.025.061.062.062-.062 7.695 7.733L318.99.061l.062.062.061-.062.025.025.025-.025.061.062.062-.062 7.695 7.734L334.676.06l.062.062.061-.062.025.025.025-.025.061.062.062-.062 7.695 7.733 7.696-7.733.061.062.062-.062.024.025.025-.025.062.062.061-.062 7.695 7.733 7.696-7.733.061.062.062-.062.025.025.024-.025.062.062.061-.062 7.696 7.734L381.735.06l.061.062.062-.062.025.025.024-.025.062.062.061-.062 7.696 7.733 7.695-7.733.062.062.061-.062.025.025.025-.025.061.062.062-.062 7.695 7.734 4.801-4.826z" fill="#374B69"/></svg>