<svg width="100" height="100" fill="none" xmlns="http://www.w3.org/2000/svg"><path d="M50 8.334c8.118 0 16.14.294 23.473 1.467a20.296 20.296 0 0 1 10.957 5.77c3.032 3.032 5.183 6.848 5.77 10.956C91.274 33.86 91.666 41.785 91.666 50s-.292 16.14-1.468 23.474a20.284 20.284 0 0 1-5.77 10.956c-3.032 3.032-6.848 5.183-10.956 5.77C66.14 91.277 58.215 91.666 50 91.666s-16.14-.291-23.474-1.468a20.296 20.296 0 0 1-10.956-5.77c-3.032-3.031-5.183-6.844-5.77-10.955C8.626 66.14 8.334 58.118 8.334 50s.292-16.14 1.468-23.473a20.296 20.296 0 0 1 5.77-10.957c3.031-3.032 6.848-5.183 10.955-5.769C33.764 8.628 41.785 8.334 50 8.334z" fill="url(#a)"/><path fill-rule="evenodd" clip-rule="evenodd" d="M70.172 1.17c-8.47-.154-17.572.8-26.787 2.1-9.319 1.32-18.336 2.935-26.32 5.419l-.006.002-.006.001c-4.428 1.284-8.303 4.255-11.209 8.104l-.003.003A22.688 22.688 0 0 0 1.17 29.827c-.154 8.47.796 17.583 2.1 26.787 1.303 9.206 2.922 18.228 5.42 26.323v.005l.002.004c1.284 4.428 4.255 8.304 8.104 11.21l.003.002a22.689 22.689 0 0 0 13.028 4.672c8.47.154 17.471-.78 26.787-2.1 9.312-1.319 18.211-3.03 26.33-5.422h.002c4.428-1.284 8.304-4.255 11.21-8.104l.002-.003a22.712 22.712 0 0 0 4.672-13.028c.154-8.47-.787-17.47-2.103-26.788-1.316-9.311-3.027-18.21-5.419-26.33v-.002c-1.284-4.428-4.255-8.303-8.104-11.209l-.003-.003A22.712 22.712 0 0 0 70.173 1.17zm-26.948.958C52.46.825 61.634-.14 70.198.017h.01A23.865 23.865 0 0 1 83.9 4.925c4.005 3.025 7.148 7.096 8.514 11.806 2.412 8.191 4.134 17.15 5.454 26.493 1.32 9.337 2.27 18.41 2.114 26.974V70.207a23.865 23.865 0 0 1-4.908 13.694c-3.025 4.005-7.096 7.148-11.807 8.514-8.19 2.412-17.149 4.134-26.492 5.457-9.338 1.323-18.411 2.267-26.974 2.111h-.01A23.842 23.842 0 0 1 16.1 95.075c-4.004-3.024-7.147-7.094-8.513-11.803C5.063 75.092 3.433 66 2.128 56.776.82 47.55-.14 38.365.017 29.802v-.01A23.842 23.842 0 0 1 4.925 16.1c3.024-4.004 7.093-7.147 11.802-8.513C24.8 5.076 33.889 3.45 43.224 2.128z" fill="url(#b)"/><path fill-rule="evenodd" clip-rule="evenodd" d="M33.8 64.88c0-.461.373-.834.834-.834h4.259a.833.833 0 1 1 0 1.667h-4.26a.833.833 0 0 1-.833-.834zM43.675 64.88c0-.461.373-.834.833-.834h4.26a.833.833 0 0 1 0 1.667h-4.26a.833.833 0 0 1-.833-.834zM53.55 64.88c0-.461.373-.834.833-.834h4.26a.833.833 0 1 1 0 1.667h-4.26a.833.833 0 0 1-.833-.834zM33.8 72.137c0-.46.373-.834.834-.834h4.259a.833.833 0 1 1 0 1.667h-4.26a.833.833 0 0 1-.833-.833zM43.675 72.137c0-.46.373-.834.833-.834h4.26a.833.833 0 0 1 0 1.667h-4.26a.833.833 0 0 1-.833-.833zM53.55 72.137c0-.46.373-.834.833-.834h4.26a.833.833 0 1 1 0 1.667h-4.26a.833.833 0 0 1-.833-.833zM33.8 57.614c0-.46.373-.833.834-.833h4.259a.833.833 0 1 1 0 1.666h-4.26a.833.833 0 0 1-.833-.833zM43.675 57.614c0-.46.373-.833.833-.833h4.26a.833.833 0 0 1 0 1.666h-4.26a.833.833 0 0 1-.833-.833zM53.55 57.614c0-.46.373-.833.833-.833h4.26a.833.833 0 1 1 0 1.666h-4.26a.833.833 0 0 1-.833-.833zM33.8 50.35c0-.46.373-.834.834-.834h4.259a.833.833 0 1 1 0 1.667h-4.26a.833.833 0 0 1-.833-.834zM43.675 50.35c0-.46.373-.834.833-.834h4.26a.833.833 0 0 1 0 1.667h-4.26a.833.833 0 0 1-.833-.834zM53.55 50.35c0-.46.373-.834.833-.834h4.26a.833.833 0 1 1 0 1.667h-4.26a.833.833 0 0 1-.833-.834z" fill="#696586"/><path fill-rule="evenodd" clip-rule="evenodd" d="M31.687 21.5a2.832 2.832 0 0 0-2.832 2.832v51.536a2.832 2.832 0 0 0 2.832 2.832h36.346a2.832 2.832 0 0 0 2.832-2.832V24.332a2.832 2.832 0 0 0-2.832-2.832H31.687zm-4.499 2.832a4.499 4.499 0 0 1 4.499-4.498h36.346a4.499 4.499 0 0 1 4.499 4.498v51.536a4.499 4.499 0 0 1-4.499 4.499H31.687a4.499 4.499 0 0 1-4.499-4.499V24.332z" fill="#696586"/><path fill-rule="evenodd" clip-rule="evenodd" d="M34.927 28.296a.633.633 0 0 0-.633.633V41.31c0 .35.283.633.633.633h29.866c.35 0 .633-.284.633-.633V28.929a.633.633 0 0 0-.633-.633H34.927zm-2.3.633a2.3 2.3 0 0 1 2.3-2.3h29.866a2.3 2.3 0 0 1 2.3 2.3V41.31a2.3 2.3 0 0 1-2.3 2.3H34.927a2.3 2.3 0 0 1-2.3-2.3V28.929z" fill="#FD64B1"/><path fill-rule="evenodd" clip-rule="evenodd" d="M65.328 49.069c.46 0 .833.373.833.833v7.8a.833.833 0 0 1-1.666 0v-7.8c0-.46.373-.833.833-.833zM65.328 63.855c.46 0 .833.373.833.833v7.734a.833.833 0 0 1-1.666 0v-7.734c0-.46.373-.833.833-.833z" fill="#696586"/><path fill-rule="evenodd" clip-rule="evenodd" d="M60.497 31.805c.46 0 .833.373.833.833v4.985a.833.833 0 0 1-1.666 0v-4.985c0-.46.373-.833.833-.833z" fill="#FD64B1"/><defs><linearGradient id="a" x1="13.355" y1="13.412" x2="84.23" y2="84.312" gradientUnits="userSpaceOnUse"><stop stop-color="#F9F8FF"/><stop offset=".495" stop-color="#EFEDFF"/><stop offset="1" stop-color="#D8D4F3"/></linearGradient><linearGradient id="b" x1="77" y1="0" x2="-3.417" y2="61.594" gradientUnits="userSpaceOnUse"><stop stop-color="#FF409C"/><stop offset="1" stop-color="#6F3DFF"/></linearGradient></defs></svg>